SplineFontDB: 3.2
FontName: Reijima-ThinItalic
FullName: Reijima Thin Italic
FamilyName: Reijima Thin
Weight: Thin
Copyright: Copyright (c) 2019 by Coji Morishita. All rights reserved.
Version: 1.000
ItalicAngle: -9
UnderlinePosition: -100
UnderlineWidth: 50
Ascent: 860
Descent: 140
InvalidEm: 0
LayerCount: 2
Layer: 0 0 "Back" 1
Layer: 1 0 "Fore" 0
FSType: 8
OS2Version: 0
OS2_WeightWidthSlopeOnly: 0
OS2_UseTypoMetrics: 0
CreationTime: 1707357836
ModificationTime: 1707357836
OS2TypoAscent: 0
OS2TypoAOffset: 1
OS2TypoDescent: 0
OS2TypoDOffset: 1
OS2TypoLinegap: 0
OS2WinAscent: 0
OS2WinAOffset: 1
OS2WinDescent: 0
OS2WinDOffset: 1
HheadAscent: 0
HheadAOffset: 1
HheadDescent: 0
HheadDOffset: 1
OS2Vendor: 'PfEd'
DEI: 91125
Encoding: UnicodeFull
Compacted: 1
UnicodeInterp: none
NameList: AGL For New Fonts
DisplaySize: -48
AntiAlias: 1
FitToEm: 0
WinInfo: 0 27 9
BeginPrivate: 3
BlueValues 24 [-10 0 520 530 730 750 ]
OtherBlues 12 [-220 -220 ]
BlueShift 2 21
EndPrivate
BeginChars: 1114125 955

StartChar: .notdef
Encoding: 1114112 -1 0
Width: 477
LayerCount: 2
Fore
SplineSet
328 -140 m 1
 17 -140 l 1
 176 860 l 1
 487 860 l 1
 328 -140 l 1
239 793 m 1
 234 760 l 1
 297 760 l 1
 291 723 l 1
 227 723 l 1
 221 690 l 1
 384 690 l 1
 389 723 l 1
 325 723 l 1
 331 760 l 1
 395 760 l 1
 400 793 l 1
 239 793 l 1
217 664 m 1
 201 560 l 1
 364 560 l 1
 369 594 l 1
 304 594 l 1
 315 664 l 1
 217 664 l 1
271 594 m 1
 239 594 l 1
 244 630 l 1
 277 630 l 1
 271 594 l 1
197 533 m 1
 191 500 l 1
 256 500 l 1
 250 463 l 1
 185 463 l 1
 180 430 l 1
 278 430 l 1
 289 500 l 1
 354 500 l 1
 359 533 l 1
 197 533 l 1
317 473 m 1
 307 407 l 1
 177 407 l 1
 171 373 l 1
 334 373 l 1
 350 473 l 1
 317 473 l 1
232 351 m 1
 224 295 l 1
 257 295 l 1
 261 318 l 1
 293 318 l 1
 285 271 l 1
 187 271 l 1
 200 351 l 1
 168 351 l 1
 150 238 l 1
 313 238 l 1
 330 351 l 1
 232 351 l 1
140 178 m 1
 122 65 l 1
 285 65 l 1
 303 178 l 1
 140 178 l 1
258 98 m 1
 160 98 l 1
 167 145 l 1
 265 145 l 1
 258 98 l 1
119 42 m 1
 114 9 l 1
 182 9 l 1
 106 -38 l 1
 101 -71 l 1
 264 -71 l 1
 269 -38 l 1
 169 -38 l 1
 245 9 l 1
 276 9 l 1
 281 42 l 1
 119 42 l 1
EndSplineSet
EndChar

StartChar: A
Encoding: 65 65 2
Width: 632
Flags: W
LayerCount: 2
Fore
SplineSet
549 0 m 1
 494 237 l 1
 124 237 l 1
 -6 0 l 1
 -28 0 l 1
 372 730 l 1
 402 730 l 1
 570 0 l 1
 549 0 l 1
135 257 m 1
 489 257 l 1
 385 711 l 1
 383 711 l 1
 135 257 l 1
EndSplineSet
EndChar

StartChar: Aacute
Encoding: 193 193 3
Width: 648
Flags: W
LayerCount: 2
Fore
SplineSet
549 0 m 1
 494 237 l 1
 124 237 l 1
 -6 0 l 1
 -28 0 l 1
 372 730 l 1
 402 730 l 1
 570 0 l 1
 549 0 l 1
135 257 m 1
 489 257 l 1
 385 711 l 1
 383 711 l 1
 135 257 l 1
367 770 m 1
 344 770 l 1
 496 980 l 1
 519 980 l 1
 367 770 l 1
EndSplineSet
EndChar

StartChar: Abreve
Encoding: 258 258 4
Width: 648
Flags: W
LayerCount: 2
Fore
SplineSet
549 0 m 1
 494 237 l 1
 124 237 l 1
 -6 0 l 1
 -28 0 l 1
 372 730 l 1
 402 730 l 1
 570 0 l 1
 549 0 l 1
135 257 m 1
 489 257 l 1
 385 711 l 1
 383 711 l 1
 135 257 l 1
284 838 m 0
 259 860 247 889 246 925 c 1
 266 925 l 1
 267 895 279 871 300 852 c 0
 322 834 351 825 386 825 c 0
 421 825 453 834 480 852 c 0
 508 871 527 895 538 925 c 1
 558 925 l 1
 547 889 525 860 493 838 c 0
 461 816 424 805 383 805 c 0
 342 805 309 816 284 838 c 0
EndSplineSet
EndChar

StartChar: uni1EAE
Encoding: 7854 7854 5
Width: 648
Flags: W
LayerCount: 2
Fore
SplineSet
549 0 m 1
 494 237 l 1
 124 237 l 1
 -6 0 l 1
 -28 0 l 1
 372 730 l 1
 402 730 l 1
 570 0 l 1
 549 0 l 1
135 257 m 1
 489 257 l 1
 385 711 l 1
 383 711 l 1
 135 257 l 1
284 838 m 0
 259 860 247 889 246 925 c 1
 266 925 l 1
 267 895 279 871 300 852 c 0
 322 834 351 825 386 825 c 0
 421 825 453 834 480 852 c 0
 508 871 527 895 538 925 c 1
 558 925 l 1
 547 889 525 860 493 838 c 0
 461 816 424 805 383 805 c 0
 342 805 309 816 284 838 c 0
389 910 m 1
 366 910 l 1
 518 1120 l 1
 541 1120 l 1
 389 910 l 1
EndSplineSet
EndChar

StartChar: uni1EB6
Encoding: 7862 7862 6
Width: 648
Flags: W
LayerCount: 2
Fore
SplineSet
549 0 m 1
 494 237 l 1
 124 237 l 1
 -6 0 l 1
 -28 0 l 1
 372 730 l 1
 402 730 l 1
 570 0 l 1
 549 0 l 1
135 257 m 1
 489 257 l 1
 385 711 l 1
 383 711 l 1
 135 257 l 1
239 -115 m 1
 298 -115 l 1
 288 -175 l 1
 229 -175 l 1
 239 -115 l 1
284 838 m 0
 259 860 247 889 246 925 c 1
 266 925 l 1
 267 895 279 871 300 852 c 0
 322 834 351 825 386 825 c 0
 421 825 453 834 480 852 c 0
 508 871 527 895 538 925 c 1
 558 925 l 1
 547 889 525 860 493 838 c 0
 461 816 424 805 383 805 c 0
 342 805 309 816 284 838 c 0
EndSplineSet
EndChar

StartChar: uni1EB0
Encoding: 7856 7856 7
Width: 648
Flags: W
LayerCount: 2
Fore
SplineSet
549 0 m 1
 494 237 l 1
 124 237 l 1
 -6 0 l 1
 -28 0 l 1
 372 730 l 1
 402 730 l 1
 570 0 l 1
 549 0 l 1
135 257 m 1
 489 257 l 1
 385 711 l 1
 383 711 l 1
 135 257 l 1
284 838 m 0
 259 860 247 889 246 925 c 1
 266 925 l 1
 267 895 279 871 300 852 c 0
 322 834 351 825 386 825 c 0
 421 825 453 834 480 852 c 0
 508 871 527 895 538 925 c 1
 558 925 l 1
 547 889 525 860 493 838 c 0
 461 816 424 805 383 805 c 0
 342 805 309 816 284 838 c 0
351 1120 m 1
 374 1120 l 1
 459 910 l 1
 437 910 l 1
 351 1120 l 1
EndSplineSet
EndChar

StartChar: uni1EB2
Encoding: 7858 7858 8
Width: 648
Flags: W
LayerCount: 2
Fore
SplineSet
549 0 m 1
 494 237 l 1
 124 237 l 1
 -6 0 l 1
 -28 0 l 1
 372 730 l 1
 402 730 l 1
 570 0 l 1
 549 0 l 1
135 257 m 1
 489 257 l 1
 385 711 l 1
 383 711 l 1
 135 257 l 1
284 838 m 0
 259 860 247 889 246 925 c 1
 266 925 l 1
 267 895 279 871 300 852 c 0
 322 834 351 825 386 825 c 0
 421 825 453 834 480 852 c 0
 508 871 527 895 538 925 c 1
 558 925 l 1
 547 889 525 860 493 838 c 0
 461 816 424 805 383 805 c 0
 342 805 309 816 284 838 c 0
550 956 m 0
 556 974 560 990 562 1003 c 0
 565 1023 560 1037 548 1044 c 0
 534 1051 508 1055 468 1055 c 0
 429 1055 389 1050 349 1040 c 1
 347 1059 l 1
 390 1070 431 1075 472 1075 c 0
 517 1075 548 1070 564 1059 c 0
 580 1048 586 1030 582 1003 c 0
 580 990 576 976 570 959 c 0
 565 942 559 928 552 915 c 1
 530 915 l 1
 537 925 543 939 550 956 c 0
EndSplineSet
EndChar

StartChar: uni1EB4
Encoding: 7860 7860 9
Width: 648
Flags: W
LayerCount: 2
Fore
SplineSet
549 0 m 1
 494 237 l 1
 124 237 l 1
 -6 0 l 1
 -28 0 l 1
 372 730 l 1
 402 730 l 1
 570 0 l 1
 549 0 l 1
135 257 m 1
 489 257 l 1
 385 711 l 1
 383 711 l 1
 135 257 l 1
284 838 m 0
 259 860 247 889 246 925 c 1
 266 925 l 1
 267 895 279 871 300 852 c 0
 322 834 351 825 386 825 c 0
 421 825 453 834 480 852 c 0
 508 871 527 895 538 925 c 1
 558 925 l 1
 547 889 525 860 493 838 c 0
 461 816 424 805 383 805 c 0
 342 805 309 816 284 838 c 0
415 1037 m 0
 378 1069 350 1085 330 1085 c 0
 305 1085 288 1055 278 995 c 1
 259 995 l 1
 265 1032 274 1059 286 1078 c 0
 297 1096 313 1105 333 1105 c 0
 358 1105 390 1088 429 1053 c 0
 466 1021 495 1005 515 1005 c 0
 540 1005 557 1035 566 1095 c 1
 586 1095 l 1
 575 1022 550 985 512 985 c 0
 488 985 456 1002 415 1037 c 0
EndSplineSet
EndChar

StartChar: Acircumflex
Encoding: 194 194 10
Width: 648
Flags: W
LayerCount: 2
Fore
SplineSet
549 0 m 1
 494 237 l 1
 124 237 l 1
 -6 0 l 1
 -28 0 l 1
 372 730 l 1
 402 730 l 1
 570 0 l 1
 549 0 l 1
135 257 m 1
 489 257 l 1
 385 711 l 1
 383 711 l 1
 135 257 l 1
399 980 m 1
 429 980 l 1
 549 770 l 1
 525 770 l 1
 413 965 l 1
 411 965 l 1
 237 770 l 1
 212 770 l 1
 399 980 l 1
EndSplineSet
EndChar

StartChar: uni1EA4
Encoding: 7844 7844 11
Width: 648
Flags: W
LayerCount: 2
Fore
SplineSet
549 0 m 1
 494 237 l 1
 124 237 l 1
 -6 0 l 1
 -28 0 l 1
 372 730 l 1
 402 730 l 1
 570 0 l 1
 549 0 l 1
135 257 m 1
 489 257 l 1
 385 711 l 1
 383 711 l 1
 135 257 l 1
399 980 m 1
 429 980 l 1
 549 770 l 1
 525 770 l 1
 413 965 l 1
 411 965 l 1
 237 770 l 1
 212 770 l 1
 399 980 l 1
540 950 m 1
 517 950 l 1
 669 1160 l 1
 692 1160 l 1
 540 950 l 1
EndSplineSet
EndChar

StartChar: uni1EAC
Encoding: 7852 7852 12
Width: 648
Flags: W
LayerCount: 2
Fore
SplineSet
549 0 m 1
 494 237 l 1
 124 237 l 1
 -6 0 l 1
 -28 0 l 1
 372 730 l 1
 402 730 l 1
 570 0 l 1
 549 0 l 1
135 257 m 1
 489 257 l 1
 385 711 l 1
 383 711 l 1
 135 257 l 1
239 -115 m 1
 298 -115 l 1
 288 -175 l 1
 229 -175 l 1
 239 -115 l 1
399 980 m 1
 429 980 l 1
 549 770 l 1
 525 770 l 1
 413 965 l 1
 411 965 l 1
 237 770 l 1
 212 770 l 1
 399 980 l 1
EndSplineSet
EndChar

StartChar: uni1EA6
Encoding: 7846 7846 13
Width: 648
Flags: W
LayerCount: 2
Fore
SplineSet
549 0 m 1
 494 237 l 1
 124 237 l 1
 -6 0 l 1
 -28 0 l 1
 372 730 l 1
 402 730 l 1
 570 0 l 1
 549 0 l 1
135 257 m 1
 489 257 l 1
 385 711 l 1
 383 711 l 1
 135 257 l 1
399 980 m 1
 429 980 l 1
 549 770 l 1
 525 770 l 1
 413 965 l 1
 411 965 l 1
 237 770 l 1
 212 770 l 1
 399 980 l 1
214 1160 m 1
 237 1160 l 1
 322 950 l 1
 300 950 l 1
 214 1160 l 1
EndSplineSet
EndChar

StartChar: uni1EA8
Encoding: 7848 7848 14
Width: 648
Flags: W
LayerCount: 2
Fore
SplineSet
549 0 m 1
 494 237 l 1
 124 237 l 1
 -6 0 l 1
 -28 0 l 1
 372 730 l 1
 402 730 l 1
 570 0 l 1
 549 0 l 1
135 257 m 1
 489 257 l 1
 385 711 l 1
 383 711 l 1
 135 257 l 1
399 980 m 1
 429 980 l 1
 549 770 l 1
 525 770 l 1
 413 965 l 1
 411 965 l 1
 237 770 l 1
 212 770 l 1
 399 980 l 1
588 986 m 0
 595 1004 599 1020 601 1033 c 0
 604 1053 600 1067 586 1074 c 0
 574 1081 547 1085 507 1085 c 0
 468 1085 428 1080 388 1070 c 1
 386 1089 l 1
 429 1100 470 1105 511 1105 c 0
 556 1105 587 1100 603 1089 c 0
 619 1078 625 1060 621 1033 c 0
 619 1020 615 1006 610 989 c 0
 604 972 598 958 591 945 c 1
 569 945 l 1
 576 955 582 969 588 986 c 0
EndSplineSet
EndChar

StartChar: uni1EAA
Encoding: 7850 7850 15
Width: 648
Flags: W
LayerCount: 2
Fore
SplineSet
549 0 m 1
 494 237 l 1
 124 237 l 1
 -6 0 l 1
 -28 0 l 1
 372 730 l 1
 402 730 l 1
 570 0 l 1
 549 0 l 1
135 257 m 1
 489 257 l 1
 385 711 l 1
 383 711 l 1
 135 257 l 1
399 980 m 1
 429 980 l 1
 549 770 l 1
 525 770 l 1
 413 965 l 1
 411 965 l 1
 237 770 l 1
 212 770 l 1
 399 980 l 1
415 1037 m 0
 378 1069 350 1085 330 1085 c 0
 305 1085 288 1055 278 995 c 1
 259 995 l 1
 265 1032 274 1059 286 1078 c 0
 297 1096 313 1105 333 1105 c 0
 358 1105 390 1088 429 1053 c 0
 466 1021 495 1005 515 1005 c 0
 540 1005 557 1035 566 1095 c 1
 586 1095 l 1
 575 1022 550 985 512 985 c 0
 488 985 456 1002 415 1037 c 0
EndSplineSet
EndChar

StartChar: uni0200
Encoding: 512 512 16
Width: 648
Flags: W
LayerCount: 2
Fore
SplineSet
549 0 m 1
 494 237 l 1
 124 237 l 1
 -6 0 l 1
 -28 0 l 1
 372 730 l 1
 402 730 l 1
 570 0 l 1
 549 0 l 1
135 257 m 1
 489 257 l 1
 385 711 l 1
 383 711 l 1
 135 257 l 1
216 980 m 1
 239 980 l 1
 324 770 l 1
 302 770 l 1
 216 980 l 1
393 980 m 1
 415 980 l 1
 501 770 l 1
 478 770 l 1
 393 980 l 1
EndSplineSet
EndChar

StartChar: Adieresis
Encoding: 196 196 17
Width: 648
Flags: W
LayerCount: 2
Fore
SplineSet
549 0 m 1
 494 237 l 1
 124 237 l 1
 -6 0 l 1
 -28 0 l 1
 372 730 l 1
 402 730 l 1
 570 0 l 1
 549 0 l 1
135 257 m 1
 489 257 l 1
 385 711 l 1
 383 711 l 1
 135 257 l 1
252 905 m 1
 310 905 l 1
 301 845 l 1
 242 845 l 1
 252 905 l 1
487 905 m 1
 546 905 l 1
 536 845 l 1
 477 845 l 1
 487 905 l 1
EndSplineSet
EndChar

StartChar: uni1EA0
Encoding: 7840 7840 18
Width: 648
Flags: W
LayerCount: 2
Fore
SplineSet
549 0 m 1
 494 237 l 1
 124 237 l 1
 -6 0 l 1
 -28 0 l 1
 372 730 l 1
 402 730 l 1
 570 0 l 1
 549 0 l 1
135 257 m 1
 489 257 l 1
 385 711 l 1
 383 711 l 1
 135 257 l 1
239 -115 m 1
 298 -115 l 1
 288 -175 l 1
 229 -175 l 1
 239 -115 l 1
EndSplineSet
EndChar

StartChar: Agrave
Encoding: 192 192 19
Width: 648
Flags: W
LayerCount: 2
Fore
SplineSet
549 0 m 1
 494 237 l 1
 124 237 l 1
 -6 0 l 1
 -28 0 l 1
 372 730 l 1
 402 730 l 1
 570 0 l 1
 549 0 l 1
135 257 m 1
 489 257 l 1
 385 711 l 1
 383 711 l 1
 135 257 l 1
329 980 m 1
 352 980 l 1
 437 770 l 1
 415 770 l 1
 329 980 l 1
EndSplineSet
EndChar

StartChar: uni1EA2
Encoding: 7842 7842 20
Width: 648
Flags: W
LayerCount: 2
Fore
SplineSet
549 0 m 1
 494 237 l 1
 124 237 l 1
 -6 0 l 1
 -28 0 l 1
 372 730 l 1
 402 730 l 1
 570 0 l 1
 549 0 l 1
135 257 m 1
 489 257 l 1
 385 711 l 1
 383 711 l 1
 135 257 l 1
534 856 m 0
 540 874 544 890 546 903 c 0
 549 923 544 937 532 944 c 0
 518 951 492 955 452 955 c 0
 413 955 373 950 333 940 c 1
 331 959 l 1
 374 970 415 975 456 975 c 0
 501 975 532 970 548 959 c 0
 564 948 570 930 566 903 c 0
 564 890 560 876 554 859 c 0
 549 842 543 828 536 815 c 1
 514 815 l 1
 521 825 527 839 534 856 c 0
EndSplineSet
EndChar

StartChar: uni0202
Encoding: 514 514 21
Width: 648
Flags: W
LayerCount: 2
Fore
SplineSet
549 0 m 1
 494 237 l 1
 124 237 l 1
 -6 0 l 1
 -28 0 l 1
 372 730 l 1
 402 730 l 1
 570 0 l 1
 549 0 l 1
135 257 m 1
 489 257 l 1
 385 711 l 1
 383 711 l 1
 135 257 l 1
504 912 m 0
 530 890 542 861 542 825 c 1
 523 825 l 1
 522 855 510 879 488 898 c 0
 466 916 437 925 402 925 c 0
 367 925 335 916 308 898 c 0
 280 879 261 855 250 825 c 1
 231 825 l 1
 242 861 264 890 296 912 c 0
 328 934 364 945 405 945 c 0
 446 945 480 934 504 912 c 0
EndSplineSet
EndChar

StartChar: Amacron
Encoding: 256 256 22
Width: 648
Flags: W
LayerCount: 2
Fore
SplineSet
549 0 m 1
 494 237 l 1
 124 237 l 1
 -6 0 l 1
 -28 0 l 1
 372 730 l 1
 402 730 l 1
 570 0 l 1
 549 0 l 1
135 257 m 1
 489 257 l 1
 385 711 l 1
 383 711 l 1
 135 257 l 1
224 885 m 1
 552 885 l 1
 549 865 l 1
 221 865 l 1
 224 885 l 1
EndSplineSet
EndChar

StartChar: Aogonek
Encoding: 260 260 23
Width: 638
Flags: W
LayerCount: 2
Fore
SplineSet
624 -199 m 1
 593 -213 559 -220 522 -220 c 0
 473 -220 442 -211 426 -194 c 0
 412 -177 406 -157 410 -135 c 0
 414 -110 428 -85 452 -60 c 0
 475 -35 507 -13 547 8 c 1
 494 237 l 1
 124 237 l 1
 -6 0 l 1
 -28 0 l 1
 372 730 l 1
 402 730 l 1
 570 0 l 1
 528 -21 495 -44 471 -66 c 0
 447 -90 433 -112 429 -135 c 0
 425 -160 433 -177 452 -186 c 0
 471 -195 496 -200 525 -200 c 0
 559 -200 590 -194 619 -181 c 1
 624 -199 l 1
135 257 m 1
 489 257 l 1
 385 711 l 1
 383 711 l 1
 135 257 l 1
EndSplineSet
EndChar

StartChar: Aring
Encoding: 197 197 24
Width: 632
Flags: W
LayerCount: 2
Fore
SplineSet
494 237 m 1
 124 237 l 1
 -6 0 l 1
 -28 0 l 1
 368 721 l 1
 339 726 316 740 300 763 c 0
 283 786 278 814 283 845 c 0
 288 880 305 909 332 934 c 0
 360 958 391 970 425 970 c 0
 459 970 486 958 506 934 c 0
 526 909 533 880 528 845 c 0
 523 814 509 786 485 763 c 0
 461 740 434 726 403 721 c 1
 570 0 l 1
 549 0 l 1
 494 237 l 1
320 771 m 0
 338 750 360 740 388 740 c 0
 417 740 443 750 466 771 c 0
 489 792 503 816 508 845 c 0
 513 874 507 899 490 920 c 0
 473 940 451 950 422 950 c 0
 394 950 368 940 344 920 c 0
 321 899 307 874 302 845 c 0
 297 816 304 792 320 771 c 0
135 257 m 1
 489 257 l 1
 385 711 l 1
 383 711 l 1
 135 257 l 1
EndSplineSet
EndChar

StartChar: Aringacute
Encoding: 506 506 25
Width: 632
Flags: W
LayerCount: 2
Fore
SplineSet
494 237 m 1
 124 237 l 1
 -6 0 l 1
 -28 0 l 1
 368 721 l 1
 339 726 316 740 300 763 c 0
 283 786 278 814 283 845 c 0
 286 866 294 886 307 904 c 0
 320 922 335 937 353 949 c 1
 502 1155 l 1
 525 1155 l 1
 387 964 l 1
 400 968 412 970 425 970 c 0
 459 970 486 958 506 934 c 0
 526 909 533 880 528 845 c 0
 523 814 509 786 485 763 c 0
 461 740 434 726 403 721 c 1
 570 0 l 1
 549 0 l 1
 494 237 l 1
320 771 m 0
 338 750 360 740 388 740 c 0
 417 740 443 750 466 771 c 0
 489 792 503 816 508 845 c 0
 513 874 507 899 490 920 c 0
 473 940 451 950 422 950 c 0
 394 950 368 940 344 920 c 0
 321 899 307 874 302 845 c 0
 297 816 304 792 320 771 c 0
135 257 m 1
 489 257 l 1
 385 711 l 1
 383 711 l 1
 135 257 l 1
EndSplineSet
EndChar

StartChar: Atilde
Encoding: 195 195 26
Width: 648
Flags: W
LayerCount: 2
Fore
SplineSet
549 0 m 1
 494 237 l 1
 124 237 l 1
 -6 0 l 1
 -28 0 l 1
 372 730 l 1
 402 730 l 1
 570 0 l 1
 549 0 l 1
135 257 m 1
 489 257 l 1
 385 711 l 1
 383 711 l 1
 135 257 l 1
388 867 m 0
 351 899 323 915 303 915 c 0
 278 915 261 885 251 825 c 1
 232 825 l 1
 238 862 247 889 258 908 c 0
 270 926 286 935 306 935 c 0
 331 935 363 918 402 883 c 0
 439 851 468 835 488 835 c 0
 513 835 530 865 539 925 c 1
 559 925 l 1
 548 852 523 815 485 815 c 0
 461 815 429 832 388 867 c 0
EndSplineSet
EndChar

StartChar: AE
Encoding: 198 198 27
Width: 781
Flags: W
LayerCount: 2
Fore
SplineSet
784 710 m 1
 490 710 l 1
 441 400 l 1
 716 400 l 1
 713 380 l 1
 438 380 l 1
 381 20 l 1
 675 20 l 1
 672 0 l 1
 358 0 l 1
 396 237 l 1
 147 237 l 1
 -5 0 l 1
 -28 0 l 1
 443 730 l 1
 788 730 l 1
 784 710 l 1
160 257 m 1
 399 257 l 1
 471 710 l 1
 451 710 l 1
 160 257 l 1
EndSplineSet
EndChar

StartChar: AEacute
Encoding: 508 508 28
Width: 804
Flags: W
LayerCount: 2
Fore
SplineSet
784 710 m 1
 490 710 l 1
 441 400 l 1
 716 400 l 1
 713 380 l 1
 438 380 l 1
 381 20 l 1
 675 20 l 1
 672 0 l 1
 358 0 l 1
 396 237 l 1
 147 237 l 1
 -5 0 l 1
 -28 0 l 1
 443 730 l 1
 788 730 l 1
 784 710 l 1
160 257 m 1
 399 257 l 1
 471 710 l 1
 451 710 l 1
 160 257 l 1
483 770 m 1
 460 770 l 1
 612 980 l 1
 635 980 l 1
 483 770 l 1
EndSplineSet
EndChar

StartChar: B
Encoding: 66 66 29
Width: 591
Flags: W
LayerCount: 2
Fore
SplineSet
520 328 m 0
 544 296 552 254 544 200 c 0
 533 131 501 81 448 48 c 0
 395 16 318 0 218 0 c 2
 41 0 l 1
 157 730 l 1
 333 730 l 2
 503 730 579 672 561 555 c 0
 547 468 491 414 394 392 c 1
 393 390 l 1
 453 379 495 358 520 328 c 0
174 710 m 1
 124 400 l 1
 281 400 l 2
 361 400 422 413 464 438 c 0
 507 463 532 502 541 555 c 0
 550 608 537 647 502 672 c 0
 467 697 410 710 330 710 c 2
 174 710 l 1
436 64 m 0
 485 92 514 138 524 200 c 0
 534 262 519 308 480 336 c 0
 440 366 373 380 278 380 c 2
 121 380 l 1
 64 20 l 1
 221 20 l 2
 316 20 387 34 436 64 c 0
EndSplineSet
EndChar

StartChar: C
Encoding: 67 67 30
Width: 663
Flags: W
LayerCount: 2
Fore
SplineSet
168 36 m 0
 121 68 87 111 68 168 c 0
 48 225 44 290 56 365 c 0
 68 440 93 505 130 562 c 0
 167 619 215 662 272 694 c 0
 330 724 394 740 464 740 c 0
 547 740 616 718 673 675 c 1
 660 658 l 1
 607 699 540 720 461 720 c 0
 395 720 335 706 280 676 c 0
 226 648 181 606 146 552 c 0
 110 499 86 436 75 365 c 0
 64 294 67 231 86 178 c 0
 104 124 136 82 180 54 c 0
 226 24 281 10 348 10 c 0
 427 10 500 31 567 72 c 1
 575 55 l 1
 505 12 428 -10 345 -10 c 0
 275 -10 216 6 168 36 c 0
EndSplineSet
EndChar

StartChar: Cacute
Encoding: 262 262 31
Width: 684
Flags: W
LayerCount: 2
Fore
SplineSet
168 36 m 0
 121 68 87 111 68 168 c 0
 48 225 44 290 56 365 c 0
 68 440 93 505 130 562 c 0
 167 619 215 662 272 694 c 0
 330 724 394 740 464 740 c 0
 547 740 616 718 673 675 c 1
 660 658 l 1
 607 699 540 720 461 720 c 0
 395 720 335 706 280 676 c 0
 226 648 181 606 146 552 c 0
 110 499 86 436 75 365 c 0
 64 294 67 231 86 178 c 0
 104 124 136 82 180 54 c 0
 226 24 281 10 348 10 c 0
 427 10 500 31 567 72 c 1
 575 55 l 1
 505 12 428 -10 345 -10 c 0
 275 -10 216 6 168 36 c 0
423 770 m 1
 400 770 l 1
 552 980 l 1
 575 980 l 1
 423 770 l 1
EndSplineSet
EndChar

StartChar: Ccaron
Encoding: 268 268 32
Width: 684
Flags: W
LayerCount: 2
Fore
SplineSet
168 36 m 0
 121 68 87 111 68 168 c 0
 48 225 44 290 56 365 c 0
 68 440 93 505 130 562 c 0
 167 619 215 662 272 694 c 0
 330 724 394 740 464 740 c 0
 547 740 616 718 673 675 c 1
 660 658 l 1
 607 699 540 720 461 720 c 0
 395 720 335 706 280 676 c 0
 226 648 181 606 146 552 c 0
 110 499 86 436 75 365 c 0
 64 294 67 231 86 178 c 0
 104 124 136 82 180 54 c 0
 226 24 281 10 348 10 c 0
 427 10 500 31 567 72 c 1
 575 55 l 1
 505 12 428 -10 345 -10 c 0
 275 -10 216 6 168 36 c 0
302 980 m 1
 326 980 l 1
 438 785 l 1
 440 785 l 1
 614 980 l 1
 639 980 l 1
 452 770 l 1
 422 770 l 1
 302 980 l 1
EndSplineSet
EndChar

StartChar: Ccedilla
Encoding: 199 199 33
Width: 663
Flags: W
LayerCount: 2
Fore
SplineSet
575 55 m 1
 505 12 429 -10 347 -10 c 1
 399 -50 421 -92 414 -136 c 0
 411 -158 399 -178 378 -195 c 0
 358 -212 324 -221 275 -221 c 0
 238 -221 207 -214 180 -200 c 1
 190 -182 l 1
 215 -195 244 -201 279 -201 c 0
 308 -201 334 -196 356 -187 c 0
 378 -178 391 -161 395 -136 c 0
 398 -115 392 -93 378 -72 c 0
 362 -50 339 -29 308 -8 c 1
 246 -3 194 16 152 48 c 0
 110 80 81 123 64 178 c 0
 47 233 45 295 56 365 c 0
 68 440 93 505 130 562 c 0
 167 619 215 662 272 694 c 0
 330 724 394 740 464 740 c 0
 547 740 616 718 673 675 c 1
 660 658 l 1
 607 699 540 720 461 720 c 0
 395 720 335 706 280 676 c 0
 226 648 181 606 146 552 c 0
 110 499 86 436 75 365 c 0
 64 294 67 231 86 178 c 0
 104 124 136 82 180 54 c 0
 226 24 281 10 348 10 c 0
 427 10 500 31 567 72 c 1
 575 55 l 1
EndSplineSet
EndChar

StartChar: Ccircumflex
Encoding: 264 264 34
Width: 684
Flags: W
LayerCount: 2
Fore
SplineSet
168 36 m 0
 121 68 87 111 68 168 c 0
 48 225 44 290 56 365 c 0
 68 440 93 505 130 562 c 0
 167 619 215 662 272 694 c 0
 330 724 394 740 464 740 c 0
 547 740 616 718 673 675 c 1
 660 658 l 1
 607 699 540 720 461 720 c 0
 395 720 335 706 280 676 c 0
 226 648 181 606 146 552 c 0
 110 499 86 436 75 365 c 0
 64 294 67 231 86 178 c 0
 104 124 136 82 180 54 c 0
 226 24 281 10 348 10 c 0
 427 10 500 31 567 72 c 1
 575 55 l 1
 505 12 428 -10 345 -10 c 0
 275 -10 216 6 168 36 c 0
455 980 m 1
 485 980 l 1
 605 770 l 1
 581 770 l 1
 469 965 l 1
 467 965 l 1
 293 770 l 1
 268 770 l 1
 455 980 l 1
EndSplineSet
EndChar

StartChar: Cdotaccent
Encoding: 266 266 35
Width: 684
Flags: W
LayerCount: 2
Fore
SplineSet
168 36 m 0
 121 68 87 111 68 168 c 0
 48 225 44 290 56 365 c 0
 68 440 93 505 130 562 c 0
 167 619 215 662 272 694 c 0
 330 724 394 740 464 740 c 0
 547 740 616 718 673 675 c 1
 660 658 l 1
 607 699 540 720 461 720 c 0
 395 720 335 706 280 676 c 0
 226 648 181 606 146 552 c 0
 110 499 86 436 75 365 c 0
 64 294 67 231 86 178 c 0
 104 124 136 82 180 54 c 0
 226 24 281 10 348 10 c 0
 427 10 500 31 567 72 c 1
 575 55 l 1
 505 12 428 -10 345 -10 c 0
 275 -10 216 6 168 36 c 0
456 905 m 1
 515 905 l 1
 505 845 l 1
 446 845 l 1
 456 905 l 1
EndSplineSet
EndChar

StartChar: D
Encoding: 68 68 36
Width: 648
Flags: W
LayerCount: 2
Fore
SplineSet
314 730 m 2
 433 730 518 699 570 637 c 0
 621 575 638 484 619 365 c 0
 600 246 555 155 484 93 c 0
 413 31 317 0 198 0 c 2
 41 0 l 1
 157 730 l 1
 314 730 l 2
472 107 m 0
 539 165 581 251 599 365 c 0
 617 479 602 565 554 623 c 0
 505 681 424 710 311 710 c 2
 174 710 l 1
 64 20 l 1
 201 20 l 2
 315 20 405 49 472 107 c 0
EndSplineSet
EndChar

StartChar: uni01C4
Encoding: 452 452 37
Width: 1254
Flags: W
LayerCount: 2
Fore
SplineSet
314 730 m 2
 433 730 518 699 570 637 c 0
 621 575 638 484 619 365 c 0
 600 246 555 155 484 93 c 0
 413 31 317 0 198 0 c 2
 41 0 l 1
 157 730 l 1
 314 730 l 2
472 107 m 0
 539 165 581 251 599 365 c 0
 617 479 602 565 554 623 c 0
 505 681 424 710 311 710 c 2
 174 710 l 1
 64 20 l 1
 201 20 l 2
 315 20 405 49 472 107 c 0
649 20 m 1
 1203 708 l 1
 1204 710 l 1
 759 710 l 1
 762 730 l 1
 1232 730 l 1
 1229 710 l 1
 675 22 l 1
 675 20 l 1
 1120 20 l 1
 1117 0 l 1
 646 0 l 1
 649 20 l 1
860 980 m 1
 884 980 l 1
 996 785 l 1
 998 785 l 1
 1172 980 l 1
 1197 980 l 1
 1010 770 l 1
 980 770 l 1
 860 980 l 1
EndSplineSet
EndChar

StartChar: Eth
Encoding: 208 208 38
Width: 698
Flags: W
LayerCount: 2
Fore
SplineSet
620 637 m 0
 671 575 687 484 668 365 c 0
 649 246 604 155 533 93 c 0
 462 31 367 0 248 0 c 2
 91 0 l 1
 147 355 l 1
 39 355 l 1
 43 375 l 1
 150 375 l 1
 207 730 l 1
 363 730 l 2
 482 730 568 699 620 637 c 0
522 107 m 0
 588 165 631 251 649 365 c 0
 667 479 652 565 604 623 c 0
 555 681 474 710 360 710 c 2
 223 710 l 1
 170 375 l 1
 444 375 l 1
 441 355 l 1
 167 355 l 1
 114 20 l 1
 251 20 l 2
 364 20 454 49 522 107 c 0
EndSplineSet
EndChar

StartChar: Dcaron
Encoding: 270 270 39
Width: 672
Flags: W
LayerCount: 2
Fore
SplineSet
314 730 m 2
 433 730 518 699 570 637 c 0
 621 575 638 484 619 365 c 0
 600 246 555 155 484 93 c 0
 413 31 317 0 198 0 c 2
 41 0 l 1
 157 730 l 1
 314 730 l 2
472 107 m 0
 539 165 581 251 599 365 c 0
 617 479 602 565 554 623 c 0
 505 681 424 710 311 710 c 2
 174 710 l 1
 64 20 l 1
 201 20 l 2
 315 20 405 49 472 107 c 0
258 980 m 1
 282 980 l 1
 394 785 l 1
 396 785 l 1
 570 980 l 1
 595 980 l 1
 408 770 l 1
 378 770 l 1
 258 980 l 1
EndSplineSet
EndChar

StartChar: Dcroat
Encoding: 272 272 40
Width: 718
Flags: W
LayerCount: 2
Fore
SplineSet
620 637 m 0
 671 575 687 484 668 365 c 0
 649 246 604 155 533 93 c 0
 462 31 367 0 248 0 c 2
 91 0 l 1
 147 355 l 1
 39 355 l 1
 43 375 l 1
 150 375 l 1
 207 730 l 1
 363 730 l 2
 482 730 568 699 620 637 c 0
522 107 m 0
 588 165 631 251 649 365 c 0
 667 479 652 565 604 623 c 0
 555 681 474 710 360 710 c 2
 223 710 l 1
 170 375 l 1
 444 375 l 1
 441 355 l 1
 167 355 l 1
 114 20 l 1
 251 20 l 2
 364 20 454 49 522 107 c 0
EndSplineSet
EndChar

StartChar: uni01C5
Encoding: 453 453 41
Width: 1134
Flags: W
LayerCount: 2
Fore
SplineSet
314 730 m 2
 433 730 518 699 570 637 c 0
 621 575 638 484 619 365 c 0
 600 246 555 155 484 93 c 0
 413 31 317 0 198 0 c 2
 41 0 l 1
 157 730 l 1
 314 730 l 2
472 107 m 0
 539 165 581 251 599 365 c 0
 617 479 602 565 554 623 c 0
 505 681 424 710 311 710 c 2
 174 710 l 1
 64 20 l 1
 201 20 l 2
 315 20 405 49 472 107 c 0
667 20 m 1
 1069 498 l 1
 1069 500 l 1
 743 500 l 1
 746 520 l 1
 1097 520 l 1
 1094 500 l 1
 692 22 l 1
 691 20 l 1
 1018 20 l 1
 1015 0 l 1
 663 0 l 1
 667 20 l 1
787 770 m 1
 811 770 l 1
 923 575 l 1
 925 575 l 1
 1099 770 l 1
 1124 770 l 1
 937 560 l 1
 907 560 l 1
 787 770 l 1
EndSplineSet
EndChar

StartChar: E
Encoding: 69 69 42
Width: 562
Flags: W
LayerCount: 2
Fore
SplineSet
157 730 m 1
 569 730 l 1
 566 710 l 1
 174 710 l 1
 124 400 l 1
 497 400 l 1
 494 380 l 1
 121 380 l 1
 64 20 l 1
 456 20 l 1
 453 0 l 1
 41 0 l 1
 157 730 l 1
EndSplineSet
EndChar

StartChar: Eacute
Encoding: 201 201 43
Width: 586
Flags: W
LayerCount: 2
Fore
SplineSet
157 730 m 1
 569 730 l 1
 566 710 l 1
 174 710 l 1
 124 400 l 1
 497 400 l 1
 494 380 l 1
 121 380 l 1
 64 20 l 1
 456 20 l 1
 453 0 l 1
 41 0 l 1
 157 730 l 1
353 770 m 1
 330 770 l 1
 482 980 l 1
 505 980 l 1
 353 770 l 1
EndSplineSet
EndChar

StartChar: Ebreve
Encoding: 276 276 44
Width: 586
Flags: W
LayerCount: 2
Fore
SplineSet
157 730 m 1
 569 730 l 1
 566 710 l 1
 174 710 l 1
 124 400 l 1
 497 400 l 1
 494 380 l 1
 121 380 l 1
 64 20 l 1
 456 20 l 1
 453 0 l 1
 41 0 l 1
 157 730 l 1
270 838 m 0
 245 860 233 889 232 925 c 1
 252 925 l 1
 253 895 265 871 286 852 c 0
 308 834 337 825 372 825 c 0
 407 825 439 834 466 852 c 0
 494 871 513 895 524 925 c 1
 544 925 l 1
 533 889 511 860 479 838 c 0
 447 816 410 805 369 805 c 0
 328 805 295 816 270 838 c 0
EndSplineSet
EndChar

StartChar: Ecaron
Encoding: 282 282 45
Width: 586
Flags: W
LayerCount: 2
Fore
SplineSet
157 730 m 1
 569 730 l 1
 566 710 l 1
 174 710 l 1
 124 400 l 1
 497 400 l 1
 494 380 l 1
 121 380 l 1
 64 20 l 1
 456 20 l 1
 453 0 l 1
 41 0 l 1
 157 730 l 1
232 980 m 1
 256 980 l 1
 368 785 l 1
 370 785 l 1
 544 980 l 1
 569 980 l 1
 382 770 l 1
 352 770 l 1
 232 980 l 1
EndSplineSet
EndChar

StartChar: Ecircumflex
Encoding: 202 202 46
Width: 586
Flags: W
LayerCount: 2
Fore
SplineSet
157 730 m 1
 569 730 l 1
 566 710 l 1
 174 710 l 1
 124 400 l 1
 497 400 l 1
 494 380 l 1
 121 380 l 1
 64 20 l 1
 456 20 l 1
 453 0 l 1
 41 0 l 1
 157 730 l 1
385 980 m 1
 415 980 l 1
 535 770 l 1
 511 770 l 1
 399 965 l 1
 397 965 l 1
 223 770 l 1
 198 770 l 1
 385 980 l 1
EndSplineSet
EndChar

StartChar: uni1EBE
Encoding: 7870 7870 47
Width: 586
Flags: W
LayerCount: 2
Fore
SplineSet
157 730 m 1
 569 730 l 1
 566 710 l 1
 174 710 l 1
 124 400 l 1
 497 400 l 1
 494 380 l 1
 121 380 l 1
 64 20 l 1
 456 20 l 1
 453 0 l 1
 41 0 l 1
 157 730 l 1
385 980 m 1
 415 980 l 1
 535 770 l 1
 511 770 l 1
 399 965 l 1
 397 965 l 1
 223 770 l 1
 198 770 l 1
 385 980 l 1
526 950 m 1
 503 950 l 1
 655 1160 l 1
 678 1160 l 1
 526 950 l 1
EndSplineSet
EndChar

StartChar: uni1EC6
Encoding: 7878 7878 48
Width: 586
Flags: W
LayerCount: 2
Fore
SplineSet
157 730 m 1
 569 730 l 1
 566 710 l 1
 174 710 l 1
 124 400 l 1
 497 400 l 1
 494 380 l 1
 121 380 l 1
 64 20 l 1
 456 20 l 1
 453 0 l 1
 41 0 l 1
 157 730 l 1
225 -115 m 1
 284 -115 l 1
 274 -175 l 1
 215 -175 l 1
 225 -115 l 1
385 980 m 1
 415 980 l 1
 535 770 l 1
 511 770 l 1
 399 965 l 1
 397 965 l 1
 223 770 l 1
 198 770 l 1
 385 980 l 1
EndSplineSet
EndChar

StartChar: uni1EC0
Encoding: 7872 7872 49
Width: 586
Flags: W
LayerCount: 2
Fore
SplineSet
157 730 m 1
 569 730 l 1
 566 710 l 1
 174 710 l 1
 124 400 l 1
 497 400 l 1
 494 380 l 1
 121 380 l 1
 64 20 l 1
 456 20 l 1
 453 0 l 1
 41 0 l 1
 157 730 l 1
385 980 m 1
 415 980 l 1
 535 770 l 1
 511 770 l 1
 399 965 l 1
 397 965 l 1
 223 770 l 1
 198 770 l 1
 385 980 l 1
200 1160 m 1
 223 1160 l 1
 308 950 l 1
 286 950 l 1
 200 1160 l 1
EndSplineSet
EndChar

StartChar: uni1EC2
Encoding: 7874 7874 50
Width: 586
Flags: W
LayerCount: 2
Fore
SplineSet
157 730 m 1
 569 730 l 1
 566 710 l 1
 174 710 l 1
 124 400 l 1
 497 400 l 1
 494 380 l 1
 121 380 l 1
 64 20 l 1
 456 20 l 1
 453 0 l 1
 41 0 l 1
 157 730 l 1
385 980 m 1
 415 980 l 1
 535 770 l 1
 511 770 l 1
 399 965 l 1
 397 965 l 1
 223 770 l 1
 198 770 l 1
 385 980 l 1
574 986 m 0
 581 1004 585 1020 587 1033 c 0
 590 1053 586 1067 572 1074 c 0
 560 1081 533 1085 493 1085 c 0
 454 1085 414 1080 374 1070 c 1
 372 1089 l 1
 415 1100 456 1105 497 1105 c 0
 542 1105 573 1100 589 1089 c 0
 605 1078 611 1060 607 1033 c 0
 605 1020 601 1006 596 989 c 0
 590 972 584 958 577 945 c 1
 555 945 l 1
 562 955 568 969 574 986 c 0
EndSplineSet
EndChar

StartChar: uni1EC4
Encoding: 7876 7876 51
Width: 586
Flags: W
LayerCount: 2
Fore
SplineSet
157 730 m 1
 569 730 l 1
 566 710 l 1
 174 710 l 1
 124 400 l 1
 497 400 l 1
 494 380 l 1
 121 380 l 1
 64 20 l 1
 456 20 l 1
 453 0 l 1
 41 0 l 1
 157 730 l 1
385 980 m 1
 415 980 l 1
 535 770 l 1
 511 770 l 1
 399 965 l 1
 397 965 l 1
 223 770 l 1
 198 770 l 1
 385 980 l 1
401 1037 m 0
 364 1069 336 1085 316 1085 c 0
 291 1085 274 1055 264 995 c 1
 245 995 l 1
 251 1032 260 1059 272 1078 c 0
 283 1096 299 1105 319 1105 c 0
 344 1105 376 1088 415 1053 c 0
 452 1021 481 1005 501 1005 c 0
 526 1005 543 1035 552 1095 c 1
 572 1095 l 1
 561 1022 536 985 498 985 c 0
 474 985 442 1002 401 1037 c 0
EndSplineSet
EndChar

StartChar: uni0204
Encoding: 516 516 52
Width: 586
Flags: W
LayerCount: 2
Fore
SplineSet
157 730 m 1
 569 730 l 1
 566 710 l 1
 174 710 l 1
 124 400 l 1
 497 400 l 1
 494 380 l 1
 121 380 l 1
 64 20 l 1
 456 20 l 1
 453 0 l 1
 41 0 l 1
 157 730 l 1
202 980 m 1
 225 980 l 1
 310 770 l 1
 288 770 l 1
 202 980 l 1
379 980 m 1
 401 980 l 1
 487 770 l 1
 464 770 l 1
 379 980 l 1
EndSplineSet
EndChar

StartChar: Edieresis
Encoding: 203 203 53
Width: 586
Flags: W
LayerCount: 2
Fore
SplineSet
157 730 m 1
 569 730 l 1
 566 710 l 1
 174 710 l 1
 124 400 l 1
 497 400 l 1
 494 380 l 1
 121 380 l 1
 64 20 l 1
 456 20 l 1
 453 0 l 1
 41 0 l 1
 157 730 l 1
238 905 m 1
 296 905 l 1
 287 845 l 1
 228 845 l 1
 238 905 l 1
473 905 m 1
 532 905 l 1
 522 845 l 1
 463 845 l 1
 473 905 l 1
EndSplineSet
EndChar

StartChar: Edotaccent
Encoding: 278 278 54
Width: 586
Flags: W
LayerCount: 2
Fore
SplineSet
157 730 m 1
 569 730 l 1
 566 710 l 1
 174 710 l 1
 124 400 l 1
 497 400 l 1
 494 380 l 1
 121 380 l 1
 64 20 l 1
 456 20 l 1
 453 0 l 1
 41 0 l 1
 157 730 l 1
386 905 m 1
 445 905 l 1
 435 845 l 1
 376 845 l 1
 386 905 l 1
EndSplineSet
EndChar

StartChar: uni1EB8
Encoding: 7864 7864 55
Width: 586
Flags: W
LayerCount: 2
Fore
SplineSet
157 730 m 1
 569 730 l 1
 566 710 l 1
 174 710 l 1
 124 400 l 1
 497 400 l 1
 494 380 l 1
 121 380 l 1
 64 20 l 1
 456 20 l 1
 453 0 l 1
 41 0 l 1
 157 730 l 1
225 -115 m 1
 284 -115 l 1
 274 -175 l 1
 215 -175 l 1
 225 -115 l 1
EndSplineSet
EndChar

StartChar: Egrave
Encoding: 200 200 56
Width: 586
Flags: W
LayerCount: 2
Fore
SplineSet
157 730 m 1
 569 730 l 1
 566 710 l 1
 174 710 l 1
 124 400 l 1
 497 400 l 1
 494 380 l 1
 121 380 l 1
 64 20 l 1
 456 20 l 1
 453 0 l 1
 41 0 l 1
 157 730 l 1
315 980 m 1
 338 980 l 1
 423 770 l 1
 401 770 l 1
 315 980 l 1
EndSplineSet
EndChar

StartChar: uni1EBA
Encoding: 7866 7866 57
Width: 586
Flags: W
LayerCount: 2
Fore
SplineSet
157 730 m 1
 569 730 l 1
 566 710 l 1
 174 710 l 1
 124 400 l 1
 497 400 l 1
 494 380 l 1
 121 380 l 1
 64 20 l 1
 456 20 l 1
 453 0 l 1
 41 0 l 1
 157 730 l 1
520 856 m 0
 526 874 530 890 532 903 c 0
 535 923 530 937 518 944 c 0
 504 951 478 955 438 955 c 0
 399 955 359 950 319 940 c 1
 317 959 l 1
 360 970 401 975 442 975 c 0
 487 975 518 970 534 959 c 0
 550 948 556 930 552 903 c 0
 550 890 546 876 540 859 c 0
 535 842 529 828 522 815 c 1
 500 815 l 1
 507 825 513 839 520 856 c 0
EndSplineSet
EndChar

StartChar: uni0206
Encoding: 518 518 58
Width: 586
Flags: W
LayerCount: 2
Fore
SplineSet
157 730 m 1
 569 730 l 1
 566 710 l 1
 174 710 l 1
 124 400 l 1
 497 400 l 1
 494 380 l 1
 121 380 l 1
 64 20 l 1
 456 20 l 1
 453 0 l 1
 41 0 l 1
 157 730 l 1
490 912 m 0
 516 890 528 861 528 825 c 1
 509 825 l 1
 508 855 496 879 474 898 c 0
 452 916 423 925 388 925 c 0
 353 925 321 916 294 898 c 0
 266 879 247 855 236 825 c 1
 217 825 l 1
 228 861 250 890 282 912 c 0
 314 934 350 945 391 945 c 0
 432 945 466 934 490 912 c 0
EndSplineSet
EndChar

StartChar: Emacron
Encoding: 274 274 59
Width: 586
Flags: W
LayerCount: 2
Fore
SplineSet
157 730 m 1
 569 730 l 1
 566 710 l 1
 174 710 l 1
 124 400 l 1
 497 400 l 1
 494 380 l 1
 121 380 l 1
 64 20 l 1
 456 20 l 1
 453 0 l 1
 41 0 l 1
 157 730 l 1
210 885 m 1
 538 885 l 1
 535 865 l 1
 207 865 l 1
 210 885 l 1
EndSplineSet
EndChar

StartChar: Eogonek
Encoding: 280 280 60
Width: 568
Flags: W
LayerCount: 2
Fore
SplineSet
507 -199 m 1
 476 -213 441 -220 404 -220 c 0
 355 -220 324 -211 309 -194 c 0
 294 -177 289 -157 293 -135 c 0
 297 -112 309 -88 330 -65 c 0
 351 -42 379 -20 415 0 c 1
 41 0 l 1
 157 730 l 1
 569 730 l 1
 566 710 l 1
 174 710 l 1
 124 400 l 1
 497 400 l 1
 494 380 l 1
 121 380 l 1
 64 20 l 1
 456 20 l 1
 453 0 l 1
 411 -21 378 -44 354 -66 c 0
 329 -90 315 -112 312 -135 c 0
 308 -160 316 -177 335 -186 c 0
 354 -195 379 -200 408 -200 c 0
 442 -200 473 -194 502 -181 c 1
 507 -199 l 1
EndSplineSet
EndChar

StartChar: uni1EBC
Encoding: 7868 7868 61
Width: 586
Flags: W
LayerCount: 2
Fore
SplineSet
157 730 m 1
 569 730 l 1
 566 710 l 1
 174 710 l 1
 124 400 l 1
 497 400 l 1
 494 380 l 1
 121 380 l 1
 64 20 l 1
 456 20 l 1
 453 0 l 1
 41 0 l 1
 157 730 l 1
374 867 m 0
 337 899 309 915 289 915 c 0
 264 915 247 885 237 825 c 1
 218 825 l 1
 224 862 233 889 244 908 c 0
 256 926 272 935 292 935 c 0
 317 935 349 918 388 883 c 0
 425 851 454 835 474 835 c 0
 499 835 516 865 525 925 c 1
 545 925 l 1
 534 852 509 815 471 815 c 0
 447 815 415 832 374 867 c 0
EndSplineSet
EndChar

StartChar: F
Encoding: 70 70 62
Width: 545
Flags: W
LayerCount: 2
Fore
SplineSet
157 730 m 1
 569 730 l 1
 566 710 l 1
 174 710 l 1
 124 400 l 1
 497 400 l 1
 494 380 l 1
 121 380 l 1
 61 0 l 1
 41 0 l 1
 157 730 l 1
EndSplineSet
EndChar

StartChar: G
Encoding: 71 71 63
Width: 753
Flags: W
LayerCount: 2
Fore
SplineSet
698 400 m 1
 642 44 l 1
 605 27 562 14 514 4 c 0
 464 -5 418 -10 373 -10 c 0
 295 -10 230 5 178 35 c 0
 127 65 90 108 69 164 c 0
 48 221 43 288 56 365 c 0
 68 442 94 509 132 566 c 0
 172 622 222 665 283 695 c 0
 344 725 414 740 491 740 c 0
 580 740 655 720 716 680 c 1
 704 663 l 1
 646 701 574 720 488 720 c 0
 414 720 348 706 290 678 c 0
 232 650 185 609 148 556 c 0
 111 503 87 439 75 365 c 0
 63 291 67 227 88 174 c 0
 108 121 142 80 192 52 c 0
 240 24 302 10 376 10 c 0
 417 10 460 14 505 22 c 0
 550 31 589 42 624 57 c 1
 675 380 l 1
 361 380 l 1
 364 400 l 1
 698 400 l 1
EndSplineSet
EndChar

StartChar: Gbreve
Encoding: 286 286 64
Width: 778
Flags: W
LayerCount: 2
Fore
SplineSet
698 400 m 1
 642 44 l 1
 605 27 562 14 514 4 c 0
 464 -5 418 -10 373 -10 c 0
 295 -10 230 5 178 35 c 0
 127 65 90 108 69 164 c 0
 48 221 43 288 56 365 c 0
 68 442 94 509 132 566 c 0
 172 622 222 665 283 695 c 0
 344 725 414 740 491 740 c 0
 580 740 655 720 716 680 c 1
 704 663 l 1
 646 701 574 720 488 720 c 0
 414 720 348 706 290 678 c 0
 232 650 185 609 148 556 c 0
 111 503 87 439 75 365 c 0
 63 291 67 227 88 174 c 0
 108 121 142 80 192 52 c 0
 240 24 302 10 376 10 c 0
 417 10 460 14 505 22 c 0
 550 31 589 42 624 57 c 1
 675 380 l 1
 361 380 l 1
 364 400 l 1
 698 400 l 1
370 838 m 0
 345 860 333 889 332 925 c 1
 352 925 l 1
 353 895 365 871 386 852 c 0
 408 834 437 825 472 825 c 0
 507 825 539 834 566 852 c 0
 594 871 613 895 624 925 c 1
 644 925 l 1
 633 889 611 860 579 838 c 0
 547 816 510 805 469 805 c 0
 428 805 395 816 370 838 c 0
EndSplineSet
EndChar

StartChar: Gcaron
Encoding: 486 486 65
Width: 778
Flags: W
LayerCount: 2
Fore
SplineSet
698 400 m 1
 642 44 l 1
 605 27 562 14 514 4 c 0
 464 -5 418 -10 373 -10 c 0
 295 -10 230 5 178 35 c 0
 127 65 90 108 69 164 c 0
 48 221 43 288 56 365 c 0
 68 442 94 509 132 566 c 0
 172 622 222 665 283 695 c 0
 344 725 414 740 491 740 c 0
 580 740 655 720 716 680 c 1
 704 663 l 1
 646 701 574 720 488 720 c 0
 414 720 348 706 290 678 c 0
 232 650 185 609 148 556 c 0
 111 503 87 439 75 365 c 0
 63 291 67 227 88 174 c 0
 108 121 142 80 192 52 c 0
 240 24 302 10 376 10 c 0
 417 10 460 14 505 22 c 0
 550 31 589 42 624 57 c 1
 675 380 l 1
 361 380 l 1
 364 400 l 1
 698 400 l 1
332 980 m 1
 356 980 l 1
 468 785 l 1
 470 785 l 1
 644 980 l 1
 669 980 l 1
 482 770 l 1
 452 770 l 1
 332 980 l 1
EndSplineSet
EndChar

StartChar: Gcircumflex
Encoding: 284 284 66
Width: 778
Flags: W
LayerCount: 2
Fore
SplineSet
698 400 m 1
 642 44 l 1
 605 27 562 14 514 4 c 0
 464 -5 418 -10 373 -10 c 0
 295 -10 230 5 178 35 c 0
 127 65 90 108 69 164 c 0
 48 221 43 288 56 365 c 0
 68 442 94 509 132 566 c 0
 172 622 222 665 283 695 c 0
 344 725 414 740 491 740 c 0
 580 740 655 720 716 680 c 1
 704 663 l 1
 646 701 574 720 488 720 c 0
 414 720 348 706 290 678 c 0
 232 650 185 609 148 556 c 0
 111 503 87 439 75 365 c 0
 63 291 67 227 88 174 c 0
 108 121 142 80 192 52 c 0
 240 24 302 10 376 10 c 0
 417 10 460 14 505 22 c 0
 550 31 589 42 624 57 c 1
 675 380 l 1
 361 380 l 1
 364 400 l 1
 698 400 l 1
485 980 m 1
 515 980 l 1
 635 770 l 1
 611 770 l 1
 499 965 l 1
 497 965 l 1
 323 770 l 1
 298 770 l 1
 485 980 l 1
EndSplineSet
EndChar

StartChar: uni0122
Encoding: 290 290 67
Width: 778
Flags: W
LayerCount: 2
Fore
SplineSet
698 400 m 1
 642 44 l 1
 605 27 562 14 514 4 c 0
 464 -5 418 -10 373 -10 c 0
 295 -10 230 5 178 35 c 0
 127 65 90 108 69 164 c 0
 48 221 43 288 56 365 c 0
 68 442 94 509 132 566 c 0
 172 622 222 665 283 695 c 0
 344 725 414 740 491 740 c 0
 580 740 655 720 716 680 c 1
 704 663 l 1
 646 701 574 720 488 720 c 0
 414 720 348 706 290 678 c 0
 232 650 185 609 148 556 c 0
 111 503 87 439 75 365 c 0
 63 291 67 227 88 174 c 0
 108 121 142 80 192 52 c 0
 240 24 302 10 376 10 c 0
 417 10 460 14 505 22 c 0
 550 31 589 42 624 57 c 1
 675 380 l 1
 361 380 l 1
 364 400 l 1
 698 400 l 1
222 -250 m 1
 199 -250 l 1
 351 -40 l 1
 373 -40 l 1
 222 -250 l 1
EndSplineSet
EndChar

StartChar: Gdotaccent
Encoding: 288 288 68
Width: 778
Flags: W
LayerCount: 2
Fore
SplineSet
698 400 m 1
 642 44 l 1
 605 27 562 14 514 4 c 0
 464 -5 418 -10 373 -10 c 0
 295 -10 230 5 178 35 c 0
 127 65 90 108 69 164 c 0
 48 221 43 288 56 365 c 0
 68 442 94 509 132 566 c 0
 172 622 222 665 283 695 c 0
 344 725 414 740 491 740 c 0
 580 740 655 720 716 680 c 1
 704 663 l 1
 646 701 574 720 488 720 c 0
 414 720 348 706 290 678 c 0
 232 650 185 609 148 556 c 0
 111 503 87 439 75 365 c 0
 63 291 67 227 88 174 c 0
 108 121 142 80 192 52 c 0
 240 24 302 10 376 10 c 0
 417 10 460 14 505 22 c 0
 550 31 589 42 624 57 c 1
 675 380 l 1
 361 380 l 1
 364 400 l 1
 698 400 l 1
486 905 m 1
 545 905 l 1
 535 845 l 1
 476 845 l 1
 486 905 l 1
EndSplineSet
EndChar

StartChar: H
Encoding: 72 72 69
Width: 672
Flags: W
LayerCount: 2
Fore
SplineSet
637 730 m 1
 657 730 l 1
 541 0 l 1
 522 0 l 1
 582 380 l 1
 121 380 l 1
 61 0 l 1
 41 0 l 1
 157 730 l 1
 177 730 l 1
 124 400 l 1
 585 400 l 1
 637 730 l 1
EndSplineSet
EndChar

StartChar: Hbar
Encoding: 294 294 70
Width: 740
Flags: W
LayerCount: 2
Fore
SplineSet
764 606 m 1
 761 586 l 1
 668 586 l 1
 575 0 l 1
 556 0 l 1
 616 380 l 1
 155 380 l 1
 95 0 l 1
 75 0 l 1
 168 586 l 1
 75 586 l 1
 78 606 l 1
 171 606 l 1
 191 730 l 1
 191 730 211 730 211 730 c 1
 211 730 191 606 191 606 c 1
 652 606 l 1
 671 730 l 1
 671 730 691 730 691 730 c 1
 691 730 671 606 671 606 c 1
 764 606 l 1
619 400 m 1
 648 586 l 1
 188 586 l 1
 158 400 l 1
 619 400 l 1
EndSplineSet
EndChar

StartChar: Hcircumflex
Encoding: 292 292 71
Width: 700
Flags: W
LayerCount: 2
Fore
SplineSet
637 730 m 1
 657 730 l 1
 541 0 l 1
 522 0 l 1
 582 380 l 1
 121 380 l 1
 61 0 l 1
 41 0 l 1
 157 730 l 1
 177 730 l 1
 124 400 l 1
 585 400 l 1
 637 730 l 1
425 980 m 1
 455 980 l 1
 575 770 l 1
 551 770 l 1
 439 965 l 1
 437 965 l 1
 263 770 l 1
 238 770 l 1
 425 980 l 1
EndSplineSet
EndChar

StartChar: I
Encoding: 73 73 72
Width: 210
Flags: W
LayerCount: 2
Fore
SplineSet
166 730 m 1
 186 730 l 1
 70 0 l 1
 51 0 l 1
 166 730 l 1
EndSplineSet
EndChar

StartChar: Iacute
Encoding: 205 205 73
Width: 230
Flags: W
LayerCount: 2
Fore
SplineSet
166 730 m 1
 186 730 l 1
 70 0 l 1
 51 0 l 1
 166 730 l 1
158 770 m 1
 135 770 l 1
 287 980 l 1
 310 980 l 1
 158 770 l 1
EndSplineSet
EndChar

StartChar: Ibreve
Encoding: 300 300 74
Width: 230
Flags: W
LayerCount: 2
Fore
SplineSet
166 730 m 1
 186 730 l 1
 70 0 l 1
 51 0 l 1
 166 730 l 1
75 838 m 0
 50 860 38 889 37 925 c 1
 57 925 l 1
 58 895 70 871 92 852 c 0
 113 834 142 825 177 825 c 0
 212 825 244 834 272 852 c 0
 299 871 318 895 329 925 c 1
 349 925 l 1
 338 889 316 860 284 838 c 0
 252 816 215 805 174 805 c 0
 133 805 100 816 75 838 c 0
EndSplineSet
EndChar

StartChar: Icircumflex
Encoding: 206 206 75
Width: 230
Flags: W
LayerCount: 2
Fore
SplineSet
166 730 m 1
 186 730 l 1
 70 0 l 1
 51 0 l 1
 166 730 l 1
190 980 m 1
 220 980 l 1
 340 770 l 1
 316 770 l 1
 204 965 l 1
 202 965 l 1
 28 770 l 1
 3 770 l 1
 190 980 l 1
EndSplineSet
EndChar

StartChar: uni0208
Encoding: 520 520 76
Width: 230
Flags: W
LayerCount: 2
Fore
SplineSet
166 730 m 1
 186 730 l 1
 70 0 l 1
 51 0 l 1
 166 730 l 1
7 980 m 1
 30 980 l 1
 115 770 l 1
 93 770 l 1
 7 980 l 1
184 980 m 1
 206 980 l 1
 292 770 l 1
 269 770 l 1
 184 980 l 1
EndSplineSet
EndChar

StartChar: Idieresis
Encoding: 207 207 77
Width: 230
Flags: W
LayerCount: 2
Fore
SplineSet
166 730 m 1
 186 730 l 1
 70 0 l 1
 51 0 l 1
 166 730 l 1
43 905 m 1
 101 905 l 1
 92 845 l 1
 33 845 l 1
 43 905 l 1
278 905 m 1
 337 905 l 1
 327 845 l 1
 268 845 l 1
 278 905 l 1
EndSplineSet
EndChar

StartChar: Idotaccent
Encoding: 304 304 78
Width: 230
Flags: W
LayerCount: 2
Fore
SplineSet
166 730 m 1
 186 730 l 1
 70 0 l 1
 51 0 l 1
 166 730 l 1
191 905 m 1
 250 905 l 1
 240 845 l 1
 181 845 l 1
 191 905 l 1
EndSplineSet
EndChar

StartChar: uni1ECA
Encoding: 7882 7882 79
Width: 230
Flags: W
LayerCount: 2
Fore
SplineSet
166 730 m 1
 186 730 l 1
 70 0 l 1
 51 0 l 1
 166 730 l 1
30 -115 m 1
 89 -115 l 1
 79 -175 l 1
 20 -175 l 1
 30 -115 l 1
EndSplineSet
EndChar

StartChar: Igrave
Encoding: 204 204 80
Width: 230
Flags: W
LayerCount: 2
Fore
SplineSet
166 730 m 1
 186 730 l 1
 70 0 l 1
 51 0 l 1
 166 730 l 1
120 980 m 1
 143 980 l 1
 228 770 l 1
 206 770 l 1
 120 980 l 1
EndSplineSet
EndChar

StartChar: uni1EC8
Encoding: 7880 7880 81
Width: 230
Flags: W
LayerCount: 2
Fore
SplineSet
166 730 m 1
 186 730 l 1
 70 0 l 1
 51 0 l 1
 166 730 l 1
324 856 m 0
 331 874 335 890 337 903 c 0
 340 923 336 937 322 944 c 0
 310 951 283 955 243 955 c 0
 204 955 164 950 124 940 c 1
 122 959 l 1
 165 970 206 975 247 975 c 0
 292 975 323 970 339 959 c 0
 355 948 361 930 357 903 c 0
 355 890 351 876 346 859 c 0
 340 842 334 828 327 815 c 1
 305 815 l 1
 312 825 318 839 324 856 c 0
EndSplineSet
EndChar

StartChar: uni020A
Encoding: 522 522 82
Width: 230
Flags: W
LayerCount: 2
Fore
SplineSet
166 730 m 1
 186 730 l 1
 70 0 l 1
 51 0 l 1
 166 730 l 1
296 912 m 0
 320 890 333 861 333 825 c 1
 314 825 l 1
 313 855 301 879 279 898 c 0
 257 916 228 925 193 925 c 0
 158 925 126 916 98 898 c 0
 71 879 52 855 41 825 c 1
 22 825 l 1
 33 861 55 890 87 912 c 0
 119 934 155 945 196 945 c 0
 237 945 270 934 296 912 c 0
EndSplineSet
EndChar

StartChar: Imacron
Encoding: 298 298 83
Width: 230
Flags: W
LayerCount: 2
Fore
SplineSet
166 730 m 1
 186 730 l 1
 70 0 l 1
 51 0 l 1
 166 730 l 1
15 885 m 1
 343 885 l 1
 340 865 l 1
 12 865 l 1
 15 885 l 1
EndSplineSet
EndChar

StartChar: Iogonek
Encoding: 302 302 84
Width: 225
Flags: W
LayerCount: 2
Fore
SplineSet
132 -199 m 1
 101 -213 67 -220 30 -220 c 0
 -19 -220 -50 -211 -65 -194 c 0
 -80 -177 -85 -157 -82 -135 c 0
 -78 -109 -64 -84 -38 -58 c 0
 -14 -34 20 -10 61 11 c 1
 175 730 l 1
 194 730 l 1
 79 0 l 1
 37 -21 4 -44 -20 -66 c 0
 -45 -90 -59 -112 -62 -135 c 0
 -66 -160 -58 -177 -40 -186 c 0
 -20 -195 4 -200 33 -200 c 0
 67 -200 98 -194 127 -181 c 1
 132 -199 l 1
EndSplineSet
EndChar

StartChar: Itilde
Encoding: 296 296 85
Width: 230
Flags: W
LayerCount: 2
Fore
SplineSet
166 730 m 1
 186 730 l 1
 70 0 l 1
 51 0 l 1
 166 730 l 1
179 867 m 0
 142 899 114 915 94 915 c 0
 69 915 52 885 42 825 c 1
 23 825 l 1
 29 862 38 889 50 908 c 0
 61 926 77 935 97 935 c 0
 122 935 154 918 193 883 c 0
 230 851 259 835 279 835 c 0
 304 835 321 865 330 925 c 1
 350 925 l 1
 339 852 314 815 276 815 c 0
 252 815 220 832 179 867 c 0
EndSplineSet
EndChar

StartChar: J
Encoding: 74 74 86
Width: 531
Flags: W
LayerCount: 2
Fore
SplineSet
62 6 m 0
 27 17 -1 31 -24 50 c 1
 -10 66 l 1
 12 49 39 35 72 25 c 0
 104 15 138 10 174 10 c 0
 248 10 306 32 348 76 c 0
 391 120 419 188 433 280 c 2
 505 730 l 1
 524 730 l 1
 453 280 l 2
 438 183 407 110 360 62 c 0
 314 14 251 -10 171 -10 c 0
 132 -10 96 -5 62 6 c 0
EndSplineSet
EndChar

StartChar: Jcircumflex
Encoding: 308 308 87
Width: 549
Flags: W
LayerCount: 2
Fore
SplineSet
62 6 m 0
 27 17 -1 31 -24 50 c 1
 -10 66 l 1
 12 49 39 35 72 25 c 0
 104 15 138 10 174 10 c 0
 248 10 306 32 348 76 c 0
 391 120 419 188 433 280 c 2
 505 730 l 1
 524 730 l 1
 453 280 l 2
 438 183 407 110 360 62 c 0
 314 14 251 -10 171 -10 c 0
 132 -10 96 -5 62 6 c 0
350 980 m 1
 380 980 l 1
 500 770 l 1
 476 770 l 1
 364 965 l 1
 362 965 l 1
 188 770 l 1
 163 770 l 1
 350 980 l 1
EndSplineSet
EndChar

StartChar: K
Encoding: 75 75 88
Width: 583
Flags: W
LayerCount: 2
Fore
SplineSet
157 730 m 1
 177 730 l 1
 125 404 l 1
 127 404 l 1
 585 730 l 1
 618 730 l 1
 138 390 l 1
 512 0 l 1
 482 0 l 1
 123 376 l 1
 121 376 l 1
 61 0 l 1
 41 0 l 1
 157 730 l 1
EndSplineSet
EndChar

StartChar: uni0136
Encoding: 310 310 89
Width: 604
Flags: W
LayerCount: 2
Fore
SplineSet
157 730 m 1
 177 730 l 1
 125 404 l 1
 127 404 l 1
 585 730 l 1
 618 730 l 1
 138 390 l 1
 512 0 l 1
 482 0 l 1
 123 376 l 1
 121 376 l 1
 61 0 l 1
 41 0 l 1
 157 730 l 1
92 -250 m 1
 69 -250 l 1
 221 -40 l 1
 243 -40 l 1
 92 -250 l 1
EndSplineSet
EndChar

StartChar: L
Encoding: 76 76 90
Width: 561
Flags: W
LayerCount: 2
Fore
SplineSet
157 730 m 1
 177 730 l 1
 64 20 l 1
 476 20 l 1
 473 0 l 1
 41 0 l 1
 157 730 l 1
EndSplineSet
EndChar

StartChar: uni01C7
Encoding: 455 455 91
Width: 1152
Flags: W
LayerCount: 2
Fore
SplineSet
157 730 m 1
 177 730 l 1
 64 20 l 1
 476 20 l 1
 473 0 l 1
 41 0 l 1
 157 730 l 1
664 6 m 0
 630 17 602 31 579 50 c 1
 593 66 l 1
 615 49 642 35 674 25 c 0
 707 15 741 10 777 10 c 0
 851 10 909 32 952 76 c 0
 994 120 1022 188 1036 280 c 2
 1108 730 l 1
 1127 730 l 1
 1056 280 l 2
 1041 183 1010 110 964 62 c 0
 917 14 854 -10 774 -10 c 0
 735 -10 699 -5 664 6 c 0
EndSplineSet
EndChar

StartChar: Lacute
Encoding: 313 313 92
Width: 583
Flags: W
LayerCount: 2
Fore
SplineSet
157 730 m 1
 177 730 l 1
 64 20 l 1
 476 20 l 1
 473 0 l 1
 41 0 l 1
 157 730 l 1
335 770 m 1
 312 770 l 1
 464 980 l 1
 487 980 l 1
 335 770 l 1
EndSplineSet
EndChar

StartChar: Lcaron
Encoding: 317 317 93
Width: 597
Flags: W
LayerCount: 2
Fore
SplineSet
157 730 m 1
 177 730 l 1
 64 20 l 1
 476 20 l 1
 473 0 l 1
 41 0 l 1
 157 730 l 1
587 770 m 1
 609 770 l 1
 455 470 l 1
 433 470 l 1
 587 770 l 1
EndSplineSet
EndChar

StartChar: uni013B
Encoding: 315 315 94
Width: 583
Flags: W
LayerCount: 2
Fore
SplineSet
157 730 m 1
 177 730 l 1
 64 20 l 1
 476 20 l 1
 473 0 l 1
 41 0 l 1
 157 730 l 1
104 -250 m 1
 81 -250 l 1
 233 -40 l 1
 255 -40 l 1
 104 -250 l 1
EndSplineSet
EndChar

StartChar: Ldot
Encoding: 319 319 95
Width: 613
Flags: W
LayerCount: 2
Fore
SplineSet
157 730 m 1
 177 730 l 1
 64 20 l 1
 476 20 l 1
 473 0 l 1
 41 0 l 1
 157 730 l 1
444 405 m 1
 503 405 l 1
 493 345 l 1
 435 345 l 1
 444 405 l 1
EndSplineSet
EndChar

StartChar: uni01C8
Encoding: 456 456 96
Width: 881
Flags: W
LayerCount: 2
Fore
SplineSet
157 730 m 1
 177 730 l 1
 64 20 l 1
 476 20 l 1
 473 0 l 1
 41 0 l 1
 157 730 l 1
793 730 m 1
 850 730 l 1
 840 670 l 1
 784 670 l 1
 793 730 l 1
583 -192 m 0
 616 -181 641 -160 658 -132 c 0
 675 -102 687 -59 696 0 c 2
 779 520 l 1
 798 520 l 1
 715 0 l 2
 705 -62 690 -109 672 -142 c 0
 652 -174 625 -197 589 -210 c 0
 553 -223 502 -230 437 -230 c 1
 440 -210 l 1
 502 -210 550 -204 583 -192 c 0
EndSplineSet
EndChar

StartChar: Lslash
Encoding: 321 321 97
Width: 647
Flags: W
LayerCount: 2
Fore
SplineSet
150 20 m 1
 562 20 l 1
 558 0 l 1
 127 0 l 1
 183 350 l 1
 24 281 l 1
 19 299 l 1
 186 371 l 1
 243 730 l 1
 262 730 l 1
 207 380 l 1
 366 449 l 1
 371 431 l 1
 204 359 l 1
 150 20 l 1
EndSplineSet
EndChar

StartChar: M
Encoding: 77 77 98
Width: 819
Flags: W
LayerCount: 2
Fore
SplineSet
157 730 m 1
 187 730 l 1
 391 174 l 1
 393 174 l 1
 773 730 l 1
 804 730 l 1
 688 0 l 1
 669 0 l 1
 781 709 l 1
 779 709 l 1
 401 155 l 1
 378 155 l 1
 175 709 l 1
 173 709 l 1
 61 0 l 1
 41 0 l 1
 157 730 l 1
EndSplineSet
EndChar

StartChar: N
Encoding: 78 78 99
Width: 682
Flags: W
LayerCount: 2
Fore
SplineSet
157 730 m 1
 188 730 l 1
 533 21 l 1
 535 21 l 1
 647 730 l 1
 667 730 l 1
 551 0 l 1
 520 0 l 1
 175 709 l 1
 173 709 l 1
 61 0 l 1
 41 0 l 1
 157 730 l 1
EndSplineSet
EndChar

StartChar: uni01CA
Encoding: 458 458 100
Width: 1259
Flags: W
LayerCount: 2
Fore
SplineSet
157 730 m 1
 188 730 l 1
 533 21 l 1
 535 21 l 1
 647 730 l 1
 667 730 l 1
 551 0 l 1
 520 0 l 1
 175 709 l 1
 173 709 l 1
 61 0 l 1
 41 0 l 1
 157 730 l 1
772 6 m 0
 737 17 709 31 686 50 c 1
 700 66 l 1
 722 49 749 35 782 25 c 0
 814 15 848 10 884 10 c 0
 958 10 1016 32 1058 76 c 0
 1101 120 1129 188 1143 280 c 2
 1215 730 l 1
 1234 730 l 1
 1163 280 l 2
 1148 183 1117 110 1070 62 c 0
 1024 14 961 -10 881 -10 c 0
 842 -10 806 -5 772 6 c 0
EndSplineSet
EndChar

StartChar: Nacute
Encoding: 323 323 101
Width: 710
Flags: W
LayerCount: 2
Fore
SplineSet
157 730 m 1
 188 730 l 1
 533 21 l 1
 535 21 l 1
 647 730 l 1
 667 730 l 1
 551 0 l 1
 520 0 l 1
 175 709 l 1
 173 709 l 1
 61 0 l 1
 41 0 l 1
 157 730 l 1
398 770 m 1
 375 770 l 1
 527 980 l 1
 550 980 l 1
 398 770 l 1
EndSplineSet
EndChar

StartChar: Ncaron
Encoding: 327 327 102
Width: 710
Flags: W
LayerCount: 2
Fore
SplineSet
157 730 m 1
 188 730 l 1
 533 21 l 1
 535 21 l 1
 647 730 l 1
 667 730 l 1
 551 0 l 1
 520 0 l 1
 175 709 l 1
 173 709 l 1
 61 0 l 1
 41 0 l 1
 157 730 l 1
277 980 m 1
 301 980 l 1
 413 785 l 1
 415 785 l 1
 589 980 l 1
 614 980 l 1
 427 770 l 1
 397 770 l 1
 277 980 l 1
EndSplineSet
EndChar

StartChar: uni0145
Encoding: 325 325 103
Width: 710
Flags: W
LayerCount: 2
Fore
SplineSet
157 730 m 1
 188 730 l 1
 533 21 l 1
 535 21 l 1
 647 730 l 1
 667 730 l 1
 551 0 l 1
 520 0 l 1
 175 709 l 1
 173 709 l 1
 61 0 l 1
 41 0 l 1
 157 730 l 1
167 -250 m 1
 144 -250 l 1
 296 -40 l 1
 318 -40 l 1
 167 -250 l 1
EndSplineSet
EndChar

StartChar: Eng
Encoding: 330 330 104
Width: 682
Flags: W
LayerCount: 2
Fore
SplineSet
667 730 m 1
 541 -61 l 2
 533 -112 516 -150 490 -174 c 0
 465 -199 428 -211 380 -211 c 0
 354 -211 329 -206 304 -196 c 1
 314 -177 l 1
 335 -186 358 -191 384 -191 c 0
 426 -191 458 -181 479 -160 c 0
 500 -140 515 -107 522 -61 c 2
 529 -18 l 1
 175 709 l 1
 173 709 l 1
 61 0 l 1
 41 0 l 1
 157 730 l 1
 188 730 l 1
 533 21 l 1
 535 21 l 1
 647 730 l 1
 667 730 l 1
EndSplineSet
EndChar

StartChar: uni01CB
Encoding: 459 459 105
Width: 1008
Flags: W
LayerCount: 2
Fore
SplineSet
157 730 m 1
 188 730 l 1
 533 21 l 1
 535 21 l 1
 647 730 l 1
 667 730 l 1
 551 0 l 1
 520 0 l 1
 175 709 l 1
 173 709 l 1
 61 0 l 1
 41 0 l 1
 157 730 l 1
920 730 m 1
 977 730 l 1
 967 670 l 1
 911 670 l 1
 920 730 l 1
710 -192 m 0
 743 -181 768 -160 785 -132 c 0
 802 -102 814 -59 823 0 c 2
 906 520 l 1
 925 520 l 1
 842 0 l 2
 832 -62 818 -109 798 -142 c 0
 780 -174 752 -197 716 -210 c 0
 680 -223 629 -230 564 -230 c 1
 567 -210 l 1
 629 -210 677 -204 710 -192 c 0
EndSplineSet
EndChar

StartChar: Ntilde
Encoding: 209 209 106
Width: 710
Flags: W
LayerCount: 2
Fore
SplineSet
157 730 m 1
 188 730 l 1
 533 21 l 1
 535 21 l 1
 647 730 l 1
 667 730 l 1
 551 0 l 1
 520 0 l 1
 175 709 l 1
 173 709 l 1
 61 0 l 1
 41 0 l 1
 157 730 l 1
419 867 m 0
 382 899 354 915 334 915 c 0
 309 915 292 885 282 825 c 1
 263 825 l 1
 269 862 278 889 290 908 c 0
 301 926 317 935 337 935 c 0
 362 935 394 918 433 883 c 0
 470 851 499 835 519 835 c 0
 544 835 561 865 570 925 c 1
 590 925 l 1
 579 852 554 815 516 815 c 0
 492 815 460 832 419 867 c 0
EndSplineSet
EndChar

StartChar: O
Encoding: 79 79 107
Width: 771
Flags: W
LayerCount: 2
Fore
SplineSet
168 37 m 0
 120 68 87 112 68 170 c 0
 48 226 44 292 56 365 c 0
 67 438 92 504 130 560 c 0
 167 618 214 662 272 693 c 0
 328 724 391 740 458 740 c 0
 525 740 582 724 630 693 c 0
 676 662 710 618 730 560 c 0
 749 504 753 438 742 365 c 0
 731 292 706 226 668 170 c 0
 630 112 582 68 526 37 c 0
 468 6 406 -10 339 -10 c 0
 272 -10 214 6 168 37 c 0
518 54 m 0
 572 84 617 126 652 180 c 0
 687 233 711 295 722 365 c 0
 733 435 730 497 711 550 c 0
 692 604 661 646 617 676 c 0
 573 705 519 720 455 720 c 0
 391 720 332 705 279 676 c 0
 226 646 181 604 146 550 c 0
 110 497 86 435 75 365 c 0
 64 295 67 233 86 180 c 0
 105 126 136 84 180 54 c 0
 224 25 278 10 342 10 c 0
 406 10 465 25 518 54 c 0
EndSplineSet
EndChar

StartChar: Oacute
Encoding: 211 211 108
Width: 794
Flags: W
LayerCount: 2
Fore
SplineSet
168 37 m 0
 120 68 87 112 68 170 c 0
 48 226 44 292 56 365 c 0
 67 438 92 504 130 560 c 0
 167 618 214 662 272 693 c 0
 328 724 391 740 458 740 c 0
 525 740 582 724 630 693 c 0
 676 662 710 618 730 560 c 0
 749 504 753 438 742 365 c 0
 731 292 706 226 668 170 c 0
 630 112 582 68 526 37 c 0
 468 6 406 -10 339 -10 c 0
 272 -10 214 6 168 37 c 0
518 54 m 0
 572 84 617 126 652 180 c 0
 687 233 711 295 722 365 c 0
 733 435 730 497 711 550 c 0
 692 604 661 646 617 676 c 0
 573 705 519 720 455 720 c 0
 391 720 332 705 279 676 c 0
 226 646 181 604 146 550 c 0
 110 497 86 435 75 365 c 0
 64 295 67 233 86 180 c 0
 105 126 136 84 180 54 c 0
 224 25 278 10 342 10 c 0
 406 10 465 25 518 54 c 0
440 770 m 1
 417 770 l 1
 569 980 l 1
 592 980 l 1
 440 770 l 1
EndSplineSet
EndChar

StartChar: Obreve
Encoding: 334 334 109
Width: 794
Flags: W
LayerCount: 2
Fore
SplineSet
168 37 m 0
 120 68 87 112 68 170 c 0
 48 226 44 292 56 365 c 0
 67 438 92 504 130 560 c 0
 167 618 214 662 272 693 c 0
 328 724 391 740 458 740 c 0
 525 740 582 724 630 693 c 0
 676 662 710 618 730 560 c 0
 749 504 753 438 742 365 c 0
 731 292 706 226 668 170 c 0
 630 112 582 68 526 37 c 0
 468 6 406 -10 339 -10 c 0
 272 -10 214 6 168 37 c 0
518 54 m 0
 572 84 617 126 652 180 c 0
 687 233 711 295 722 365 c 0
 733 435 730 497 711 550 c 0
 692 604 661 646 617 676 c 0
 573 705 519 720 455 720 c 0
 391 720 332 705 279 676 c 0
 226 646 181 604 146 550 c 0
 110 497 86 435 75 365 c 0
 64 295 67 233 86 180 c 0
 105 126 136 84 180 54 c 0
 224 25 278 10 342 10 c 0
 406 10 465 25 518 54 c 0
357 838 m 0
 332 860 320 889 319 925 c 1
 339 925 l 1
 340 895 352 871 374 852 c 0
 395 834 424 825 459 825 c 0
 494 825 526 834 554 852 c 0
 581 871 600 895 611 925 c 1
 631 925 l 1
 620 889 598 860 566 838 c 0
 534 816 497 805 456 805 c 0
 415 805 382 816 357 838 c 0
EndSplineSet
EndChar

StartChar: Ocircumflex
Encoding: 212 212 110
Width: 794
Flags: W
LayerCount: 2
Fore
SplineSet
168 37 m 0
 120 68 87 112 68 170 c 0
 48 226 44 292 56 365 c 0
 67 438 92 504 130 560 c 0
 167 618 214 662 272 693 c 0
 328 724 391 740 458 740 c 0
 525 740 582 724 630 693 c 0
 676 662 710 618 730 560 c 0
 749 504 753 438 742 365 c 0
 731 292 706 226 668 170 c 0
 630 112 582 68 526 37 c 0
 468 6 406 -10 339 -10 c 0
 272 -10 214 6 168 37 c 0
518 54 m 0
 572 84 617 126 652 180 c 0
 687 233 711 295 722 365 c 0
 733 435 730 497 711 550 c 0
 692 604 661 646 617 676 c 0
 573 705 519 720 455 720 c 0
 391 720 332 705 279 676 c 0
 226 646 181 604 146 550 c 0
 110 497 86 435 75 365 c 0
 64 295 67 233 86 180 c 0
 105 126 136 84 180 54 c 0
 224 25 278 10 342 10 c 0
 406 10 465 25 518 54 c 0
472 980 m 1
 502 980 l 1
 622 770 l 1
 598 770 l 1
 486 965 l 1
 484 965 l 1
 310 770 l 1
 285 770 l 1
 472 980 l 1
EndSplineSet
EndChar

StartChar: uni1ED0
Encoding: 7888 7888 111
Width: 794
Flags: W
LayerCount: 2
Fore
SplineSet
168 37 m 0
 120 68 87 112 68 170 c 0
 48 226 44 292 56 365 c 0
 67 438 92 504 130 560 c 0
 167 618 214 662 272 693 c 0
 328 724 391 740 458 740 c 0
 525 740 582 724 630 693 c 0
 676 662 710 618 730 560 c 0
 749 504 753 438 742 365 c 0
 731 292 706 226 668 170 c 0
 630 112 582 68 526 37 c 0
 468 6 406 -10 339 -10 c 0
 272 -10 214 6 168 37 c 0
518 54 m 0
 572 84 617 126 652 180 c 0
 687 233 711 295 722 365 c 0
 733 435 730 497 711 550 c 0
 692 604 661 646 617 676 c 0
 573 705 519 720 455 720 c 0
 391 720 332 705 279 676 c 0
 226 646 181 604 146 550 c 0
 110 497 86 435 75 365 c 0
 64 295 67 233 86 180 c 0
 105 126 136 84 180 54 c 0
 224 25 278 10 342 10 c 0
 406 10 465 25 518 54 c 0
472 980 m 1
 502 980 l 1
 622 770 l 1
 598 770 l 1
 486 965 l 1
 484 965 l 1
 310 770 l 1
 285 770 l 1
 472 980 l 1
613 950 m 1
 590 950 l 1
 742 1160 l 1
 765 1160 l 1
 613 950 l 1
EndSplineSet
EndChar

StartChar: uni1ED8
Encoding: 7896 7896 112
Width: 794
Flags: W
LayerCount: 2
Fore
SplineSet
168 37 m 0
 120 68 87 112 68 170 c 0
 48 226 44 292 56 365 c 0
 67 438 92 504 130 560 c 0
 167 618 214 662 272 693 c 0
 328 724 391 740 458 740 c 0
 525 740 582 724 630 693 c 0
 676 662 710 618 730 560 c 0
 749 504 753 438 742 365 c 0
 731 292 706 226 668 170 c 0
 630 112 582 68 526 37 c 0
 468 6 406 -10 339 -10 c 0
 272 -10 214 6 168 37 c 0
518 54 m 0
 572 84 617 126 652 180 c 0
 687 233 711 295 722 365 c 0
 733 435 730 497 711 550 c 0
 692 604 661 646 617 676 c 0
 573 705 519 720 455 720 c 0
 391 720 332 705 279 676 c 0
 226 646 181 604 146 550 c 0
 110 497 86 435 75 365 c 0
 64 295 67 233 86 180 c 0
 105 126 136 84 180 54 c 0
 224 25 278 10 342 10 c 0
 406 10 465 25 518 54 c 0
312 -115 m 1
 371 -115 l 1
 361 -175 l 1
 302 -175 l 1
 312 -115 l 1
472 980 m 1
 502 980 l 1
 622 770 l 1
 598 770 l 1
 486 965 l 1
 484 965 l 1
 310 770 l 1
 285 770 l 1
 472 980 l 1
EndSplineSet
EndChar

StartChar: uni1ED2
Encoding: 7890 7890 113
Width: 794
Flags: W
LayerCount: 2
Fore
SplineSet
168 37 m 0
 120 68 87 112 68 170 c 0
 48 226 44 292 56 365 c 0
 67 438 92 504 130 560 c 0
 167 618 214 662 272 693 c 0
 328 724 391 740 458 740 c 0
 525 740 582 724 630 693 c 0
 676 662 710 618 730 560 c 0
 749 504 753 438 742 365 c 0
 731 292 706 226 668 170 c 0
 630 112 582 68 526 37 c 0
 468 6 406 -10 339 -10 c 0
 272 -10 214 6 168 37 c 0
518 54 m 0
 572 84 617 126 652 180 c 0
 687 233 711 295 722 365 c 0
 733 435 730 497 711 550 c 0
 692 604 661 646 617 676 c 0
 573 705 519 720 455 720 c 0
 391 720 332 705 279 676 c 0
 226 646 181 604 146 550 c 0
 110 497 86 435 75 365 c 0
 64 295 67 233 86 180 c 0
 105 126 136 84 180 54 c 0
 224 25 278 10 342 10 c 0
 406 10 465 25 518 54 c 0
472 980 m 1
 502 980 l 1
 622 770 l 1
 598 770 l 1
 486 965 l 1
 484 965 l 1
 310 770 l 1
 285 770 l 1
 472 980 l 1
287 1160 m 1
 310 1160 l 1
 395 950 l 1
 373 950 l 1
 287 1160 l 1
EndSplineSet
EndChar

StartChar: uni1ED4
Encoding: 7892 7892 114
Width: 794
Flags: W
LayerCount: 2
Fore
SplineSet
168 37 m 0
 120 68 87 112 68 170 c 0
 48 226 44 292 56 365 c 0
 67 438 92 504 130 560 c 0
 167 618 214 662 272 693 c 0
 328 724 391 740 458 740 c 0
 525 740 582 724 630 693 c 0
 676 662 710 618 730 560 c 0
 749 504 753 438 742 365 c 0
 731 292 706 226 668 170 c 0
 630 112 582 68 526 37 c 0
 468 6 406 -10 339 -10 c 0
 272 -10 214 6 168 37 c 0
518 54 m 0
 572 84 617 126 652 180 c 0
 687 233 711 295 722 365 c 0
 733 435 730 497 711 550 c 0
 692 604 661 646 617 676 c 0
 573 705 519 720 455 720 c 0
 391 720 332 705 279 676 c 0
 226 646 181 604 146 550 c 0
 110 497 86 435 75 365 c 0
 64 295 67 233 86 180 c 0
 105 126 136 84 180 54 c 0
 224 25 278 10 342 10 c 0
 406 10 465 25 518 54 c 0
472 980 m 1
 502 980 l 1
 622 770 l 1
 598 770 l 1
 486 965 l 1
 484 965 l 1
 310 770 l 1
 285 770 l 1
 472 980 l 1
662 986 m 0
 668 1004 672 1020 674 1033 c 0
 677 1053 672 1067 660 1074 c 0
 646 1081 620 1085 580 1085 c 0
 541 1085 501 1080 461 1070 c 1
 459 1089 l 1
 502 1100 543 1105 584 1105 c 0
 629 1105 660 1100 676 1089 c 0
 692 1078 698 1060 694 1033 c 0
 692 1020 688 1006 682 989 c 0
 677 972 671 958 664 945 c 1
 642 945 l 1
 649 955 655 969 662 986 c 0
EndSplineSet
EndChar

StartChar: uni1ED6
Encoding: 7894 7894 115
Width: 794
Flags: W
LayerCount: 2
Fore
SplineSet
168 37 m 0
 120 68 87 112 68 170 c 0
 48 226 44 292 56 365 c 0
 67 438 92 504 130 560 c 0
 167 618 214 662 272 693 c 0
 328 724 391 740 458 740 c 0
 525 740 582 724 630 693 c 0
 676 662 710 618 730 560 c 0
 749 504 753 438 742 365 c 0
 731 292 706 226 668 170 c 0
 630 112 582 68 526 37 c 0
 468 6 406 -10 339 -10 c 0
 272 -10 214 6 168 37 c 0
518 54 m 0
 572 84 617 126 652 180 c 0
 687 233 711 295 722 365 c 0
 733 435 730 497 711 550 c 0
 692 604 661 646 617 676 c 0
 573 705 519 720 455 720 c 0
 391 720 332 705 279 676 c 0
 226 646 181 604 146 550 c 0
 110 497 86 435 75 365 c 0
 64 295 67 233 86 180 c 0
 105 126 136 84 180 54 c 0
 224 25 278 10 342 10 c 0
 406 10 465 25 518 54 c 0
472 980 m 1
 502 980 l 1
 622 770 l 1
 598 770 l 1
 486 965 l 1
 484 965 l 1
 310 770 l 1
 285 770 l 1
 472 980 l 1
488 1037 m 0
 451 1069 423 1085 403 1085 c 0
 378 1085 361 1055 351 995 c 1
 332 995 l 1
 338 1032 347 1059 358 1078 c 0
 370 1096 386 1105 406 1105 c 0
 431 1105 463 1088 502 1053 c 0
 539 1021 568 1005 588 1005 c 0
 613 1005 630 1035 639 1095 c 1
 659 1095 l 1
 648 1022 623 985 585 985 c 0
 561 985 529 1002 488 1037 c 0
EndSplineSet
EndChar

StartChar: uni020C
Encoding: 524 524 116
Width: 794
Flags: W
LayerCount: 2
Fore
SplineSet
168 37 m 0
 120 68 87 112 68 170 c 0
 48 226 44 292 56 365 c 0
 67 438 92 504 130 560 c 0
 167 618 214 662 272 693 c 0
 328 724 391 740 458 740 c 0
 525 740 582 724 630 693 c 0
 676 662 710 618 730 560 c 0
 749 504 753 438 742 365 c 0
 731 292 706 226 668 170 c 0
 630 112 582 68 526 37 c 0
 468 6 406 -10 339 -10 c 0
 272 -10 214 6 168 37 c 0
518 54 m 0
 572 84 617 126 652 180 c 0
 687 233 711 295 722 365 c 0
 733 435 730 497 711 550 c 0
 692 604 661 646 617 676 c 0
 573 705 519 720 455 720 c 0
 391 720 332 705 279 676 c 0
 226 646 181 604 146 550 c 0
 110 497 86 435 75 365 c 0
 64 295 67 233 86 180 c 0
 105 126 136 84 180 54 c 0
 224 25 278 10 342 10 c 0
 406 10 465 25 518 54 c 0
289 980 m 1
 312 980 l 1
 397 770 l 1
 375 770 l 1
 289 980 l 1
466 980 m 1
 488 980 l 1
 574 770 l 1
 551 770 l 1
 466 980 l 1
EndSplineSet
EndChar

StartChar: Odieresis
Encoding: 214 214 117
Width: 794
Flags: W
LayerCount: 2
Fore
SplineSet
168 37 m 0
 120 68 87 112 68 170 c 0
 48 226 44 292 56 365 c 0
 67 438 92 504 130 560 c 0
 167 618 214 662 272 693 c 0
 328 724 391 740 458 740 c 0
 525 740 582 724 630 693 c 0
 676 662 710 618 730 560 c 0
 749 504 753 438 742 365 c 0
 731 292 706 226 668 170 c 0
 630 112 582 68 526 37 c 0
 468 6 406 -10 339 -10 c 0
 272 -10 214 6 168 37 c 0
518 54 m 0
 572 84 617 126 652 180 c 0
 687 233 711 295 722 365 c 0
 733 435 730 497 711 550 c 0
 692 604 661 646 617 676 c 0
 573 705 519 720 455 720 c 0
 391 720 332 705 279 676 c 0
 226 646 181 604 146 550 c 0
 110 497 86 435 75 365 c 0
 64 295 67 233 86 180 c 0
 105 126 136 84 180 54 c 0
 224 25 278 10 342 10 c 0
 406 10 465 25 518 54 c 0
325 905 m 1
 383 905 l 1
 374 845 l 1
 315 845 l 1
 325 905 l 1
560 905 m 1
 619 905 l 1
 609 845 l 1
 550 845 l 1
 560 905 l 1
EndSplineSet
EndChar

StartChar: uni022A
Encoding: 554 554 118
Width: 794
Flags: W
LayerCount: 2
Fore
SplineSet
168 37 m 0
 120 68 87 112 68 170 c 0
 48 226 44 292 56 365 c 0
 67 438 92 504 130 560 c 0
 167 618 214 662 272 693 c 0
 328 724 391 740 458 740 c 0
 525 740 582 724 630 693 c 0
 676 662 710 618 730 560 c 0
 749 504 753 438 742 365 c 0
 731 292 706 226 668 170 c 0
 630 112 582 68 526 37 c 0
 468 6 406 -10 339 -10 c 0
 272 -10 214 6 168 37 c 0
518 54 m 0
 572 84 617 126 652 180 c 0
 687 233 711 295 722 365 c 0
 733 435 730 497 711 550 c 0
 692 604 661 646 617 676 c 0
 573 705 519 720 455 720 c 0
 391 720 332 705 279 676 c 0
 226 646 181 604 146 550 c 0
 110 497 86 435 75 365 c 0
 64 295 67 233 86 180 c 0
 105 126 136 84 180 54 c 0
 224 25 278 10 342 10 c 0
 406 10 465 25 518 54 c 0
325 905 m 1
 383 905 l 1
 374 845 l 1
 315 845 l 1
 325 905 l 1
560 905 m 1
 619 905 l 1
 609 845 l 1
 550 845 l 1
 560 905 l 1
325 1060 m 1
 653 1060 l 1
 650 1040 l 1
 322 1040 l 1
 325 1060 l 1
EndSplineSet
EndChar

StartChar: uni0230
Encoding: 560 560 119
Width: 794
Flags: W
LayerCount: 2
Fore
SplineSet
168 37 m 0
 120 68 87 112 68 170 c 0
 48 226 44 292 56 365 c 0
 67 438 92 504 130 560 c 0
 167 618 214 662 272 693 c 0
 328 724 391 740 458 740 c 0
 525 740 582 724 630 693 c 0
 676 662 710 618 730 560 c 0
 749 504 753 438 742 365 c 0
 731 292 706 226 668 170 c 0
 630 112 582 68 526 37 c 0
 468 6 406 -10 339 -10 c 0
 272 -10 214 6 168 37 c 0
518 54 m 0
 572 84 617 126 652 180 c 0
 687 233 711 295 722 365 c 0
 733 435 730 497 711 550 c 0
 692 604 661 646 617 676 c 0
 573 705 519 720 455 720 c 0
 391 720 332 705 279 676 c 0
 226 646 181 604 146 550 c 0
 110 497 86 435 75 365 c 0
 64 295 67 233 86 180 c 0
 105 126 136 84 180 54 c 0
 224 25 278 10 342 10 c 0
 406 10 465 25 518 54 c 0
473 905 m 1
 532 905 l 1
 522 845 l 1
 463 845 l 1
 473 905 l 1
325 1060 m 1
 653 1060 l 1
 650 1040 l 1
 322 1040 l 1
 325 1060 l 1
EndSplineSet
EndChar

StartChar: uni1ECC
Encoding: 7884 7884 120
Width: 794
Flags: W
LayerCount: 2
Fore
SplineSet
168 37 m 0
 120 68 87 112 68 170 c 0
 48 226 44 292 56 365 c 0
 67 438 92 504 130 560 c 0
 167 618 214 662 272 693 c 0
 328 724 391 740 458 740 c 0
 525 740 582 724 630 693 c 0
 676 662 710 618 730 560 c 0
 749 504 753 438 742 365 c 0
 731 292 706 226 668 170 c 0
 630 112 582 68 526 37 c 0
 468 6 406 -10 339 -10 c 0
 272 -10 214 6 168 37 c 0
518 54 m 0
 572 84 617 126 652 180 c 0
 687 233 711 295 722 365 c 0
 733 435 730 497 711 550 c 0
 692 604 661 646 617 676 c 0
 573 705 519 720 455 720 c 0
 391 720 332 705 279 676 c 0
 226 646 181 604 146 550 c 0
 110 497 86 435 75 365 c 0
 64 295 67 233 86 180 c 0
 105 126 136 84 180 54 c 0
 224 25 278 10 342 10 c 0
 406 10 465 25 518 54 c 0
312 -115 m 1
 371 -115 l 1
 361 -175 l 1
 302 -175 l 1
 312 -115 l 1
EndSplineSet
EndChar

StartChar: Ograve
Encoding: 210 210 121
Width: 794
Flags: W
LayerCount: 2
Fore
SplineSet
168 37 m 0
 120 68 87 112 68 170 c 0
 48 226 44 292 56 365 c 0
 67 438 92 504 130 560 c 0
 167 618 214 662 272 693 c 0
 328 724 391 740 458 740 c 0
 525 740 582 724 630 693 c 0
 676 662 710 618 730 560 c 0
 749 504 753 438 742 365 c 0
 731 292 706 226 668 170 c 0
 630 112 582 68 526 37 c 0
 468 6 406 -10 339 -10 c 0
 272 -10 214 6 168 37 c 0
518 54 m 0
 572 84 617 126 652 180 c 0
 687 233 711 295 722 365 c 0
 733 435 730 497 711 550 c 0
 692 604 661 646 617 676 c 0
 573 705 519 720 455 720 c 0
 391 720 332 705 279 676 c 0
 226 646 181 604 146 550 c 0
 110 497 86 435 75 365 c 0
 64 295 67 233 86 180 c 0
 105 126 136 84 180 54 c 0
 224 25 278 10 342 10 c 0
 406 10 465 25 518 54 c 0
402 980 m 1
 425 980 l 1
 510 770 l 1
 488 770 l 1
 402 980 l 1
EndSplineSet
EndChar

StartChar: uni1ECE
Encoding: 7886 7886 122
Width: 794
Flags: W
LayerCount: 2
Fore
SplineSet
168 37 m 0
 120 68 87 112 68 170 c 0
 48 226 44 292 56 365 c 0
 67 438 92 504 130 560 c 0
 167 618 214 662 272 693 c 0
 328 724 391 740 458 740 c 0
 525 740 582 724 630 693 c 0
 676 662 710 618 730 560 c 0
 749 504 753 438 742 365 c 0
 731 292 706 226 668 170 c 0
 630 112 582 68 526 37 c 0
 468 6 406 -10 339 -10 c 0
 272 -10 214 6 168 37 c 0
518 54 m 0
 572 84 617 126 652 180 c 0
 687 233 711 295 722 365 c 0
 733 435 730 497 711 550 c 0
 692 604 661 646 617 676 c 0
 573 705 519 720 455 720 c 0
 391 720 332 705 279 676 c 0
 226 646 181 604 146 550 c 0
 110 497 86 435 75 365 c 0
 64 295 67 233 86 180 c 0
 105 126 136 84 180 54 c 0
 224 25 278 10 342 10 c 0
 406 10 465 25 518 54 c 0
606 856 m 0
 613 874 617 890 619 903 c 0
 622 923 618 937 604 944 c 0
 592 951 565 955 525 955 c 0
 486 955 446 950 406 940 c 1
 404 959 l 1
 447 970 488 975 529 975 c 0
 574 975 605 970 621 959 c 0
 637 948 643 930 639 903 c 0
 637 890 633 876 628 859 c 0
 622 842 616 828 609 815 c 1
 587 815 l 1
 594 825 600 839 606 856 c 0
EndSplineSet
EndChar

StartChar: Ohorn
Encoding: 416 416 123
Width: 780
Flags: W
LayerCount: 2
Fore
SplineSet
738 530 m 0
 750 481 751 426 742 365 c 0
 731 292 706 226 668 170 c 0
 630 112 582 68 526 37 c 0
 468 6 406 -10 339 -10 c 0
 272 -10 214 6 168 37 c 0
 120 68 87 112 68 170 c 0
 48 226 44 292 56 365 c 0
 67 438 92 504 130 560 c 0
 167 618 214 662 272 693 c 0
 328 724 391 740 458 740 c 0
 528 740 587 723 635 689 c 0
 652 680 670 675 690 675 c 0
 733 675 758 701 766 753 c 0
 769 768 770 784 769 802 c 0
 768 818 767 833 764 845 c 1
 784 845 l 1
 789 813 790 782 785 753 c 0
 780 722 770 698 752 680 c 0
 736 664 714 655 687 655 c 0
 681 655 676 655 673 656 c 1
 704 622 726 580 738 530 c 0
518 54 m 0
 572 84 617 126 652 180 c 0
 687 233 711 295 722 365 c 0
 733 435 730 497 711 550 c 0
 692 604 661 646 617 676 c 0
 573 705 519 720 455 720 c 0
 391 720 332 705 279 676 c 0
 226 646 181 604 146 550 c 0
 110 497 86 435 75 365 c 0
 64 295 67 233 86 180 c 0
 105 126 136 84 180 54 c 0
 224 25 278 10 342 10 c 0
 406 10 465 25 518 54 c 0
EndSplineSet
EndChar

StartChar: uni1EDA
Encoding: 7898 7898 124
Width: 804
Flags: W
LayerCount: 2
Fore
SplineSet
738 530 m 0
 750 481 751 426 742 365 c 0
 731 292 706 226 668 170 c 0
 630 112 582 68 526 37 c 0
 468 6 406 -10 339 -10 c 0
 272 -10 214 6 168 37 c 0
 120 68 87 112 68 170 c 0
 48 226 44 292 56 365 c 0
 67 438 92 504 130 560 c 0
 167 618 214 662 272 693 c 0
 328 724 391 740 458 740 c 0
 528 740 587 723 635 689 c 0
 652 680 670 675 690 675 c 0
 733 675 758 701 766 753 c 0
 769 768 770 784 769 802 c 0
 768 818 767 833 764 845 c 1
 784 845 l 1
 789 813 790 782 785 753 c 0
 780 722 770 698 752 680 c 0
 736 664 714 655 687 655 c 0
 681 655 676 655 673 656 c 1
 704 622 726 580 738 530 c 0
518 54 m 0
 572 84 617 126 652 180 c 0
 687 233 711 295 722 365 c 0
 733 435 730 497 711 550 c 0
 692 604 661 646 617 676 c 0
 573 705 519 720 455 720 c 0
 391 720 332 705 279 676 c 0
 226 646 181 604 146 550 c 0
 110 497 86 435 75 365 c 0
 64 295 67 233 86 180 c 0
 105 126 136 84 180 54 c 0
 224 25 278 10 342 10 c 0
 406 10 465 25 518 54 c 0
440 770 m 1
 417 770 l 1
 569 980 l 1
 592 980 l 1
 440 770 l 1
EndSplineSet
EndChar

StartChar: uni1EE2
Encoding: 7906 7906 125
Width: 804
Flags: W
LayerCount: 2
Fore
SplineSet
738 530 m 0
 750 481 751 426 742 365 c 0
 731 292 706 226 668 170 c 0
 630 112 582 68 526 37 c 0
 468 6 406 -10 339 -10 c 0
 272 -10 214 6 168 37 c 0
 120 68 87 112 68 170 c 0
 48 226 44 292 56 365 c 0
 67 438 92 504 130 560 c 0
 167 618 214 662 272 693 c 0
 328 724 391 740 458 740 c 0
 528 740 587 723 635 689 c 0
 652 680 670 675 690 675 c 0
 733 675 758 701 766 753 c 0
 769 768 770 784 769 802 c 0
 768 818 767 833 764 845 c 1
 784 845 l 1
 789 813 790 782 785 753 c 0
 780 722 770 698 752 680 c 0
 736 664 714 655 687 655 c 0
 681 655 676 655 673 656 c 1
 704 622 726 580 738 530 c 0
518 54 m 0
 572 84 617 126 652 180 c 0
 687 233 711 295 722 365 c 0
 733 435 730 497 711 550 c 0
 692 604 661 646 617 676 c 0
 573 705 519 720 455 720 c 0
 391 720 332 705 279 676 c 0
 226 646 181 604 146 550 c 0
 110 497 86 435 75 365 c 0
 64 295 67 233 86 180 c 0
 105 126 136 84 180 54 c 0
 224 25 278 10 342 10 c 0
 406 10 465 25 518 54 c 0
312 -115 m 1
 371 -115 l 1
 361 -175 l 1
 302 -175 l 1
 312 -115 l 1
EndSplineSet
EndChar

StartChar: uni1EDC
Encoding: 7900 7900 126
Width: 804
Flags: W
LayerCount: 2
Fore
SplineSet
738 530 m 0
 750 481 751 426 742 365 c 0
 731 292 706 226 668 170 c 0
 630 112 582 68 526 37 c 0
 468 6 406 -10 339 -10 c 0
 272 -10 214 6 168 37 c 0
 120 68 87 112 68 170 c 0
 48 226 44 292 56 365 c 0
 67 438 92 504 130 560 c 0
 167 618 214 662 272 693 c 0
 328 724 391 740 458 740 c 0
 528 740 587 723 635 689 c 0
 652 680 670 675 690 675 c 0
 733 675 758 701 766 753 c 0
 769 768 770 784 769 802 c 0
 768 818 767 833 764 845 c 1
 784 845 l 1
 789 813 790 782 785 753 c 0
 780 722 770 698 752 680 c 0
 736 664 714 655 687 655 c 0
 681 655 676 655 673 656 c 1
 704 622 726 580 738 530 c 0
518 54 m 0
 572 84 617 126 652 180 c 0
 687 233 711 295 722 365 c 0
 733 435 730 497 711 550 c 0
 692 604 661 646 617 676 c 0
 573 705 519 720 455 720 c 0
 391 720 332 705 279 676 c 0
 226 646 181 604 146 550 c 0
 110 497 86 435 75 365 c 0
 64 295 67 233 86 180 c 0
 105 126 136 84 180 54 c 0
 224 25 278 10 342 10 c 0
 406 10 465 25 518 54 c 0
402 980 m 1
 425 980 l 1
 510 770 l 1
 488 770 l 1
 402 980 l 1
EndSplineSet
EndChar

StartChar: uni1EDE
Encoding: 7902 7902 127
Width: 804
Flags: W
LayerCount: 2
Fore
SplineSet
738 530 m 0
 750 481 751 426 742 365 c 0
 731 292 706 226 668 170 c 0
 630 112 582 68 526 37 c 0
 468 6 406 -10 339 -10 c 0
 272 -10 214 6 168 37 c 0
 120 68 87 112 68 170 c 0
 48 226 44 292 56 365 c 0
 67 438 92 504 130 560 c 0
 167 618 214 662 272 693 c 0
 328 724 391 740 458 740 c 0
 528 740 587 723 635 689 c 0
 652 680 670 675 690 675 c 0
 733 675 758 701 766 753 c 0
 769 768 770 784 769 802 c 0
 768 818 767 833 764 845 c 1
 784 845 l 1
 789 813 790 782 785 753 c 0
 780 722 770 698 752 680 c 0
 736 664 714 655 687 655 c 0
 681 655 676 655 673 656 c 1
 704 622 726 580 738 530 c 0
518 54 m 0
 572 84 617 126 652 180 c 0
 687 233 711 295 722 365 c 0
 733 435 730 497 711 550 c 0
 692 604 661 646 617 676 c 0
 573 705 519 720 455 720 c 0
 391 720 332 705 279 676 c 0
 226 646 181 604 146 550 c 0
 110 497 86 435 75 365 c 0
 64 295 67 233 86 180 c 0
 105 126 136 84 180 54 c 0
 224 25 278 10 342 10 c 0
 406 10 465 25 518 54 c 0
606 856 m 0
 613 874 617 890 619 903 c 0
 622 923 618 937 604 944 c 0
 592 951 565 955 525 955 c 0
 486 955 446 950 406 940 c 1
 404 959 l 1
 447 970 488 975 529 975 c 0
 574 975 605 970 621 959 c 0
 637 948 643 930 639 903 c 0
 637 890 633 876 628 859 c 0
 622 842 616 828 609 815 c 1
 587 815 l 1
 594 825 600 839 606 856 c 0
EndSplineSet
EndChar

StartChar: uni1EE0
Encoding: 7904 7904 128
Width: 804
Flags: W
LayerCount: 2
Fore
SplineSet
738 530 m 0
 750 481 751 426 742 365 c 0
 731 292 706 226 668 170 c 0
 630 112 582 68 526 37 c 0
 468 6 406 -10 339 -10 c 0
 272 -10 214 6 168 37 c 0
 120 68 87 112 68 170 c 0
 48 226 44 292 56 365 c 0
 67 438 92 504 130 560 c 0
 167 618 214 662 272 693 c 0
 328 724 391 740 458 740 c 0
 528 740 587 723 635 689 c 0
 652 680 670 675 690 675 c 0
 733 675 758 701 766 753 c 0
 769 768 770 784 769 802 c 0
 768 818 767 833 764 845 c 1
 784 845 l 1
 789 813 790 782 785 753 c 0
 780 722 770 698 752 680 c 0
 736 664 714 655 687 655 c 0
 681 655 676 655 673 656 c 1
 704 622 726 580 738 530 c 0
518 54 m 0
 572 84 617 126 652 180 c 0
 687 233 711 295 722 365 c 0
 733 435 730 497 711 550 c 0
 692 604 661 646 617 676 c 0
 573 705 519 720 455 720 c 0
 391 720 332 705 279 676 c 0
 226 646 181 604 146 550 c 0
 110 497 86 435 75 365 c 0
 64 295 67 233 86 180 c 0
 105 126 136 84 180 54 c 0
 224 25 278 10 342 10 c 0
 406 10 465 25 518 54 c 0
461 867 m 0
 424 899 396 915 376 915 c 0
 351 915 334 885 324 825 c 1
 305 825 l 1
 311 862 320 889 332 908 c 0
 343 926 359 935 379 935 c 0
 404 935 436 918 475 883 c 0
 512 851 541 835 561 835 c 0
 586 835 603 865 612 925 c 1
 632 925 l 1
 621 852 596 815 558 815 c 0
 534 815 502 832 461 867 c 0
EndSplineSet
EndChar

StartChar: Ohungarumlaut
Encoding: 336 336 129
Width: 794
Flags: W
LayerCount: 2
Fore
SplineSet
168 37 m 0
 120 68 87 112 68 170 c 0
 48 226 44 292 56 365 c 0
 67 438 92 504 130 560 c 0
 167 618 214 662 272 693 c 0
 328 724 391 740 458 740 c 0
 525 740 582 724 630 693 c 0
 676 662 710 618 730 560 c 0
 749 504 753 438 742 365 c 0
 731 292 706 226 668 170 c 0
 630 112 582 68 526 37 c 0
 468 6 406 -10 339 -10 c 0
 272 -10 214 6 168 37 c 0
518 54 m 0
 572 84 617 126 652 180 c 0
 687 233 711 295 722 365 c 0
 733 435 730 497 711 550 c 0
 692 604 661 646 617 676 c 0
 573 705 519 720 455 720 c 0
 391 720 332 705 279 676 c 0
 226 646 181 604 146 550 c 0
 110 497 86 435 75 365 c 0
 64 295 67 233 86 180 c 0
 105 126 136 84 180 54 c 0
 224 25 278 10 342 10 c 0
 406 10 465 25 518 54 c 0
360 770 m 1
 337 770 l 1
 489 980 l 1
 512 980 l 1
 360 770 l 1
540 770 m 1
 517 770 l 1
 669 980 l 1
 692 980 l 1
 540 770 l 1
EndSplineSet
EndChar

StartChar: uni020E
Encoding: 526 526 130
Width: 794
Flags: W
LayerCount: 2
Fore
SplineSet
168 37 m 0
 120 68 87 112 68 170 c 0
 48 226 44 292 56 365 c 0
 67 438 92 504 130 560 c 0
 167 618 214 662 272 693 c 0
 328 724 391 740 458 740 c 0
 525 740 582 724 630 693 c 0
 676 662 710 618 730 560 c 0
 749 504 753 438 742 365 c 0
 731 292 706 226 668 170 c 0
 630 112 582 68 526 37 c 0
 468 6 406 -10 339 -10 c 0
 272 -10 214 6 168 37 c 0
518 54 m 0
 572 84 617 126 652 180 c 0
 687 233 711 295 722 365 c 0
 733 435 730 497 711 550 c 0
 692 604 661 646 617 676 c 0
 573 705 519 720 455 720 c 0
 391 720 332 705 279 676 c 0
 226 646 181 604 146 550 c 0
 110 497 86 435 75 365 c 0
 64 295 67 233 86 180 c 0
 105 126 136 84 180 54 c 0
 224 25 278 10 342 10 c 0
 406 10 465 25 518 54 c 0
578 912 m 0
 602 890 615 861 615 825 c 1
 596 825 l 1
 595 855 583 879 561 898 c 0
 539 916 510 925 475 925 c 0
 440 925 408 916 380 898 c 0
 353 879 334 855 323 825 c 1
 304 825 l 1
 315 861 337 890 369 912 c 0
 401 934 437 945 478 945 c 0
 519 945 552 934 578 912 c 0
EndSplineSet
EndChar

StartChar: Omacron
Encoding: 332 332 131
Width: 794
Flags: W
LayerCount: 2
Fore
SplineSet
168 37 m 0
 120 68 87 112 68 170 c 0
 48 226 44 292 56 365 c 0
 67 438 92 504 130 560 c 0
 167 618 214 662 272 693 c 0
 328 724 391 740 458 740 c 0
 525 740 582 724 630 693 c 0
 676 662 710 618 730 560 c 0
 749 504 753 438 742 365 c 0
 731 292 706 226 668 170 c 0
 630 112 582 68 526 37 c 0
 468 6 406 -10 339 -10 c 0
 272 -10 214 6 168 37 c 0
518 54 m 0
 572 84 617 126 652 180 c 0
 687 233 711 295 722 365 c 0
 733 435 730 497 711 550 c 0
 692 604 661 646 617 676 c 0
 573 705 519 720 455 720 c 0
 391 720 332 705 279 676 c 0
 226 646 181 604 146 550 c 0
 110 497 86 435 75 365 c 0
 64 295 67 233 86 180 c 0
 105 126 136 84 180 54 c 0
 224 25 278 10 342 10 c 0
 406 10 465 25 518 54 c 0
297 885 m 1
 625 885 l 1
 622 865 l 1
 294 865 l 1
 297 885 l 1
EndSplineSet
EndChar

StartChar: uni01EA
Encoding: 490 490 132
Width: 771
Flags: W
LayerCount: 2
Fore
SplineSet
285 -71 m 0
 264 -92 251 -114 248 -135 c 0
 244 -160 252 -177 270 -186 c 0
 290 -195 314 -200 343 -200 c 0
 377 -200 409 -194 438 -181 c 1
 443 -199 l 1
 412 -213 377 -220 340 -220 c 0
 291 -220 260 -211 245 -194 c 0
 230 -177 225 -157 228 -135 c 0
 231 -113 242 -91 261 -70 c 0
 280 -49 304 -29 334 -10 c 1
 267 -9 211 7 165 38 c 0
 119 70 86 114 67 171 c 0
 48 228 44 292 56 365 c 0
 67 438 92 504 130 560 c 0
 167 618 214 662 272 693 c 0
 328 724 391 740 458 740 c 0
 525 740 582 724 630 693 c 0
 676 662 710 618 730 560 c 0
 749 504 753 438 742 365 c 0
 731 296 709 234 674 179 c 0
 639 124 596 81 544 48 c 0
 492 15 435 -4 373 -9 c 1
 336 -29 306 -50 285 -71 c 0
86 180 m 0
 105 126 136 84 180 54 c 0
 224 25 278 10 342 10 c 0
 406 10 465 25 518 54 c 0
 572 84 617 126 652 180 c 0
 687 233 711 295 722 365 c 0
 733 435 730 497 711 550 c 0
 692 604 661 646 617 676 c 0
 573 705 519 720 455 720 c 0
 391 720 332 705 279 676 c 0
 226 646 181 604 146 550 c 0
 110 497 86 435 75 365 c 0
 64 295 68 233 86 180 c 0
EndSplineSet
EndChar

StartChar: Oslash
Encoding: 216 216 133
Width: 771
Flags: W
LayerCount: 2
Fore
SplineSet
738 532 m 0
 750 482 751 426 742 365 c 0
 731 292 706 226 668 170 c 0
 630 112 582 68 526 37 c 0
 468 6 406 -10 339 -10 c 0
 258 -10 191 13 138 59 c 1
 72 -16 l 1
 58 -4 l 1
 126 72 l 1
 94 105 72 147 60 198 c 0
 47 248 46 304 56 365 c 0
 67 438 92 504 130 560 c 0
 167 618 214 662 272 693 c 0
 328 724 391 740 458 740 c 0
 539 740 606 717 659 671 c 1
 725 746 l 1
 739 734 l 1
 671 658 l 1
 703 625 725 583 738 532 c 0
78 207 m 0
 90 160 111 120 140 88 c 1
 644 655 l 1
 595 698 532 720 455 720 c 0
 391 720 332 705 279 676 c 0
 226 646 181 604 146 550 c 0
 110 497 86 435 75 365 c 0
 66 307 67 254 78 207 c 0
518 54 m 0
 572 84 617 126 652 180 c 0
 687 233 711 295 722 365 c 0
 731 423 730 476 718 523 c 0
 707 570 686 610 657 642 c 1
 153 75 l 1
 202 32 265 10 342 10 c 0
 406 10 465 25 518 54 c 0
EndSplineSet
EndChar

StartChar: Oslashacute
Encoding: 510 510 134
Width: 794
Flags: W
LayerCount: 2
Fore
SplineSet
738 532 m 0
 750 482 751 426 742 365 c 0
 731 292 706 226 668 170 c 0
 630 112 582 68 526 37 c 0
 468 6 406 -10 339 -10 c 0
 258 -10 191 13 138 59 c 1
 72 -16 l 1
 58 -4 l 1
 126 72 l 1
 94 105 72 147 60 198 c 0
 47 248 46 304 56 365 c 0
 67 438 92 504 130 560 c 0
 167 618 214 662 272 693 c 0
 328 724 391 740 458 740 c 0
 539 740 606 717 659 671 c 1
 725 746 l 1
 739 734 l 1
 671 658 l 1
 703 625 725 583 738 532 c 0
78 207 m 0
 90 160 111 120 140 88 c 1
 644 655 l 1
 595 698 532 720 455 720 c 0
 391 720 332 705 279 676 c 0
 226 646 181 604 146 550 c 0
 110 497 86 435 75 365 c 0
 66 307 67 254 78 207 c 0
518 54 m 0
 572 84 617 126 652 180 c 0
 687 233 711 295 722 365 c 0
 731 423 730 476 718 523 c 0
 707 570 686 610 657 642 c 1
 153 75 l 1
 202 32 265 10 342 10 c 0
 406 10 465 25 518 54 c 0
440 770 m 1
 417 770 l 1
 569 980 l 1
 592 980 l 1
 440 770 l 1
EndSplineSet
EndChar

StartChar: Otilde
Encoding: 213 213 135
Width: 794
Flags: W
LayerCount: 2
Fore
SplineSet
168 37 m 0
 120 68 87 112 68 170 c 0
 48 226 44 292 56 365 c 0
 67 438 92 504 130 560 c 0
 167 618 214 662 272 693 c 0
 328 724 391 740 458 740 c 0
 525 740 582 724 630 693 c 0
 676 662 710 618 730 560 c 0
 749 504 753 438 742 365 c 0
 731 292 706 226 668 170 c 0
 630 112 582 68 526 37 c 0
 468 6 406 -10 339 -10 c 0
 272 -10 214 6 168 37 c 0
518 54 m 0
 572 84 617 126 652 180 c 0
 687 233 711 295 722 365 c 0
 733 435 730 497 711 550 c 0
 692 604 661 646 617 676 c 0
 573 705 519 720 455 720 c 0
 391 720 332 705 279 676 c 0
 226 646 181 604 146 550 c 0
 110 497 86 435 75 365 c 0
 64 295 67 233 86 180 c 0
 105 126 136 84 180 54 c 0
 224 25 278 10 342 10 c 0
 406 10 465 25 518 54 c 0
461 867 m 0
 424 899 396 915 376 915 c 0
 351 915 334 885 324 825 c 1
 305 825 l 1
 311 862 320 889 332 908 c 0
 343 926 359 935 379 935 c 0
 404 935 436 918 475 883 c 0
 512 851 541 835 561 835 c 0
 586 835 603 865 612 925 c 1
 632 925 l 1
 621 852 596 815 558 815 c 0
 534 815 502 832 461 867 c 0
EndSplineSet
EndChar

StartChar: uni022C
Encoding: 556 556 136
Width: 794
Flags: W
LayerCount: 2
Fore
SplineSet
168 37 m 0
 120 68 87 112 68 170 c 0
 48 226 44 292 56 365 c 0
 67 438 92 504 130 560 c 0
 167 618 214 662 272 693 c 0
 328 724 391 740 458 740 c 0
 525 740 582 724 630 693 c 0
 676 662 710 618 730 560 c 0
 749 504 753 438 742 365 c 0
 731 292 706 226 668 170 c 0
 630 112 582 68 526 37 c 0
 468 6 406 -10 339 -10 c 0
 272 -10 214 6 168 37 c 0
518 54 m 0
 572 84 617 126 652 180 c 0
 687 233 711 295 722 365 c 0
 733 435 730 497 711 550 c 0
 692 604 661 646 617 676 c 0
 573 705 519 720 455 720 c 0
 391 720 332 705 279 676 c 0
 226 646 181 604 146 550 c 0
 110 497 86 435 75 365 c 0
 64 295 67 233 86 180 c 0
 105 126 136 84 180 54 c 0
 224 25 278 10 342 10 c 0
 406 10 465 25 518 54 c 0
461 867 m 0
 424 899 396 915 376 915 c 0
 351 915 334 885 324 825 c 1
 305 825 l 1
 311 862 320 889 332 908 c 0
 343 926 359 935 379 935 c 0
 404 935 436 918 475 883 c 0
 512 851 541 835 561 835 c 0
 586 835 603 865 612 925 c 1
 632 925 l 1
 621 852 596 815 558 815 c 0
 534 815 502 832 461 867 c 0
330 1090 m 1
 658 1090 l 1
 655 1070 l 1
 327 1070 l 1
 330 1090 l 1
EndSplineSet
EndChar

StartChar: OE
Encoding: 338 338 137
Width: 949
Flags: W
LayerCount: 2
Fore
SplineSet
560 710 m 1
 511 400 l 1
 883 400 l 1
 880 380 l 1
 508 380 l 1
 451 20 l 1
 843 20 l 1
 840 0 l 1
 428 0 l 1
 396 -7 366 -10 339 -10 c 0
 272 -10 214 6 168 37 c 0
 120 68 87 112 68 170 c 0
 48 226 44 292 56 365 c 0
 67 438 92 504 130 560 c 0
 167 618 214 662 272 693 c 0
 328 724 391 740 458 740 c 0
 485 740 514 737 544 730 c 1
 955 730 l 1
 952 710 l 1
 560 710 l 1
86 180 m 0
 105 126 136 84 180 54 c 0
 224 25 278 10 342 10 c 0
 374 10 404 13 431 20 c 1
 540 710 l 1
 515 717 486 720 455 720 c 0
 391 720 332 705 279 676 c 0
 226 646 181 604 146 550 c 0
 110 497 86 435 75 365 c 0
 64 295 68 233 86 180 c 0
EndSplineSet
EndChar

StartChar: P
Encoding: 80 80 138
Width: 544
Flags: W
LayerCount: 2
Fore
SplineSet
512 680 m 0
 552 647 566 593 555 520 c 0
 544 447 513 393 462 360 c 0
 411 327 337 310 238 310 c 2
 110 310 l 1
 61 0 l 1
 41 0 l 1
 157 730 l 1
 304 730 l 2
 403 730 472 713 512 680 c 0
450 374 m 0
 496 404 524 453 535 520 c 0
 546 587 533 636 496 666 c 0
 459 695 394 710 301 710 c 2
 174 710 l 1
 113 330 l 1
 241 330 l 2
 334 330 404 345 450 374 c 0
EndSplineSet
EndChar

StartChar: Thorn
Encoding: 222 222 139
Width: 544
Flags: W
LayerCount: 2
Fore
SplineSet
489 535 m 0
 529 502 543 448 532 375 c 0
 521 302 490 248 439 215 c 0
 388 182 314 165 215 165 c 2
 87 165 l 1
 61 0 l 1
 41 0 l 1
 157 730 l 1
 177 730 l 1
 154 585 l 1
 281 585 l 2
 380 585 449 568 489 535 c 0
427 230 m 0
 473 259 501 308 512 375 c 0
 523 442 510 491 473 520 c 0
 436 550 371 565 278 565 c 2
 151 565 l 1
 90 185 l 1
 218 185 l 2
 311 185 381 200 427 230 c 0
EndSplineSet
EndChar

StartChar: Q
Encoding: 81 81 140
Width: 785
Flags: W
LayerCount: 2
Fore
SplineSet
339 -10 m 0
 272 -10 214 6 168 37 c 0
 120 68 87 112 68 170 c 0
 48 226 44 292 56 365 c 0
 67 438 92 504 130 560 c 0
 167 618 214 662 272 693 c 0
 328 724 391 740 458 740 c 0
 525 740 582 724 630 693 c 0
 676 662 710 618 730 560 c 0
 749 504 753 438 742 365 c 0
 727 274 693 197 640 133 c 0
 586 69 520 26 443 5 c 1
 443 3 l 1
 552 -10 631 -45 681 -102 c 1
 665 -116 l 1
 604 -45 495 -10 339 -10 c 0
518 54 m 0
 572 84 617 126 652 180 c 0
 687 233 711 295 722 365 c 0
 733 435 730 497 711 550 c 0
 692 604 661 646 617 676 c 0
 573 705 519 720 455 720 c 0
 391 720 332 705 279 676 c 0
 226 646 181 604 146 550 c 0
 110 497 86 435 75 365 c 0
 64 295 67 233 86 180 c 0
 105 126 136 84 180 54 c 0
 224 25 278 10 342 10 c 0
 406 10 465 25 518 54 c 0
EndSplineSet
EndChar

StartChar: R
Encoding: 82 82 141
Width: 571
Flags: W
LayerCount: 2
Fore
SplineSet
206 350 m 1
 116 350 l 1
 61 0 l 1
 41 0 l 1
 157 730 l 1
 324 730 l 2
 417 730 482 715 518 685 c 0
 556 655 569 607 558 540 c 0
 547 473 519 425 472 395 c 0
 426 365 356 350 263 350 c 2
 233 350 l 1
 492 0 l 1
 465 0 l 1
 206 350 l 1
120 370 m 1
 267 370 l 2
 354 370 419 383 461 410 c 0
 503 437 529 480 539 540 c 0
 548 600 536 643 502 670 c 0
 469 697 408 710 321 710 c 2
 174 710 l 1
 120 370 l 1
EndSplineSet
EndChar

StartChar: Racute
Encoding: 340 340 142
Width: 593
Flags: W
LayerCount: 2
Fore
SplineSet
206 350 m 1
 116 350 l 1
 61 0 l 1
 41 0 l 1
 157 730 l 1
 324 730 l 2
 417 730 482 715 518 685 c 0
 556 655 569 607 558 540 c 0
 547 473 519 425 472 395 c 0
 426 365 356 350 263 350 c 2
 233 350 l 1
 492 0 l 1
 465 0 l 1
 206 350 l 1
120 370 m 1
 267 370 l 2
 354 370 419 383 461 410 c 0
 503 437 529 480 539 540 c 0
 548 600 536 643 502 670 c 0
 469 697 408 710 321 710 c 2
 174 710 l 1
 120 370 l 1
333 770 m 1
 310 770 l 1
 462 980 l 1
 485 980 l 1
 333 770 l 1
EndSplineSet
EndChar

StartChar: Rcaron
Encoding: 344 344 143
Width: 593
Flags: W
LayerCount: 2
Fore
SplineSet
206 350 m 1
 116 350 l 1
 61 0 l 1
 41 0 l 1
 157 730 l 1
 324 730 l 2
 417 730 482 715 518 685 c 0
 556 655 569 607 558 540 c 0
 547 473 519 425 472 395 c 0
 426 365 356 350 263 350 c 2
 233 350 l 1
 492 0 l 1
 465 0 l 1
 206 350 l 1
120 370 m 1
 267 370 l 2
 354 370 419 383 461 410 c 0
 503 437 529 480 539 540 c 0
 548 600 536 643 502 670 c 0
 469 697 408 710 321 710 c 2
 174 710 l 1
 120 370 l 1
212 980 m 1
 236 980 l 1
 348 785 l 1
 350 785 l 1
 524 980 l 1
 549 980 l 1
 362 770 l 1
 332 770 l 1
 212 980 l 1
EndSplineSet
EndChar

StartChar: uni0156
Encoding: 342 342 144
Width: 593
Flags: W
LayerCount: 2
Fore
SplineSet
206 350 m 1
 116 350 l 1
 61 0 l 1
 41 0 l 1
 157 730 l 1
 324 730 l 2
 417 730 482 715 518 685 c 0
 556 655 569 607 558 540 c 0
 547 473 519 425 472 395 c 0
 426 365 356 350 263 350 c 2
 233 350 l 1
 492 0 l 1
 465 0 l 1
 206 350 l 1
120 370 m 1
 267 370 l 2
 354 370 419 383 461 410 c 0
 503 437 529 480 539 540 c 0
 548 600 536 643 502 670 c 0
 469 697 408 710 321 710 c 2
 174 710 l 1
 120 370 l 1
102 -250 m 1
 79 -250 l 1
 231 -40 l 1
 253 -40 l 1
 102 -250 l 1
EndSplineSet
EndChar

StartChar: uni0210
Encoding: 528 528 145
Width: 593
Flags: W
LayerCount: 2
Fore
SplineSet
206 350 m 1
 116 350 l 1
 61 0 l 1
 41 0 l 1
 157 730 l 1
 324 730 l 2
 417 730 482 715 518 685 c 0
 556 655 569 607 558 540 c 0
 547 473 519 425 472 395 c 0
 426 365 356 350 263 350 c 2
 233 350 l 1
 492 0 l 1
 465 0 l 1
 206 350 l 1
120 370 m 1
 267 370 l 2
 354 370 419 383 461 410 c 0
 503 437 529 480 539 540 c 0
 548 600 536 643 502 670 c 0
 469 697 408 710 321 710 c 2
 174 710 l 1
 120 370 l 1
182 980 m 1
 205 980 l 1
 290 770 l 1
 268 770 l 1
 182 980 l 1
359 980 m 1
 381 980 l 1
 467 770 l 1
 444 770 l 1
 359 980 l 1
EndSplineSet
EndChar

StartChar: uni0212
Encoding: 530 530 146
Width: 593
Flags: W
LayerCount: 2
Fore
SplineSet
206 350 m 1
 116 350 l 1
 61 0 l 1
 41 0 l 1
 157 730 l 1
 324 730 l 2
 417 730 482 715 518 685 c 0
 556 655 569 607 558 540 c 0
 547 473 519 425 472 395 c 0
 426 365 356 350 263 350 c 2
 233 350 l 1
 492 0 l 1
 465 0 l 1
 206 350 l 1
120 370 m 1
 267 370 l 2
 354 370 419 383 461 410 c 0
 503 437 529 480 539 540 c 0
 548 600 536 643 502 670 c 0
 469 697 408 710 321 710 c 2
 174 710 l 1
 120 370 l 1
470 912 m 0
 496 890 508 861 508 825 c 1
 489 825 l 1
 488 855 476 879 454 898 c 0
 432 916 403 925 368 925 c 0
 333 925 301 916 274 898 c 0
 246 879 227 855 216 825 c 1
 197 825 l 1
 208 861 230 890 262 912 c 0
 294 934 330 945 371 945 c 0
 412 945 446 934 470 912 c 0
EndSplineSet
EndChar

StartChar: S
Encoding: 83 83 147
Width: 575
Flags: W
LayerCount: 2
Fore
SplineSet
120 5 m 0
 84 15 52 29 23 48 c 1
 36 66 l 1
 63 48 94 34 129 24 c 0
 164 15 200 10 239 10 c 0
 306 10 361 25 404 56 c 0
 447 86 472 128 481 183 c 0
 487 222 482 252 466 276 c 0
 451 298 430 316 404 328 c 0
 378 341 342 354 295 368 c 0
 249 382 212 395 185 408 c 0
 158 421 136 439 120 464 c 0
 103 488 98 520 105 561 c 0
 114 616 140 660 184 692 c 0
 229 724 286 740 355 740 c 0
 393 740 432 735 472 726 c 0
 511 717 542 705 564 690 c 1
 551 672 l 1
 530 686 501 698 464 706 c 0
 426 716 389 720 352 720 c 0
 289 720 237 706 196 678 c 0
 156 650 132 611 124 561 c 0
 119 526 123 497 138 475 c 0
 153 453 173 436 198 424 c 0
 223 413 259 400 304 387 c 0
 351 373 388 359 416 346 c 0
 445 333 468 313 484 287 c 0
 502 261 507 226 500 183 c 0
 491 122 464 75 416 41 c 0
 370 7 309 -10 236 -10 c 0
 195 -10 157 -5 120 5 c 0
EndSplineSet
EndChar

StartChar: Sacute
Encoding: 346 346 148
Width: 597
Flags: W
LayerCount: 2
Fore
SplineSet
120 5 m 0
 84 15 52 29 23 48 c 1
 36 66 l 1
 63 48 94 34 129 24 c 0
 164 15 200 10 239 10 c 0
 306 10 361 25 404 56 c 0
 447 86 472 128 481 183 c 0
 487 222 482 252 466 276 c 0
 451 298 430 316 404 328 c 0
 378 341 342 354 295 368 c 0
 249 382 212 395 185 408 c 0
 158 421 136 439 120 464 c 0
 103 488 98 520 105 561 c 0
 114 616 140 660 184 692 c 0
 229 724 286 740 355 740 c 0
 393 740 432 735 472 726 c 0
 511 717 542 705 564 690 c 1
 551 672 l 1
 530 686 501 698 464 706 c 0
 426 716 389 720 352 720 c 0
 289 720 237 706 196 678 c 0
 156 650 132 611 124 561 c 0
 119 526 123 497 138 475 c 0
 153 453 173 436 198 424 c 0
 223 413 259 400 304 387 c 0
 351 373 388 359 416 346 c 0
 445 333 468 313 484 287 c 0
 502 261 507 226 500 183 c 0
 491 122 464 75 416 41 c 0
 370 7 309 -10 236 -10 c 0
 195 -10 157 -5 120 5 c 0
339 770 m 1
 316 770 l 1
 468 980 l 1
 491 980 l 1
 339 770 l 1
EndSplineSet
EndChar

StartChar: Scaron
Encoding: 352 352 149
Width: 597
Flags: W
LayerCount: 2
Fore
SplineSet
120 5 m 0
 84 15 52 29 23 48 c 1
 36 66 l 1
 63 48 94 34 129 24 c 0
 164 15 200 10 239 10 c 0
 306 10 361 25 404 56 c 0
 447 86 472 128 481 183 c 0
 487 222 482 252 466 276 c 0
 451 298 430 316 404 328 c 0
 378 341 342 354 295 368 c 0
 249 382 212 395 185 408 c 0
 158 421 136 439 120 464 c 0
 103 488 98 520 105 561 c 0
 114 616 140 660 184 692 c 0
 229 724 286 740 355 740 c 0
 393 740 432 735 472 726 c 0
 511 717 542 705 564 690 c 1
 551 672 l 1
 530 686 501 698 464 706 c 0
 426 716 389 720 352 720 c 0
 289 720 237 706 196 678 c 0
 156 650 132 611 124 561 c 0
 119 526 123 497 138 475 c 0
 153 453 173 436 198 424 c 0
 223 413 259 400 304 387 c 0
 351 373 388 359 416 346 c 0
 445 333 468 313 484 287 c 0
 502 261 507 226 500 183 c 0
 491 122 464 75 416 41 c 0
 370 7 309 -10 236 -10 c 0
 195 -10 157 -5 120 5 c 0
218 980 m 1
 242 980 l 1
 354 785 l 1
 356 785 l 1
 530 980 l 1
 555 980 l 1
 368 770 l 1
 338 770 l 1
 218 980 l 1
EndSplineSet
EndChar

StartChar: Scedilla
Encoding: 350 350 150
Width: 575
Flags: W
LayerCount: 2
Fore
SplineSet
426 49 m 0
 385 16 332 -4 267 -9 c 1
 293 -28 312 -49 324 -70 c 0
 336 -92 340 -114 337 -136 c 0
 334 -158 322 -178 301 -195 c 0
 280 -212 246 -221 198 -221 c 0
 161 -221 129 -214 102 -200 c 1
 113 -182 l 1
 138 -195 167 -201 201 -201 c 0
 230 -201 256 -196 278 -187 c 0
 300 -178 313 -161 317 -136 c 0
 324 -94 296 -52 233 -10 c 1
 192 -9 154 -4 118 6 c 0
 82 15 50 29 23 48 c 1
 36 66 l 1
 63 48 94 34 129 24 c 0
 164 15 200 10 239 10 c 0
 306 10 361 25 404 56 c 0
 447 86 472 128 481 183 c 0
 487 222 482 252 466 276 c 0
 451 298 430 316 404 328 c 0
 378 341 342 354 295 368 c 0
 249 382 212 395 185 408 c 0
 158 421 136 439 120 464 c 0
 103 488 98 520 105 561 c 0
 114 616 140 660 184 692 c 0
 229 724 286 740 355 740 c 0
 393 740 432 735 472 726 c 0
 511 717 542 705 564 690 c 1
 551 672 l 1
 530 686 501 698 464 706 c 0
 426 716 389 720 352 720 c 0
 289 720 237 706 196 678 c 0
 156 650 132 611 124 561 c 0
 119 526 123 497 138 475 c 0
 153 453 173 436 198 424 c 0
 223 413 259 400 304 387 c 0
 351 373 388 359 416 346 c 0
 445 333 468 313 484 287 c 0
 502 261 507 226 500 183 c 0
 491 127 467 82 426 49 c 0
EndSplineSet
EndChar

StartChar: Scircumflex
Encoding: 348 348 151
Width: 597
Flags: W
LayerCount: 2
Fore
SplineSet
120 5 m 0
 84 15 52 29 23 48 c 1
 36 66 l 1
 63 48 94 34 129 24 c 0
 164 15 200 10 239 10 c 0
 306 10 361 25 404 56 c 0
 447 86 472 128 481 183 c 0
 487 222 482 252 466 276 c 0
 451 298 430 316 404 328 c 0
 378 341 342 354 295 368 c 0
 249 382 212 395 185 408 c 0
 158 421 136 439 120 464 c 0
 103 488 98 520 105 561 c 0
 114 616 140 660 184 692 c 0
 229 724 286 740 355 740 c 0
 393 740 432 735 472 726 c 0
 511 717 542 705 564 690 c 1
 551 672 l 1
 530 686 501 698 464 706 c 0
 426 716 389 720 352 720 c 0
 289 720 237 706 196 678 c 0
 156 650 132 611 124 561 c 0
 119 526 123 497 138 475 c 0
 153 453 173 436 198 424 c 0
 223 413 259 400 304 387 c 0
 351 373 388 359 416 346 c 0
 445 333 468 313 484 287 c 0
 502 261 507 226 500 183 c 0
 491 122 464 75 416 41 c 0
 370 7 309 -10 236 -10 c 0
 195 -10 157 -5 120 5 c 0
371 980 m 1
 401 980 l 1
 521 770 l 1
 497 770 l 1
 385 965 l 1
 383 965 l 1
 209 770 l 1
 184 770 l 1
 371 980 l 1
EndSplineSet
EndChar

StartChar: uni0218
Encoding: 536 536 152
Width: 597
Flags: W
LayerCount: 2
Fore
SplineSet
120 5 m 0
 84 15 52 29 23 48 c 1
 36 66 l 1
 63 48 94 34 129 24 c 0
 164 15 200 10 239 10 c 0
 306 10 361 25 404 56 c 0
 447 86 472 128 481 183 c 0
 487 222 482 252 466 276 c 0
 451 298 430 316 404 328 c 0
 378 341 342 354 295 368 c 0
 249 382 212 395 185 408 c 0
 158 421 136 439 120 464 c 0
 103 488 98 520 105 561 c 0
 114 616 140 660 184 692 c 0
 229 724 286 740 355 740 c 0
 393 740 432 735 472 726 c 0
 511 717 542 705 564 690 c 1
 551 672 l 1
 530 686 501 698 464 706 c 0
 426 716 389 720 352 720 c 0
 289 720 237 706 196 678 c 0
 156 650 132 611 124 561 c 0
 119 526 123 497 138 475 c 0
 153 453 173 436 198 424 c 0
 223 413 259 400 304 387 c 0
 351 373 388 359 416 346 c 0
 445 333 468 313 484 287 c 0
 502 261 507 226 500 183 c 0
 491 122 464 75 416 41 c 0
 370 7 309 -10 236 -10 c 0
 195 -10 157 -5 120 5 c 0
108 -250 m 1
 85 -250 l 1
 237 -40 l 1
 259 -40 l 1
 108 -250 l 1
EndSplineSet
EndChar

StartChar: uni1E9E
Encoding: 7838 7838 153
Width: 620
Flags: W
LayerCount: 2
Fore
SplineSet
186 7 m 1
 195 26 l 1
 228 15 266 10 309 10 c 0
 382 10 440 24 483 54 c 0
 526 82 551 125 560 180 c 0
 569 235 556 278 523 306 c 0
 490 336 437 350 365 350 c 2
 346 350 l 1
 350 379 l 1
 537 572 l 1
 544 622 534 659 508 684 c 0
 481 708 438 720 379 720 c 0
 309 720 255 703 216 668 c 0
 178 633 153 579 141 505 c 2
 61 0 l 1
 41 0 l 1
 121 505 l 2
 134 584 161 643 204 682 c 0
 247 721 306 740 382 740 c 0
 516 740 574 682 555 565 c 1
 369 372 l 1
 369 370 l 1
 446 370 503 354 540 321 c 0
 576 288 589 241 580 180 c 0
 570 119 541 72 494 39 c 0
 447 6 384 -10 305 -10 c 0
 262 -10 222 -4 186 7 c 1
EndSplineSet
EndChar

StartChar: uni018F
Encoding: 399 399 154
Width: 730
Flags: W
LayerCount: 2
Fore
SplineSet
654 643 m 0
 704 578 720 486 701 365 c 0
 688 287 665 220 630 164 c 0
 596 107 552 64 499 34 c 0
 446 5 385 -10 318 -10 c 0
 251 -10 195 5 151 34 c 0
 107 64 77 107 60 164 c 0
 43 220 41 287 54 365 c 1
 54 368 l 1
 681 368 l 1
 698 483 683 570 636 630 c 0
 589 690 511 720 404 720 c 0
 359 720 313 715 267 704 c 0
 221 693 178 678 138 658 c 1
 132 676 l 1
 173 696 217 712 266 723 c 0
 314 734 361 740 407 740 c 0
 521 740 603 708 654 643 c 0
555 98 m 0
 618 158 659 241 678 348 c 1
 71 348 l 1
 56 241 71 158 115 98 c 0
 159 40 228 10 321 10 c 0
 414 10 492 40 555 98 c 0
EndSplineSet
EndChar

StartChar: T
Encoding: 84 84 155
Width: 599
Flags: W
LayerCount: 2
Fore
SplineSet
358 710 m 1
 93 710 l 1
 96 730 l 1
 645 730 l 1
 642 710 l 1
 377 710 l 1
 265 0 l 1
 245 0 l 1
 358 710 l 1
EndSplineSet
EndChar

StartChar: Tbar
Encoding: 358 358 156
Width: 650
Flags: W
LayerCount: 2
Fore
SplineSet
667 710 m 1
 403 710 l 1
 342 325 l 1
 538 325 l 1
 534 305 l 1
 338 305 l 1
 290 0 l 1
 271 0 l 1
 319 305 l 1
 123 305 l 1
 126 325 l 1
 322 325 l 1
 383 710 l 1
 118 710 l 1
 122 730 l 1
 670 730 l 1
 667 710 l 1
EndSplineSet
EndChar

StartChar: Tcaron
Encoding: 356 356 157
Width: 616
Flags: W
LayerCount: 2
Fore
SplineSet
358 710 m 1
 93 710 l 1
 96 730 l 1
 645 730 l 1
 642 710 l 1
 377 710 l 1
 265 0 l 1
 245 0 l 1
 358 710 l 1
230 980 m 1
 254 980 l 1
 366 785 l 1
 368 785 l 1
 542 980 l 1
 567 980 l 1
 380 770 l 1
 350 770 l 1
 230 980 l 1
EndSplineSet
EndChar

StartChar: uni0162
Encoding: 354 354 158
Width: 599
Flags: W
LayerCount: 2
Fore
SplineSet
377 710 m 1
 266 11 l 1
 301 -10 326 -34 344 -58 c 0
 360 -84 367 -109 363 -135 c 0
 360 -157 348 -177 327 -194 c 0
 306 -211 272 -220 224 -220 c 0
 187 -220 155 -213 128 -199 c 1
 139 -181 l 1
 164 -194 193 -200 227 -200 c 0
 256 -200 282 -195 304 -186 c 0
 326 -177 339 -160 343 -135 c 0
 346 -112 340 -90 323 -66 c 0
 306 -44 280 -21 245 0 c 1
 358 710 l 1
 93 710 l 1
 96 730 l 1
 645 730 l 1
 642 710 l 1
 377 710 l 1
EndSplineSet
EndChar

StartChar: uni021A
Encoding: 538 538 159
Width: 616
Flags: W
LayerCount: 2
Fore
SplineSet
358 710 m 1
 93 710 l 1
 96 730 l 1
 645 730 l 1
 642 710 l 1
 377 710 l 1
 265 0 l 1
 245 0 l 1
 358 710 l 1
120 -250 m 1
 97 -250 l 1
 249 -40 l 1
 271 -40 l 1
 120 -250 l 1
EndSplineSet
EndChar

StartChar: U
Encoding: 85 85 160
Width: 664
Flags: W
LayerCount: 2
Fore
SplineSet
106 60 m 0
 71 108 60 177 75 270 c 2
 148 730 l 1
 168 730 l 1
 95 270 l 2
 68 97 132 10 289 10 c 0
 446 10 538 97 565 270 c 2
 638 730 l 1
 658 730 l 1
 585 270 l 2
 570 177 538 108 488 60 c 0
 437 14 370 -10 286 -10 c 0
 201 -10 141 14 106 60 c 0
EndSplineSet
EndChar

StartChar: Uacute
Encoding: 218 218 161
Width: 690
Flags: W
LayerCount: 2
Fore
SplineSet
106 60 m 0
 71 108 60 177 75 270 c 2
 148 730 l 1
 168 730 l 1
 95 270 l 2
 68 97 132 10 289 10 c 0
 446 10 538 97 565 270 c 2
 638 730 l 1
 658 730 l 1
 585 270 l 2
 570 177 538 108 488 60 c 0
 437 14 370 -10 286 -10 c 0
 201 -10 141 14 106 60 c 0
388 770 m 1
 365 770 l 1
 517 980 l 1
 540 980 l 1
 388 770 l 1
EndSplineSet
EndChar

StartChar: Ubreve
Encoding: 364 364 162
Width: 690
Flags: W
LayerCount: 2
Fore
SplineSet
106 60 m 0
 71 108 60 177 75 270 c 2
 148 730 l 1
 168 730 l 1
 95 270 l 2
 68 97 132 10 289 10 c 0
 446 10 538 97 565 270 c 2
 638 730 l 1
 658 730 l 1
 585 270 l 2
 570 177 538 108 488 60 c 0
 437 14 370 -10 286 -10 c 0
 201 -10 141 14 106 60 c 0
305 838 m 0
 280 860 268 889 267 925 c 1
 287 925 l 1
 288 895 300 871 322 852 c 0
 343 834 372 825 407 825 c 0
 442 825 474 834 502 852 c 0
 529 871 548 895 559 925 c 1
 579 925 l 1
 568 889 546 860 514 838 c 0
 482 816 445 805 404 805 c 0
 363 805 330 816 305 838 c 0
EndSplineSet
EndChar

StartChar: Ucircumflex
Encoding: 219 219 163
Width: 690
Flags: W
LayerCount: 2
Fore
SplineSet
106 60 m 0
 71 108 60 177 75 270 c 2
 148 730 l 1
 168 730 l 1
 95 270 l 2
 68 97 132 10 289 10 c 0
 446 10 538 97 565 270 c 2
 638 730 l 1
 658 730 l 1
 585 270 l 2
 570 177 538 108 488 60 c 0
 437 14 370 -10 286 -10 c 0
 201 -10 141 14 106 60 c 0
420 980 m 1
 450 980 l 1
 570 770 l 1
 546 770 l 1
 434 965 l 1
 432 965 l 1
 258 770 l 1
 233 770 l 1
 420 980 l 1
EndSplineSet
EndChar

StartChar: uni0214
Encoding: 532 532 164
Width: 690
Flags: W
LayerCount: 2
Fore
SplineSet
106 60 m 0
 71 108 60 177 75 270 c 2
 148 730 l 1
 168 730 l 1
 95 270 l 2
 68 97 132 10 289 10 c 0
 446 10 538 97 565 270 c 2
 638 730 l 1
 658 730 l 1
 585 270 l 2
 570 177 538 108 488 60 c 0
 437 14 370 -10 286 -10 c 0
 201 -10 141 14 106 60 c 0
237 980 m 1
 260 980 l 1
 345 770 l 1
 323 770 l 1
 237 980 l 1
414 980 m 1
 436 980 l 1
 522 770 l 1
 499 770 l 1
 414 980 l 1
EndSplineSet
EndChar

StartChar: Udieresis
Encoding: 220 220 165
Width: 690
Flags: W
LayerCount: 2
Fore
SplineSet
106 60 m 0
 71 108 60 177 75 270 c 2
 148 730 l 1
 168 730 l 1
 95 270 l 2
 68 97 132 10 289 10 c 0
 446 10 538 97 565 270 c 2
 638 730 l 1
 658 730 l 1
 585 270 l 2
 570 177 538 108 488 60 c 0
 437 14 370 -10 286 -10 c 0
 201 -10 141 14 106 60 c 0
273 905 m 1
 331 905 l 1
 322 845 l 1
 263 845 l 1
 273 905 l 1
508 905 m 1
 567 905 l 1
 557 845 l 1
 498 845 l 1
 508 905 l 1
EndSplineSet
EndChar

StartChar: uni1EE4
Encoding: 7908 7908 166
Width: 690
Flags: W
LayerCount: 2
Fore
SplineSet
106 60 m 0
 71 108 60 177 75 270 c 2
 148 730 l 1
 168 730 l 1
 95 270 l 2
 68 97 132 10 289 10 c 0
 446 10 538 97 565 270 c 2
 638 730 l 1
 658 730 l 1
 585 270 l 2
 570 177 538 108 488 60 c 0
 437 14 370 -10 286 -10 c 0
 201 -10 141 14 106 60 c 0
260 -115 m 1
 319 -115 l 1
 309 -175 l 1
 250 -175 l 1
 260 -115 l 1
EndSplineSet
EndChar

StartChar: Ugrave
Encoding: 217 217 167
Width: 690
Flags: W
LayerCount: 2
Fore
SplineSet
106 60 m 0
 71 108 60 177 75 270 c 2
 148 730 l 1
 168 730 l 1
 95 270 l 2
 68 97 132 10 289 10 c 0
 446 10 538 97 565 270 c 2
 638 730 l 1
 658 730 l 1
 585 270 l 2
 570 177 538 108 488 60 c 0
 437 14 370 -10 286 -10 c 0
 201 -10 141 14 106 60 c 0
350 980 m 1
 373 980 l 1
 458 770 l 1
 436 770 l 1
 350 980 l 1
EndSplineSet
EndChar

StartChar: uni1EE6
Encoding: 7910 7910 168
Width: 690
Flags: W
LayerCount: 2
Fore
SplineSet
106 60 m 0
 71 108 60 177 75 270 c 2
 148 730 l 1
 168 730 l 1
 95 270 l 2
 68 97 132 10 289 10 c 0
 446 10 538 97 565 270 c 2
 638 730 l 1
 658 730 l 1
 585 270 l 2
 570 177 538 108 488 60 c 0
 437 14 370 -10 286 -10 c 0
 201 -10 141 14 106 60 c 0
554 856 m 0
 561 874 565 890 567 903 c 0
 570 923 566 937 552 944 c 0
 540 951 513 955 473 955 c 0
 434 955 394 950 354 940 c 1
 352 959 l 1
 395 970 436 975 477 975 c 0
 522 975 553 970 569 959 c 0
 585 948 591 930 587 903 c 0
 585 890 581 876 576 859 c 0
 570 842 564 828 557 815 c 1
 535 815 l 1
 542 825 548 839 554 856 c 0
EndSplineSet
EndChar

StartChar: Uhorn
Encoding: 431 431 169
Width: 710
Flags: W
LayerCount: 2
Fore
SplineSet
803 753 m 0
 798 722 788 698 770 680 c 0
 754 664 731 655 704 655 c 0
 685 655 667 659 648 668 c 1
 585 270 l 2
 570 177 538 108 488 60 c 0
 437 14 370 -10 286 -10 c 0
 202 -10 142 14 106 60 c 0
 71 108 60 177 75 270 c 2
 148 730 l 1
 168 730 l 1
 95 270 l 2
 68 97 132 10 289 10 c 0
 446 10 538 97 565 270 c 2
 638 730 l 1
 658 730 l 1
 651 690 l 1
 669 680 688 675 708 675 c 0
 751 675 776 701 784 753 c 0
 787 768 788 784 787 802 c 0
 786 818 785 833 782 845 c 1
 802 845 l 1
 807 813 808 782 803 753 c 0
EndSplineSet
EndChar

StartChar: uni1EE8
Encoding: 7912 7912 170
Width: 730
Flags: W
LayerCount: 2
Fore
SplineSet
803 753 m 0
 798 722 788 698 770 680 c 0
 754 664 731 655 704 655 c 0
 685 655 667 659 648 668 c 1
 585 270 l 2
 570 177 538 108 488 60 c 0
 437 14 370 -10 286 -10 c 0
 202 -10 142 14 106 60 c 0
 71 108 60 177 75 270 c 2
 148 730 l 1
 168 730 l 1
 95 270 l 2
 68 97 132 10 289 10 c 0
 446 10 538 97 565 270 c 2
 638 730 l 1
 658 730 l 1
 651 690 l 1
 669 680 688 675 708 675 c 0
 751 675 776 701 784 753 c 0
 787 768 788 784 787 802 c 0
 786 818 785 833 782 845 c 1
 802 845 l 1
 807 813 808 782 803 753 c 0
388 770 m 1
 365 770 l 1
 517 980 l 1
 540 980 l 1
 388 770 l 1
EndSplineSet
EndChar

StartChar: uni1EF0
Encoding: 7920 7920 171
Width: 730
Flags: W
LayerCount: 2
Fore
SplineSet
803 753 m 0
 798 722 788 698 770 680 c 0
 754 664 731 655 704 655 c 0
 685 655 667 659 648 668 c 1
 585 270 l 2
 570 177 538 108 488 60 c 0
 437 14 370 -10 286 -10 c 0
 202 -10 142 14 106 60 c 0
 71 108 60 177 75 270 c 2
 148 730 l 1
 168 730 l 1
 95 270 l 2
 68 97 132 10 289 10 c 0
 446 10 538 97 565 270 c 2
 638 730 l 1
 658 730 l 1
 651 690 l 1
 669 680 688 675 708 675 c 0
 751 675 776 701 784 753 c 0
 787 768 788 784 787 802 c 0
 786 818 785 833 782 845 c 1
 802 845 l 1
 807 813 808 782 803 753 c 0
260 -115 m 1
 319 -115 l 1
 309 -175 l 1
 250 -175 l 1
 260 -115 l 1
EndSplineSet
EndChar

StartChar: uni1EEA
Encoding: 7914 7914 172
Width: 730
Flags: W
LayerCount: 2
Fore
SplineSet
803 753 m 0
 798 722 788 698 770 680 c 0
 754 664 731 655 704 655 c 0
 685 655 667 659 648 668 c 1
 585 270 l 2
 570 177 538 108 488 60 c 0
 437 14 370 -10 286 -10 c 0
 202 -10 142 14 106 60 c 0
 71 108 60 177 75 270 c 2
 148 730 l 1
 168 730 l 1
 95 270 l 2
 68 97 132 10 289 10 c 0
 446 10 538 97 565 270 c 2
 638 730 l 1
 658 730 l 1
 651 690 l 1
 669 680 688 675 708 675 c 0
 751 675 776 701 784 753 c 0
 787 768 788 784 787 802 c 0
 786 818 785 833 782 845 c 1
 802 845 l 1
 807 813 808 782 803 753 c 0
350 980 m 1
 373 980 l 1
 458 770 l 1
 436 770 l 1
 350 980 l 1
EndSplineSet
EndChar

StartChar: uni1EEC
Encoding: 7916 7916 173
Width: 730
Flags: W
LayerCount: 2
Fore
SplineSet
803 753 m 0
 798 722 788 698 770 680 c 0
 754 664 731 655 704 655 c 0
 685 655 667 659 648 668 c 1
 585 270 l 2
 570 177 538 108 488 60 c 0
 437 14 370 -10 286 -10 c 0
 202 -10 142 14 106 60 c 0
 71 108 60 177 75 270 c 2
 148 730 l 1
 168 730 l 1
 95 270 l 2
 68 97 132 10 289 10 c 0
 446 10 538 97 565 270 c 2
 638 730 l 1
 658 730 l 1
 651 690 l 1
 669 680 688 675 708 675 c 0
 751 675 776 701 784 753 c 0
 787 768 788 784 787 802 c 0
 786 818 785 833 782 845 c 1
 802 845 l 1
 807 813 808 782 803 753 c 0
554 856 m 0
 561 874 565 890 567 903 c 0
 570 923 566 937 552 944 c 0
 540 951 513 955 473 955 c 0
 434 955 394 950 354 940 c 1
 352 959 l 1
 395 970 436 975 477 975 c 0
 522 975 553 970 569 959 c 0
 585 948 591 930 587 903 c 0
 585 890 581 876 576 859 c 0
 570 842 564 828 557 815 c 1
 535 815 l 1
 542 825 548 839 554 856 c 0
EndSplineSet
EndChar

StartChar: uni1EEE
Encoding: 7918 7918 174
Width: 730
Flags: W
LayerCount: 2
Fore
SplineSet
803 753 m 0
 798 722 788 698 770 680 c 0
 754 664 731 655 704 655 c 0
 685 655 667 659 648 668 c 1
 585 270 l 2
 570 177 538 108 488 60 c 0
 437 14 370 -10 286 -10 c 0
 202 -10 142 14 106 60 c 0
 71 108 60 177 75 270 c 2
 148 730 l 1
 168 730 l 1
 95 270 l 2
 68 97 132 10 289 10 c 0
 446 10 538 97 565 270 c 2
 638 730 l 1
 658 730 l 1
 651 690 l 1
 669 680 688 675 708 675 c 0
 751 675 776 701 784 753 c 0
 787 768 788 784 787 802 c 0
 786 818 785 833 782 845 c 1
 802 845 l 1
 807 813 808 782 803 753 c 0
409 867 m 0
 372 899 344 915 324 915 c 0
 299 915 282 885 272 825 c 1
 253 825 l 1
 259 862 268 889 280 908 c 0
 291 926 307 935 327 935 c 0
 352 935 384 918 423 883 c 0
 460 851 489 835 509 835 c 0
 534 835 551 865 560 925 c 1
 580 925 l 1
 569 852 544 815 506 815 c 0
 482 815 450 832 409 867 c 0
EndSplineSet
EndChar

StartChar: Uhungarumlaut
Encoding: 368 368 175
Width: 690
Flags: W
LayerCount: 2
Fore
SplineSet
106 60 m 0
 71 108 60 177 75 270 c 2
 148 730 l 1
 168 730 l 1
 95 270 l 2
 68 97 132 10 289 10 c 0
 446 10 538 97 565 270 c 2
 638 730 l 1
 658 730 l 1
 585 270 l 2
 570 177 538 108 488 60 c 0
 437 14 370 -10 286 -10 c 0
 201 -10 141 14 106 60 c 0
308 770 m 1
 285 770 l 1
 437 980 l 1
 460 980 l 1
 308 770 l 1
488 770 m 1
 465 770 l 1
 617 980 l 1
 640 980 l 1
 488 770 l 1
EndSplineSet
EndChar

StartChar: uni0216
Encoding: 534 534 176
Width: 690
Flags: W
LayerCount: 2
Fore
SplineSet
106 60 m 0
 71 108 60 177 75 270 c 2
 148 730 l 1
 168 730 l 1
 95 270 l 2
 68 97 132 10 289 10 c 0
 446 10 538 97 565 270 c 2
 638 730 l 1
 658 730 l 1
 585 270 l 2
 570 177 538 108 488 60 c 0
 437 14 370 -10 286 -10 c 0
 201 -10 141 14 106 60 c 0
526 912 m 0
 550 890 563 861 563 825 c 1
 544 825 l 1
 543 855 531 879 509 898 c 0
 487 916 458 925 423 925 c 0
 388 925 356 916 328 898 c 0
 301 879 282 855 271 825 c 1
 252 825 l 1
 263 861 285 890 317 912 c 0
 349 934 385 945 426 945 c 0
 467 945 500 934 526 912 c 0
EndSplineSet
EndChar

StartChar: Umacron
Encoding: 362 362 177
Width: 690
Flags: W
LayerCount: 2
Fore
SplineSet
106 60 m 0
 71 108 60 177 75 270 c 2
 148 730 l 1
 168 730 l 1
 95 270 l 2
 68 97 132 10 289 10 c 0
 446 10 538 97 565 270 c 2
 638 730 l 1
 658 730 l 1
 585 270 l 2
 570 177 538 108 488 60 c 0
 437 14 370 -10 286 -10 c 0
 201 -10 141 14 106 60 c 0
245 885 m 1
 573 885 l 1
 570 865 l 1
 242 865 l 1
 245 885 l 1
EndSplineSet
EndChar

StartChar: Uogonek
Encoding: 370 370 178
Width: 664
Flags: W
LayerCount: 2
Fore
SplineSet
292 -62 m 0
 271 -83 258 -104 255 -125 c 0
 251 -150 258 -167 278 -176 c 0
 296 -185 321 -190 350 -190 c 0
 384 -190 415 -184 444 -171 c 1
 449 -189 l 1
 418 -203 384 -210 347 -210 c 0
 298 -210 267 -201 252 -184 c 0
 237 -167 232 -147 235 -125 c 0
 238 -105 248 -85 264 -65 c 0
 280 -45 302 -26 329 -8 c 1
 310 -9 296 -10 286 -10 c 0
 202 -10 142 14 106 60 c 0
 71 108 60 177 75 270 c 2
 148 730 l 1
 168 730 l 1
 95 270 l 2
 68 97 132 10 289 10 c 0
 446 10 538 97 565 270 c 2
 638 730 l 1
 658 730 l 1
 585 270 l 2
 574 197 550 137 516 92 c 0
 480 47 435 17 380 2 c 1
 343 -19 313 -40 292 -62 c 0
EndSplineSet
EndChar

StartChar: Uring
Encoding: 366 366 179
Width: 690
Flags: W
LayerCount: 2
Fore
SplineSet
106 60 m 0
 71 108 60 177 75 270 c 2
 148 730 l 1
 168 730 l 1
 95 270 l 2
 68 97 132 10 289 10 c 0
 446 10 538 97 565 270 c 2
 638 730 l 1
 658 730 l 1
 585 270 l 2
 570 177 538 108 488 60 c 0
 437 14 370 -10 286 -10 c 0
 201 -10 141 14 106 60 c 0
307 772 m 0
 287 796 280 825 285 860 c 0
 290 895 307 924 335 948 c 0
 363 973 394 985 428 985 c 0
 462 985 489 973 509 948 c 0
 529 924 536 895 530 860 c 0
 525 825 508 796 480 772 c 0
 453 747 422 735 388 735 c 0
 354 735 327 747 307 772 c 0
468 786 m 0
 492 807 506 831 511 860 c 0
 516 889 510 914 492 934 c 0
 476 955 453 965 425 965 c 0
 396 965 370 955 347 934 c 0
 324 914 310 889 305 860 c 0
 300 831 306 807 323 786 c 0
 340 765 362 755 391 755 c 0
 419 755 445 765 468 786 c 0
EndSplineSet
EndChar

StartChar: Utilde
Encoding: 360 360 180
Width: 690
Flags: W
LayerCount: 2
Fore
SplineSet
106 60 m 0
 71 108 60 177 75 270 c 2
 148 730 l 1
 168 730 l 1
 95 270 l 2
 68 97 132 10 289 10 c 0
 446 10 538 97 565 270 c 2
 638 730 l 1
 658 730 l 1
 585 270 l 2
 570 177 538 108 488 60 c 0
 437 14 370 -10 286 -10 c 0
 201 -10 141 14 106 60 c 0
409 867 m 0
 372 899 344 915 324 915 c 0
 299 915 282 885 272 825 c 1
 253 825 l 1
 259 862 268 889 280 908 c 0
 291 926 307 935 327 935 c 0
 352 935 384 918 423 883 c 0
 460 851 489 835 509 835 c 0
 534 835 551 865 560 925 c 1
 580 925 l 1
 569 852 544 815 506 815 c 0
 482 815 450 832 409 867 c 0
EndSplineSet
EndChar

StartChar: V
Encoding: 86 86 181
Width: 632
Flags: W
LayerCount: 2
Fore
SplineSet
88 730 m 1
 109 730 l 1
 273 20 l 1
 275 20 l 1
 664 730 l 1
 686 730 l 1
 286 0 l 1
 256 0 l 1
 88 730 l 1
EndSplineSet
EndChar

StartChar: W
Encoding: 87 87 182
Width: 867
Flags: W
LayerCount: 2
Fore
SplineSet
503 713 m 1
 501 713 l 1
 199 0 l 1
 168 0 l 1
 98 730 l 1
 119 730 l 1
 185 17 l 1
 187 17 l 1
 489 730 l 1
 520 730 l 1
 597 17 l 1
 598 17 l 1
 891 730 l 1
 911 730 l 1
 610 0 l 1
 579 0 l 1
 503 713 l 1
EndSplineSet
EndChar

StartChar: Wacute
Encoding: 7810 7810 183
Width: 890
Flags: W
LayerCount: 2
Fore
SplineSet
503 713 m 1
 501 713 l 1
 199 0 l 1
 168 0 l 1
 98 730 l 1
 119 730 l 1
 185 17 l 1
 187 17 l 1
 489 730 l 1
 520 730 l 1
 597 17 l 1
 598 17 l 1
 891 730 l 1
 911 730 l 1
 610 0 l 1
 579 0 l 1
 503 713 l 1
488 770 m 1
 465 770 l 1
 617 980 l 1
 640 980 l 1
 488 770 l 1
EndSplineSet
EndChar

StartChar: Wcircumflex
Encoding: 372 372 184
Width: 890
Flags: W
LayerCount: 2
Fore
SplineSet
503 713 m 1
 501 713 l 1
 199 0 l 1
 168 0 l 1
 98 730 l 1
 119 730 l 1
 185 17 l 1
 187 17 l 1
 489 730 l 1
 520 730 l 1
 597 17 l 1
 598 17 l 1
 891 730 l 1
 911 730 l 1
 610 0 l 1
 579 0 l 1
 503 713 l 1
520 980 m 1
 550 980 l 1
 670 770 l 1
 646 770 l 1
 534 965 l 1
 532 965 l 1
 358 770 l 1
 333 770 l 1
 520 980 l 1
EndSplineSet
EndChar

StartChar: Wdieresis
Encoding: 7812 7812 185
Width: 890
Flags: W
LayerCount: 2
Fore
SplineSet
503 713 m 1
 501 713 l 1
 199 0 l 1
 168 0 l 1
 98 730 l 1
 119 730 l 1
 185 17 l 1
 187 17 l 1
 489 730 l 1
 520 730 l 1
 597 17 l 1
 598 17 l 1
 891 730 l 1
 911 730 l 1
 610 0 l 1
 579 0 l 1
 503 713 l 1
373 905 m 1
 431 905 l 1
 422 845 l 1
 363 845 l 1
 373 905 l 1
608 905 m 1
 667 905 l 1
 657 845 l 1
 598 845 l 1
 608 905 l 1
EndSplineSet
EndChar

StartChar: Wgrave
Encoding: 7808 7808 186
Width: 890
Flags: W
LayerCount: 2
Fore
SplineSet
503 713 m 1
 501 713 l 1
 199 0 l 1
 168 0 l 1
 98 730 l 1
 119 730 l 1
 185 17 l 1
 187 17 l 1
 489 730 l 1
 520 730 l 1
 597 17 l 1
 598 17 l 1
 891 730 l 1
 911 730 l 1
 610 0 l 1
 579 0 l 1
 503 713 l 1
450 980 m 1
 473 980 l 1
 558 770 l 1
 536 770 l 1
 450 980 l 1
EndSplineSet
EndChar

StartChar: X
Encoding: 88 88 187
Width: 665
Flags: W
LayerCount: 2
Fore
SplineSet
334 369 m 1
 135 730 l 1
 159 730 l 1
 348 387 l 1
 350 387 l 1
 647 730 l 1
 672 730 l 1
 358 369 l 1
 562 0 l 1
 538 0 l 1
 344 352 l 1
 342 352 l 1
 38 0 l 1
 13 0 l 1
 334 369 l 1
EndSplineSet
EndChar

StartChar: Y
Encoding: 89 89 188
Width: 608
Flags: W
LayerCount: 2
Fore
SplineSet
299 317 m 1
 81 730 l 1
 104 730 l 1
 312 338 l 1
 314 338 l 1
 645 730 l 1
 669 730 l 1
 319 317 l 1
 269 0 l 1
 249 0 l 1
 299 317 l 1
EndSplineSet
EndChar

StartChar: Yacute
Encoding: 221 221 189
Width: 622
Flags: W
LayerCount: 2
Fore
SplineSet
299 317 m 1
 81 730 l 1
 104 730 l 1
 312 338 l 1
 314 338 l 1
 645 730 l 1
 669 730 l 1
 319 317 l 1
 269 0 l 1
 249 0 l 1
 299 317 l 1
354 770 m 1
 331 770 l 1
 483 980 l 1
 506 980 l 1
 354 770 l 1
EndSplineSet
EndChar

StartChar: Ycircumflex
Encoding: 374 374 190
Width: 622
Flags: W
LayerCount: 2
Fore
SplineSet
299 317 m 1
 81 730 l 1
 104 730 l 1
 312 338 l 1
 314 338 l 1
 645 730 l 1
 669 730 l 1
 319 317 l 1
 269 0 l 1
 249 0 l 1
 299 317 l 1
386 980 m 1
 416 980 l 1
 536 770 l 1
 512 770 l 1
 400 965 l 1
 398 965 l 1
 224 770 l 1
 199 770 l 1
 386 980 l 1
EndSplineSet
EndChar

StartChar: Ydieresis
Encoding: 376 376 191
Width: 622
Flags: W
LayerCount: 2
Fore
SplineSet
299 317 m 1
 81 730 l 1
 104 730 l 1
 312 338 l 1
 314 338 l 1
 645 730 l 1
 669 730 l 1
 319 317 l 1
 269 0 l 1
 249 0 l 1
 299 317 l 1
239 905 m 1
 297 905 l 1
 288 845 l 1
 229 845 l 1
 239 905 l 1
474 905 m 1
 533 905 l 1
 523 845 l 1
 464 845 l 1
 474 905 l 1
EndSplineSet
EndChar

StartChar: uni1EF4
Encoding: 7924 7924 192
Width: 622
Flags: W
LayerCount: 2
Fore
SplineSet
299 317 m 1
 81 730 l 1
 104 730 l 1
 312 338 l 1
 314 338 l 1
 645 730 l 1
 669 730 l 1
 319 317 l 1
 269 0 l 1
 249 0 l 1
 299 317 l 1
226 -115 m 1
 285 -115 l 1
 275 -175 l 1
 216 -175 l 1
 226 -115 l 1
EndSplineSet
EndChar

StartChar: Ygrave
Encoding: 7922 7922 193
Width: 622
Flags: W
LayerCount: 2
Fore
SplineSet
299 317 m 1
 81 730 l 1
 104 730 l 1
 312 338 l 1
 314 338 l 1
 645 730 l 1
 669 730 l 1
 319 317 l 1
 269 0 l 1
 249 0 l 1
 299 317 l 1
316 980 m 1
 339 980 l 1
 424 770 l 1
 402 770 l 1
 316 980 l 1
EndSplineSet
EndChar

StartChar: uni1EF6
Encoding: 7926 7926 194
Width: 622
Flags: W
LayerCount: 2
Fore
SplineSet
299 317 m 1
 81 730 l 1
 104 730 l 1
 312 338 l 1
 314 338 l 1
 645 730 l 1
 669 730 l 1
 319 317 l 1
 269 0 l 1
 249 0 l 1
 299 317 l 1
520 856 m 0
 527 874 531 890 533 903 c 0
 536 923 532 937 518 944 c 0
 506 951 479 955 439 955 c 0
 400 955 360 950 320 940 c 1
 318 959 l 1
 361 970 402 975 443 975 c 0
 488 975 519 970 535 959 c 0
 551 948 557 930 553 903 c 0
 551 890 547 876 542 859 c 0
 536 842 530 828 523 815 c 1
 501 815 l 1
 508 825 514 839 520 856 c 0
EndSplineSet
EndChar

StartChar: uni0232
Encoding: 562 562 195
Width: 622
Flags: W
LayerCount: 2
Fore
SplineSet
299 317 m 1
 81 730 l 1
 104 730 l 1
 312 338 l 1
 314 338 l 1
 645 730 l 1
 669 730 l 1
 319 317 l 1
 269 0 l 1
 249 0 l 1
 299 317 l 1
211 885 m 1
 539 885 l 1
 536 865 l 1
 208 865 l 1
 211 885 l 1
EndSplineSet
EndChar

StartChar: uni1EF8
Encoding: 7928 7928 196
Width: 622
Flags: W
LayerCount: 2
Fore
SplineSet
299 317 m 1
 81 730 l 1
 104 730 l 1
 312 338 l 1
 314 338 l 1
 645 730 l 1
 669 730 l 1
 319 317 l 1
 269 0 l 1
 249 0 l 1
 299 317 l 1
375 867 m 0
 338 899 310 915 290 915 c 0
 265 915 248 885 238 825 c 1
 219 825 l 1
 225 862 234 889 246 908 c 0
 257 926 273 935 293 935 c 0
 318 935 350 918 389 883 c 0
 426 851 455 835 475 835 c 0
 500 835 517 865 526 925 c 1
 546 925 l 1
 535 852 510 815 472 815 c 0
 448 815 416 832 375 867 c 0
EndSplineSet
EndChar

StartChar: Z
Encoding: 90 90 197
Width: 608
Flags: W
LayerCount: 2
Fore
SplineSet
27 20 m 1
 581 708 l 1
 582 710 l 1
 137 710 l 1
 140 730 l 1
 610 730 l 1
 607 710 l 1
 53 22 l 1
 53 20 l 1
 498 20 l 1
 495 0 l 1
 24 0 l 1
 27 20 l 1
EndSplineSet
EndChar

StartChar: Zacute
Encoding: 377 377 198
Width: 632
Flags: W
LayerCount: 2
Fore
SplineSet
27 20 m 1
 581 708 l 1
 582 710 l 1
 137 710 l 1
 140 730 l 1
 610 730 l 1
 607 710 l 1
 53 22 l 1
 53 20 l 1
 498 20 l 1
 495 0 l 1
 24 0 l 1
 27 20 l 1
359 770 m 1
 336 770 l 1
 488 980 l 1
 511 980 l 1
 359 770 l 1
EndSplineSet
EndChar

StartChar: Zcaron
Encoding: 381 381 199
Width: 632
Flags: W
LayerCount: 2
Fore
SplineSet
27 20 m 1
 581 708 l 1
 582 710 l 1
 137 710 l 1
 140 730 l 1
 610 730 l 1
 607 710 l 1
 53 22 l 1
 53 20 l 1
 498 20 l 1
 495 0 l 1
 24 0 l 1
 27 20 l 1
238 980 m 1
 262 980 l 1
 374 785 l 1
 376 785 l 1
 550 980 l 1
 575 980 l 1
 388 770 l 1
 358 770 l 1
 238 980 l 1
EndSplineSet
EndChar

StartChar: Zdotaccent
Encoding: 379 379 200
Width: 632
Flags: W
LayerCount: 2
Fore
SplineSet
27 20 m 1
 581 708 l 1
 582 710 l 1
 137 710 l 1
 140 730 l 1
 610 730 l 1
 607 710 l 1
 53 22 l 1
 53 20 l 1
 498 20 l 1
 495 0 l 1
 24 0 l 1
 27 20 l 1
392 905 m 1
 451 905 l 1
 441 845 l 1
 382 845 l 1
 392 905 l 1
EndSplineSet
EndChar

StartChar: a
Encoding: 97 97 201
Width: 480
Flags: W
LayerCount: 2
Fore
SplineSet
404 484 m 0
 424 453 429 402 418 330 c 2
 366 0 l 1
 347 0 l 1
 365 116 l 1
 363 116 l 1
 340 77 309 47 270 24 c 0
 232 1 191 -10 147 -10 c 0
 98 -10 61 4 36 31 c 0
 10 58 1 95 8 140 c 0
 17 199 51 245 108 277 c 0
 165 309 242 325 338 325 c 2
 398 325 l 1
 399 330 l 2
 406 375 407 410 402 436 c 0
 396 462 383 481 363 492 c 0
 343 504 314 510 277 510 c 0
 212 510 148 494 86 462 c 1
 81 480 l 1
 146 513 213 530 280 530 c 0
 341 530 382 515 404 484 c 0
256 36 m 0
 288 53 316 77 338 108 c 0
 360 138 374 172 380 210 c 2
 395 305 l 1
 335 305 l 2
 244 305 172 291 120 262 c 0
 66 234 36 193 27 140 c 0
 21 101 29 69 51 46 c 0
 73 22 106 10 150 10 c 0
 187 10 222 19 256 36 c 0
EndSplineSet
EndChar

StartChar: aacute
Encoding: 225 225 202
Width: 511
Flags: W
LayerCount: 2
Fore
SplineSet
404 484 m 0
 424 453 429 402 418 330 c 2
 366 0 l 1
 347 0 l 1
 365 116 l 1
 363 116 l 1
 340 77 309 47 270 24 c 0
 232 1 191 -10 147 -10 c 0
 98 -10 61 4 36 31 c 0
 10 58 1 95 8 140 c 0
 17 199 51 245 108 277 c 0
 165 309 242 325 338 325 c 2
 398 325 l 1
 399 330 l 2
 406 375 407 410 402 436 c 0
 396 462 383 481 363 492 c 0
 343 504 314 510 277 510 c 0
 212 510 148 494 86 462 c 1
 81 480 l 1
 146 513 213 530 280 530 c 0
 341 530 382 515 404 484 c 0
256 36 m 0
 288 53 316 77 338 108 c 0
 360 138 374 172 380 210 c 2
 395 305 l 1
 335 305 l 2
 244 305 172 291 120 262 c 0
 66 234 36 193 27 140 c 0
 21 101 29 69 51 46 c 0
 73 22 106 10 150 10 c 0
 187 10 222 19 256 36 c 0
250 560 m 1
 227 560 l 1
 379 770 l 1
 402 770 l 1
 250 560 l 1
EndSplineSet
EndChar

StartChar: abreve
Encoding: 259 259 203
Width: 511
Flags: W
LayerCount: 2
Fore
SplineSet
404 484 m 0
 424 453 429 402 418 330 c 2
 366 0 l 1
 347 0 l 1
 365 116 l 1
 363 116 l 1
 340 77 309 47 270 24 c 0
 232 1 191 -10 147 -10 c 0
 98 -10 61 4 36 31 c 0
 10 58 1 95 8 140 c 0
 17 199 51 245 108 277 c 0
 165 309 242 325 338 325 c 2
 398 325 l 1
 399 330 l 2
 406 375 407 410 402 436 c 0
 396 462 383 481 363 492 c 0
 343 504 314 510 277 510 c 0
 212 510 148 494 86 462 c 1
 81 480 l 1
 146 513 213 530 280 530 c 0
 341 530 382 515 404 484 c 0
256 36 m 0
 288 53 316 77 338 108 c 0
 360 138 374 172 380 210 c 2
 395 305 l 1
 335 305 l 2
 244 305 172 291 120 262 c 0
 66 234 36 193 27 140 c 0
 21 101 29 69 51 46 c 0
 73 22 106 10 150 10 c 0
 187 10 222 19 256 36 c 0
167 628 m 0
 142 650 130 679 129 715 c 1
 149 715 l 1
 150 685 162 661 184 642 c 0
 205 624 234 615 269 615 c 0
 304 615 336 624 364 642 c 0
 391 661 410 685 421 715 c 1
 441 715 l 1
 430 679 408 650 376 628 c 0
 344 606 307 595 266 595 c 0
 225 595 192 606 167 628 c 0
EndSplineSet
EndChar

StartChar: uni1EAF
Encoding: 7855 7855 204
Width: 511
Flags: W
LayerCount: 2
Fore
SplineSet
404 484 m 0
 424 453 429 402 418 330 c 2
 366 0 l 1
 347 0 l 1
 365 116 l 1
 363 116 l 1
 340 77 309 47 270 24 c 0
 232 1 191 -10 147 -10 c 0
 98 -10 61 4 36 31 c 0
 10 58 1 95 8 140 c 0
 17 199 51 245 108 277 c 0
 165 309 242 325 338 325 c 2
 398 325 l 1
 399 330 l 2
 406 375 407 410 402 436 c 0
 396 462 383 481 363 492 c 0
 343 504 314 510 277 510 c 0
 212 510 148 494 86 462 c 1
 81 480 l 1
 146 513 213 530 280 530 c 0
 341 530 382 515 404 484 c 0
256 36 m 0
 288 53 316 77 338 108 c 0
 360 138 374 172 380 210 c 2
 395 305 l 1
 335 305 l 2
 244 305 172 291 120 262 c 0
 66 234 36 193 27 140 c 0
 21 101 29 69 51 46 c 0
 73 22 106 10 150 10 c 0
 187 10 222 19 256 36 c 0
167 628 m 0
 142 650 130 679 129 715 c 1
 149 715 l 1
 150 685 162 661 184 642 c 0
 205 624 234 615 269 615 c 0
 304 615 336 624 364 642 c 0
 391 661 410 685 421 715 c 1
 441 715 l 1
 430 679 408 650 376 628 c 0
 344 606 307 595 266 595 c 0
 225 595 192 606 167 628 c 0
272 700 m 1
 249 700 l 1
 401 910 l 1
 424 910 l 1
 272 700 l 1
EndSplineSet
EndChar

StartChar: uni1EB7
Encoding: 7863 7863 205
Width: 511
Flags: W
LayerCount: 2
Fore
SplineSet
404 484 m 0
 424 453 429 402 418 330 c 2
 366 0 l 1
 347 0 l 1
 365 116 l 1
 363 116 l 1
 340 77 309 47 270 24 c 0
 232 1 191 -10 147 -10 c 0
 98 -10 61 4 36 31 c 0
 10 58 1 95 8 140 c 0
 17 199 51 245 108 277 c 0
 165 309 242 325 338 325 c 2
 398 325 l 1
 399 330 l 2
 406 375 407 410 402 436 c 0
 396 462 383 481 363 492 c 0
 343 504 314 510 277 510 c 0
 212 510 148 494 86 462 c 1
 81 480 l 1
 146 513 213 530 280 530 c 0
 341 530 382 515 404 484 c 0
256 36 m 0
 288 53 316 77 338 108 c 0
 360 138 374 172 380 210 c 2
 395 305 l 1
 335 305 l 2
 244 305 172 291 120 262 c 0
 66 234 36 193 27 140 c 0
 21 101 29 69 51 46 c 0
 73 22 106 10 150 10 c 0
 187 10 222 19 256 36 c 0
155 -115 m 1
 214 -115 l 1
 204 -175 l 1
 145 -175 l 1
 155 -115 l 1
167 628 m 0
 142 650 130 679 129 715 c 1
 149 715 l 1
 150 685 162 661 184 642 c 0
 205 624 234 615 269 615 c 0
 304 615 336 624 364 642 c 0
 391 661 410 685 421 715 c 1
 441 715 l 1
 430 679 408 650 376 628 c 0
 344 606 307 595 266 595 c 0
 225 595 192 606 167 628 c 0
EndSplineSet
EndChar

StartChar: uni1EB1
Encoding: 7857 7857 206
Width: 511
Flags: W
LayerCount: 2
Fore
SplineSet
404 484 m 0
 424 453 429 402 418 330 c 2
 366 0 l 1
 347 0 l 1
 365 116 l 1
 363 116 l 1
 340 77 309 47 270 24 c 0
 232 1 191 -10 147 -10 c 0
 98 -10 61 4 36 31 c 0
 10 58 1 95 8 140 c 0
 17 199 51 245 108 277 c 0
 165 309 242 325 338 325 c 2
 398 325 l 1
 399 330 l 2
 406 375 407 410 402 436 c 0
 396 462 383 481 363 492 c 0
 343 504 314 510 277 510 c 0
 212 510 148 494 86 462 c 1
 81 480 l 1
 146 513 213 530 280 530 c 0
 341 530 382 515 404 484 c 0
256 36 m 0
 288 53 316 77 338 108 c 0
 360 138 374 172 380 210 c 2
 395 305 l 1
 335 305 l 2
 244 305 172 291 120 262 c 0
 66 234 36 193 27 140 c 0
 21 101 29 69 51 46 c 0
 73 22 106 10 150 10 c 0
 187 10 222 19 256 36 c 0
167 628 m 0
 142 650 130 679 129 715 c 1
 149 715 l 1
 150 685 162 661 184 642 c 0
 205 624 234 615 269 615 c 0
 304 615 336 624 364 642 c 0
 391 661 410 685 421 715 c 1
 441 715 l 1
 430 679 408 650 376 628 c 0
 344 606 307 595 266 595 c 0
 225 595 192 606 167 628 c 0
234 910 m 1
 257 910 l 1
 342 700 l 1
 320 700 l 1
 234 910 l 1
EndSplineSet
EndChar

StartChar: uni1EB3
Encoding: 7859 7859 207
Width: 511
Flags: W
LayerCount: 2
Fore
SplineSet
404 484 m 0
 424 453 429 402 418 330 c 2
 366 0 l 1
 347 0 l 1
 365 116 l 1
 363 116 l 1
 340 77 309 47 270 24 c 0
 232 1 191 -10 147 -10 c 0
 98 -10 61 4 36 31 c 0
 10 58 1 95 8 140 c 0
 17 199 51 245 108 277 c 0
 165 309 242 325 338 325 c 2
 398 325 l 1
 399 330 l 2
 406 375 407 410 402 436 c 0
 396 462 383 481 363 492 c 0
 343 504 314 510 277 510 c 0
 212 510 148 494 86 462 c 1
 81 480 l 1
 146 513 213 530 280 530 c 0
 341 530 382 515 404 484 c 0
256 36 m 0
 288 53 316 77 338 108 c 0
 360 138 374 172 380 210 c 2
 395 305 l 1
 335 305 l 2
 244 305 172 291 120 262 c 0
 66 234 36 193 27 140 c 0
 21 101 29 69 51 46 c 0
 73 22 106 10 150 10 c 0
 187 10 222 19 256 36 c 0
167 628 m 0
 142 650 130 679 129 715 c 1
 149 715 l 1
 150 685 162 661 184 642 c 0
 205 624 234 615 269 615 c 0
 304 615 336 624 364 642 c 0
 391 661 410 685 421 715 c 1
 441 715 l 1
 430 679 408 650 376 628 c 0
 344 606 307 595 266 595 c 0
 225 595 192 606 167 628 c 0
432 746 m 0
 439 764 443 780 445 793 c 0
 448 813 444 827 430 834 c 0
 418 841 391 845 351 845 c 0
 312 845 272 840 232 830 c 1
 230 849 l 1
 273 860 314 865 355 865 c 0
 400 865 431 860 447 849 c 0
 463 838 469 820 465 793 c 0
 463 780 459 766 454 749 c 0
 448 732 442 718 435 705 c 1
 413 705 l 1
 420 715 426 729 432 746 c 0
EndSplineSet
EndChar

StartChar: uni1EB5
Encoding: 7861 7861 208
Width: 511
Flags: W
LayerCount: 2
Fore
SplineSet
404 484 m 0
 424 453 429 402 418 330 c 2
 366 0 l 1
 347 0 l 1
 365 116 l 1
 363 116 l 1
 340 77 309 47 270 24 c 0
 232 1 191 -10 147 -10 c 0
 98 -10 61 4 36 31 c 0
 10 58 1 95 8 140 c 0
 17 199 51 245 108 277 c 0
 165 309 242 325 338 325 c 2
 398 325 l 1
 399 330 l 2
 406 375 407 410 402 436 c 0
 396 462 383 481 363 492 c 0
 343 504 314 510 277 510 c 0
 212 510 148 494 86 462 c 1
 81 480 l 1
 146 513 213 530 280 530 c 0
 341 530 382 515 404 484 c 0
256 36 m 0
 288 53 316 77 338 108 c 0
 360 138 374 172 380 210 c 2
 395 305 l 1
 335 305 l 2
 244 305 172 291 120 262 c 0
 66 234 36 193 27 140 c 0
 21 101 29 69 51 46 c 0
 73 22 106 10 150 10 c 0
 187 10 222 19 256 36 c 0
167 628 m 0
 142 650 130 679 129 715 c 1
 149 715 l 1
 150 685 162 661 184 642 c 0
 205 624 234 615 269 615 c 0
 304 615 336 624 364 642 c 0
 391 661 410 685 421 715 c 1
 441 715 l 1
 430 679 408 650 376 628 c 0
 344 606 307 595 266 595 c 0
 225 595 192 606 167 628 c 0
298 827 m 0
 261 859 233 875 213 875 c 0
 188 875 171 845 161 785 c 1
 142 785 l 1
 148 822 157 849 168 868 c 0
 180 886 196 895 216 895 c 0
 241 895 273 878 312 843 c 0
 349 811 378 795 398 795 c 0
 423 795 440 825 449 885 c 1
 469 885 l 1
 458 812 433 775 395 775 c 0
 371 775 339 792 298 827 c 0
EndSplineSet
EndChar

StartChar: acircumflex
Encoding: 226 226 209
Width: 511
Flags: W
LayerCount: 2
Fore
SplineSet
404 484 m 0
 424 453 429 402 418 330 c 2
 366 0 l 1
 347 0 l 1
 365 116 l 1
 363 116 l 1
 340 77 309 47 270 24 c 0
 232 1 191 -10 147 -10 c 0
 98 -10 61 4 36 31 c 0
 10 58 1 95 8 140 c 0
 17 199 51 245 108 277 c 0
 165 309 242 325 338 325 c 2
 398 325 l 1
 399 330 l 2
 406 375 407 410 402 436 c 0
 396 462 383 481 363 492 c 0
 343 504 314 510 277 510 c 0
 212 510 148 494 86 462 c 1
 81 480 l 1
 146 513 213 530 280 530 c 0
 341 530 382 515 404 484 c 0
256 36 m 0
 288 53 316 77 338 108 c 0
 360 138 374 172 380 210 c 2
 395 305 l 1
 335 305 l 2
 244 305 172 291 120 262 c 0
 66 234 36 193 27 140 c 0
 21 101 29 69 51 46 c 0
 73 22 106 10 150 10 c 0
 187 10 222 19 256 36 c 0
282 770 m 1
 312 770 l 1
 432 560 l 1
 408 560 l 1
 296 755 l 1
 294 755 l 1
 120 560 l 1
 95 560 l 1
 282 770 l 1
EndSplineSet
EndChar

StartChar: uni1EA5
Encoding: 7845 7845 210
Width: 511
Flags: W
LayerCount: 2
Fore
SplineSet
404 484 m 0
 424 453 429 402 418 330 c 2
 366 0 l 1
 347 0 l 1
 365 116 l 1
 363 116 l 1
 340 77 309 47 270 24 c 0
 232 1 191 -10 147 -10 c 0
 98 -10 61 4 36 31 c 0
 10 58 1 95 8 140 c 0
 17 199 51 245 108 277 c 0
 165 309 242 325 338 325 c 2
 398 325 l 1
 399 330 l 2
 406 375 407 410 402 436 c 0
 396 462 383 481 363 492 c 0
 343 504 314 510 277 510 c 0
 212 510 148 494 86 462 c 1
 81 480 l 1
 146 513 213 530 280 530 c 0
 341 530 382 515 404 484 c 0
256 36 m 0
 288 53 316 77 338 108 c 0
 360 138 374 172 380 210 c 2
 395 305 l 1
 335 305 l 2
 244 305 172 291 120 262 c 0
 66 234 36 193 27 140 c 0
 21 101 29 69 51 46 c 0
 73 22 106 10 150 10 c 0
 187 10 222 19 256 36 c 0
282 770 m 1
 312 770 l 1
 432 560 l 1
 408 560 l 1
 296 755 l 1
 294 755 l 1
 120 560 l 1
 95 560 l 1
 282 770 l 1
423 740 m 1
 400 740 l 1
 552 950 l 1
 575 950 l 1
 423 740 l 1
EndSplineSet
EndChar

StartChar: uni1EAD
Encoding: 7853 7853 211
Width: 511
Flags: W
LayerCount: 2
Fore
SplineSet
404 484 m 0
 424 453 429 402 418 330 c 2
 366 0 l 1
 347 0 l 1
 365 116 l 1
 363 116 l 1
 340 77 309 47 270 24 c 0
 232 1 191 -10 147 -10 c 0
 98 -10 61 4 36 31 c 0
 10 58 1 95 8 140 c 0
 17 199 51 245 108 277 c 0
 165 309 242 325 338 325 c 2
 398 325 l 1
 399 330 l 2
 406 375 407 410 402 436 c 0
 396 462 383 481 363 492 c 0
 343 504 314 510 277 510 c 0
 212 510 148 494 86 462 c 1
 81 480 l 1
 146 513 213 530 280 530 c 0
 341 530 382 515 404 484 c 0
256 36 m 0
 288 53 316 77 338 108 c 0
 360 138 374 172 380 210 c 2
 395 305 l 1
 335 305 l 2
 244 305 172 291 120 262 c 0
 66 234 36 193 27 140 c 0
 21 101 29 69 51 46 c 0
 73 22 106 10 150 10 c 0
 187 10 222 19 256 36 c 0
155 -115 m 1
 214 -115 l 1
 204 -175 l 1
 145 -175 l 1
 155 -115 l 1
282 770 m 1
 312 770 l 1
 432 560 l 1
 408 560 l 1
 296 755 l 1
 294 755 l 1
 120 560 l 1
 95 560 l 1
 282 770 l 1
EndSplineSet
EndChar

StartChar: uni1EA7
Encoding: 7847 7847 212
Width: 511
Flags: W
LayerCount: 2
Fore
SplineSet
404 484 m 0
 424 453 429 402 418 330 c 2
 366 0 l 1
 347 0 l 1
 365 116 l 1
 363 116 l 1
 340 77 309 47 270 24 c 0
 232 1 191 -10 147 -10 c 0
 98 -10 61 4 36 31 c 0
 10 58 1 95 8 140 c 0
 17 199 51 245 108 277 c 0
 165 309 242 325 338 325 c 2
 398 325 l 1
 399 330 l 2
 406 375 407 410 402 436 c 0
 396 462 383 481 363 492 c 0
 343 504 314 510 277 510 c 0
 212 510 148 494 86 462 c 1
 81 480 l 1
 146 513 213 530 280 530 c 0
 341 530 382 515 404 484 c 0
256 36 m 0
 288 53 316 77 338 108 c 0
 360 138 374 172 380 210 c 2
 395 305 l 1
 335 305 l 2
 244 305 172 291 120 262 c 0
 66 234 36 193 27 140 c 0
 21 101 29 69 51 46 c 0
 73 22 106 10 150 10 c 0
 187 10 222 19 256 36 c 0
282 770 m 1
 312 770 l 1
 432 560 l 1
 408 560 l 1
 296 755 l 1
 294 755 l 1
 120 560 l 1
 95 560 l 1
 282 770 l 1
97 950 m 1
 120 950 l 1
 205 740 l 1
 183 740 l 1
 97 950 l 1
EndSplineSet
EndChar

StartChar: uni1EA9
Encoding: 7849 7849 213
Width: 511
Flags: W
LayerCount: 2
Fore
SplineSet
404 484 m 0
 424 453 429 402 418 330 c 2
 366 0 l 1
 347 0 l 1
 365 116 l 1
 363 116 l 1
 340 77 309 47 270 24 c 0
 232 1 191 -10 147 -10 c 0
 98 -10 61 4 36 31 c 0
 10 58 1 95 8 140 c 0
 17 199 51 245 108 277 c 0
 165 309 242 325 338 325 c 2
 398 325 l 1
 399 330 l 2
 406 375 407 410 402 436 c 0
 396 462 383 481 363 492 c 0
 343 504 314 510 277 510 c 0
 212 510 148 494 86 462 c 1
 81 480 l 1
 146 513 213 530 280 530 c 0
 341 530 382 515 404 484 c 0
256 36 m 0
 288 53 316 77 338 108 c 0
 360 138 374 172 380 210 c 2
 395 305 l 1
 335 305 l 2
 244 305 172 291 120 262 c 0
 66 234 36 193 27 140 c 0
 21 101 29 69 51 46 c 0
 73 22 106 10 150 10 c 0
 187 10 222 19 256 36 c 0
282 770 m 1
 312 770 l 1
 432 560 l 1
 408 560 l 1
 296 755 l 1
 294 755 l 1
 120 560 l 1
 95 560 l 1
 282 770 l 1
472 776 m 0
 478 794 482 810 484 823 c 0
 487 843 482 857 470 864 c 0
 456 871 430 875 390 875 c 0
 351 875 311 870 271 860 c 1
 269 879 l 1
 312 890 353 895 394 895 c 0
 439 895 470 890 486 879 c 0
 502 868 508 850 504 823 c 0
 502 810 498 796 492 779 c 0
 487 762 481 748 474 735 c 1
 452 735 l 1
 459 745 465 759 472 776 c 0
EndSplineSet
EndChar

StartChar: uni1EAB
Encoding: 7851 7851 214
Width: 511
Flags: W
LayerCount: 2
Fore
SplineSet
404 484 m 0
 424 453 429 402 418 330 c 2
 366 0 l 1
 347 0 l 1
 365 116 l 1
 363 116 l 1
 340 77 309 47 270 24 c 0
 232 1 191 -10 147 -10 c 0
 98 -10 61 4 36 31 c 0
 10 58 1 95 8 140 c 0
 17 199 51 245 108 277 c 0
 165 309 242 325 338 325 c 2
 398 325 l 1
 399 330 l 2
 406 375 407 410 402 436 c 0
 396 462 383 481 363 492 c 0
 343 504 314 510 277 510 c 0
 212 510 148 494 86 462 c 1
 81 480 l 1
 146 513 213 530 280 530 c 0
 341 530 382 515 404 484 c 0
256 36 m 0
 288 53 316 77 338 108 c 0
 360 138 374 172 380 210 c 2
 395 305 l 1
 335 305 l 2
 244 305 172 291 120 262 c 0
 66 234 36 193 27 140 c 0
 21 101 29 69 51 46 c 0
 73 22 106 10 150 10 c 0
 187 10 222 19 256 36 c 0
282 770 m 1
 312 770 l 1
 432 560 l 1
 408 560 l 1
 296 755 l 1
 294 755 l 1
 120 560 l 1
 95 560 l 1
 282 770 l 1
298 827 m 0
 261 859 233 875 213 875 c 0
 188 875 171 845 161 785 c 1
 142 785 l 1
 148 822 157 849 168 868 c 0
 180 886 196 895 216 895 c 0
 241 895 273 878 312 843 c 0
 349 811 378 795 398 795 c 0
 423 795 440 825 449 885 c 1
 469 885 l 1
 458 812 433 775 395 775 c 0
 371 775 339 792 298 827 c 0
EndSplineSet
EndChar

StartChar: uni0201
Encoding: 513 513 215
Width: 511
Flags: W
LayerCount: 2
Fore
SplineSet
404 484 m 0
 424 453 429 402 418 330 c 2
 366 0 l 1
 347 0 l 1
 365 116 l 1
 363 116 l 1
 340 77 309 47 270 24 c 0
 232 1 191 -10 147 -10 c 0
 98 -10 61 4 36 31 c 0
 10 58 1 95 8 140 c 0
 17 199 51 245 108 277 c 0
 165 309 242 325 338 325 c 2
 398 325 l 1
 399 330 l 2
 406 375 407 410 402 436 c 0
 396 462 383 481 363 492 c 0
 343 504 314 510 277 510 c 0
 212 510 148 494 86 462 c 1
 81 480 l 1
 146 513 213 530 280 530 c 0
 341 530 382 515 404 484 c 0
256 36 m 0
 288 53 316 77 338 108 c 0
 360 138 374 172 380 210 c 2
 395 305 l 1
 335 305 l 2
 244 305 172 291 120 262 c 0
 66 234 36 193 27 140 c 0
 21 101 29 69 51 46 c 0
 73 22 106 10 150 10 c 0
 187 10 222 19 256 36 c 0
99 770 m 1
 122 770 l 1
 207 560 l 1
 185 560 l 1
 99 770 l 1
276 770 m 1
 298 770 l 1
 384 560 l 1
 361 560 l 1
 276 770 l 1
EndSplineSet
EndChar

StartChar: adieresis
Encoding: 228 228 216
Width: 511
Flags: W
LayerCount: 2
Fore
SplineSet
404 484 m 0
 424 453 429 402 418 330 c 2
 366 0 l 1
 347 0 l 1
 365 116 l 1
 363 116 l 1
 340 77 309 47 270 24 c 0
 232 1 191 -10 147 -10 c 0
 98 -10 61 4 36 31 c 0
 10 58 1 95 8 140 c 0
 17 199 51 245 108 277 c 0
 165 309 242 325 338 325 c 2
 398 325 l 1
 399 330 l 2
 406 375 407 410 402 436 c 0
 396 462 383 481 363 492 c 0
 343 504 314 510 277 510 c 0
 212 510 148 494 86 462 c 1
 81 480 l 1
 146 513 213 530 280 530 c 0
 341 530 382 515 404 484 c 0
256 36 m 0
 288 53 316 77 338 108 c 0
 360 138 374 172 380 210 c 2
 395 305 l 1
 335 305 l 2
 244 305 172 291 120 262 c 0
 66 234 36 193 27 140 c 0
 21 101 29 69 51 46 c 0
 73 22 106 10 150 10 c 0
 187 10 222 19 256 36 c 0
135 695 m 1
 193 695 l 1
 184 635 l 1
 125 635 l 1
 135 695 l 1
370 695 m 1
 429 695 l 1
 419 635 l 1
 360 635 l 1
 370 695 l 1
EndSplineSet
EndChar

StartChar: uni1EA1
Encoding: 7841 7841 217
Width: 511
Flags: W
LayerCount: 2
Fore
SplineSet
404 484 m 0
 424 453 429 402 418 330 c 2
 366 0 l 1
 347 0 l 1
 365 116 l 1
 363 116 l 1
 340 77 309 47 270 24 c 0
 232 1 191 -10 147 -10 c 0
 98 -10 61 4 36 31 c 0
 10 58 1 95 8 140 c 0
 17 199 51 245 108 277 c 0
 165 309 242 325 338 325 c 2
 398 325 l 1
 399 330 l 2
 406 375 407 410 402 436 c 0
 396 462 383 481 363 492 c 0
 343 504 314 510 277 510 c 0
 212 510 148 494 86 462 c 1
 81 480 l 1
 146 513 213 530 280 530 c 0
 341 530 382 515 404 484 c 0
256 36 m 0
 288 53 316 77 338 108 c 0
 360 138 374 172 380 210 c 2
 395 305 l 1
 335 305 l 2
 244 305 172 291 120 262 c 0
 66 234 36 193 27 140 c 0
 21 101 29 69 51 46 c 0
 73 22 106 10 150 10 c 0
 187 10 222 19 256 36 c 0
155 -115 m 1
 214 -115 l 1
 204 -175 l 1
 145 -175 l 1
 155 -115 l 1
EndSplineSet
EndChar

StartChar: agrave
Encoding: 224 224 218
Width: 511
Flags: W
LayerCount: 2
Fore
SplineSet
404 484 m 0
 424 453 429 402 418 330 c 2
 366 0 l 1
 347 0 l 1
 365 116 l 1
 363 116 l 1
 340 77 309 47 270 24 c 0
 232 1 191 -10 147 -10 c 0
 98 -10 61 4 36 31 c 0
 10 58 1 95 8 140 c 0
 17 199 51 245 108 277 c 0
 165 309 242 325 338 325 c 2
 398 325 l 1
 399 330 l 2
 406 375 407 410 402 436 c 0
 396 462 383 481 363 492 c 0
 343 504 314 510 277 510 c 0
 212 510 148 494 86 462 c 1
 81 480 l 1
 146 513 213 530 280 530 c 0
 341 530 382 515 404 484 c 0
256 36 m 0
 288 53 316 77 338 108 c 0
 360 138 374 172 380 210 c 2
 395 305 l 1
 335 305 l 2
 244 305 172 291 120 262 c 0
 66 234 36 193 27 140 c 0
 21 101 29 69 51 46 c 0
 73 22 106 10 150 10 c 0
 187 10 222 19 256 36 c 0
212 770 m 1
 235 770 l 1
 320 560 l 1
 298 560 l 1
 212 770 l 1
EndSplineSet
EndChar

StartChar: uni1EA3
Encoding: 7843 7843 219
Width: 511
Flags: W
LayerCount: 2
Fore
SplineSet
404 484 m 0
 424 453 429 402 418 330 c 2
 366 0 l 1
 347 0 l 1
 365 116 l 1
 363 116 l 1
 340 77 309 47 270 24 c 0
 232 1 191 -10 147 -10 c 0
 98 -10 61 4 36 31 c 0
 10 58 1 95 8 140 c 0
 17 199 51 245 108 277 c 0
 165 309 242 325 338 325 c 2
 398 325 l 1
 399 330 l 2
 406 375 407 410 402 436 c 0
 396 462 383 481 363 492 c 0
 343 504 314 510 277 510 c 0
 212 510 148 494 86 462 c 1
 81 480 l 1
 146 513 213 530 280 530 c 0
 341 530 382 515 404 484 c 0
256 36 m 0
 288 53 316 77 338 108 c 0
 360 138 374 172 380 210 c 2
 395 305 l 1
 335 305 l 2
 244 305 172 291 120 262 c 0
 66 234 36 193 27 140 c 0
 21 101 29 69 51 46 c 0
 73 22 106 10 150 10 c 0
 187 10 222 19 256 36 c 0
416 646 m 0
 423 664 427 680 429 693 c 0
 432 713 428 727 414 734 c 0
 402 741 375 745 335 745 c 0
 296 745 256 740 216 730 c 1
 214 749 l 1
 257 760 298 765 339 765 c 0
 384 765 415 760 431 749 c 0
 447 738 453 720 449 693 c 0
 447 680 443 666 438 649 c 0
 432 632 426 618 419 605 c 1
 397 605 l 1
 404 615 410 629 416 646 c 0
EndSplineSet
EndChar

StartChar: uni0203
Encoding: 515 515 220
Width: 511
Flags: W
LayerCount: 2
Fore
SplineSet
404 484 m 0
 424 453 429 402 418 330 c 2
 366 0 l 1
 347 0 l 1
 365 116 l 1
 363 116 l 1
 340 77 309 47 270 24 c 0
 232 1 191 -10 147 -10 c 0
 98 -10 61 4 36 31 c 0
 10 58 1 95 8 140 c 0
 17 199 51 245 108 277 c 0
 165 309 242 325 338 325 c 2
 398 325 l 1
 399 330 l 2
 406 375 407 410 402 436 c 0
 396 462 383 481 363 492 c 0
 343 504 314 510 277 510 c 0
 212 510 148 494 86 462 c 1
 81 480 l 1
 146 513 213 530 280 530 c 0
 341 530 382 515 404 484 c 0
256 36 m 0
 288 53 316 77 338 108 c 0
 360 138 374 172 380 210 c 2
 395 305 l 1
 335 305 l 2
 244 305 172 291 120 262 c 0
 66 234 36 193 27 140 c 0
 21 101 29 69 51 46 c 0
 73 22 106 10 150 10 c 0
 187 10 222 19 256 36 c 0
388 702 m 0
 412 680 425 651 425 615 c 1
 406 615 l 1
 405 645 393 669 371 688 c 0
 349 706 320 715 285 715 c 0
 250 715 218 706 190 688 c 0
 163 669 144 645 133 615 c 1
 114 615 l 1
 125 651 147 680 179 702 c 0
 211 724 247 735 288 735 c 0
 329 735 362 724 388 702 c 0
EndSplineSet
EndChar

StartChar: amacron
Encoding: 257 257 221
Width: 511
Flags: W
LayerCount: 2
Fore
SplineSet
404 484 m 0
 424 453 429 402 418 330 c 2
 366 0 l 1
 347 0 l 1
 365 116 l 1
 363 116 l 1
 340 77 309 47 270 24 c 0
 232 1 191 -10 147 -10 c 0
 98 -10 61 4 36 31 c 0
 10 58 1 95 8 140 c 0
 17 199 51 245 108 277 c 0
 165 309 242 325 338 325 c 2
 398 325 l 1
 399 330 l 2
 406 375 407 410 402 436 c 0
 396 462 383 481 363 492 c 0
 343 504 314 510 277 510 c 0
 212 510 148 494 86 462 c 1
 81 480 l 1
 146 513 213 530 280 530 c 0
 341 530 382 515 404 484 c 0
256 36 m 0
 288 53 316 77 338 108 c 0
 360 138 374 172 380 210 c 2
 395 305 l 1
 335 305 l 2
 244 305 172 291 120 262 c 0
 66 234 36 193 27 140 c 0
 21 101 29 69 51 46 c 0
 73 22 106 10 150 10 c 0
 187 10 222 19 256 36 c 0
107 675 m 1
 435 675 l 1
 432 655 l 1
 104 655 l 1
 107 675 l 1
EndSplineSet
EndChar

StartChar: aogonek
Encoding: 261 261 222
Width: 483
Flags: W
LayerCount: 2
Fore
SplineSet
416 -199 m 1
 385 -213 352 -220 317 -220 c 0
 270 -220 240 -211 226 -194 c 0
 211 -177 206 -157 209 -135 c 0
 213 -109 227 -84 252 -58 c 0
 276 -34 308 -10 348 11 c 1
 365 116 l 1
 363 116 l 1
 340 77 309 47 270 24 c 0
 232 1 191 -10 147 -10 c 0
 98 -10 61 4 36 31 c 0
 10 58 1 95 8 140 c 0
 17 199 51 245 108 277 c 0
 165 309 242 325 338 325 c 2
 398 325 l 1
 399 330 l 2
 406 375 407 410 401 436 c 0
 395 462 382 481 362 492 c 0
 343 504 314 510 277 510 c 0
 212 510 148 494 86 462 c 1
 81 480 l 1
 146 513 213 530 280 530 c 0
 341 530 382 515 403 484 c 0
 424 453 429 402 418 330 c 2
 365 0 l 1
 324 -21 292 -44 269 -66 c 0
 246 -90 232 -112 228 -135 c 0
 224 -160 231 -177 250 -186 c 0
 269 -195 292 -200 320 -200 c 0
 353 -200 383 -194 412 -181 c 1
 416 -199 l 1
256 36 m 0
 288 53 316 77 338 108 c 0
 360 138 374 172 380 210 c 2
 395 305 l 1
 335 305 l 2
 244 305 172 291 120 262 c 0
 66 234 36 193 27 140 c 0
 21 101 29 69 51 46 c 0
 73 22 106 10 150 10 c 0
 187 10 222 19 256 36 c 0
EndSplineSet
EndChar

StartChar: aring
Encoding: 229 229 223
Width: 480
Flags: W
LayerCount: 2
Fore
SplineSet
406 480 m 0
 425 448 428 399 417 330 c 2
 365 0 l 1
 365 0 346 0 346 0 c 1
 346 0 365 116 365 116 c 1
 363 116 l 1
 340 77 309 47 270 24 c 0
 232 1 191 -10 147 -10 c 0
 98 -10 61 4 36 31 c 0
 10 58 1 95 8 140 c 0
 17 199 51 245 108 277 c 0
 165 309 242 325 338 325 c 2
 398 325 l 1
 399 330 l 2
 406 375 407 410 401 436 c 0
 395 462 382 481 362 492 c 0
 343 504 314 510 277 510 c 0
 212 510 148 494 86 462 c 1
 81 480 l 1
 132 506 185 522 239 528 c 1
 214 534 194 548 180 571 c 0
 166 594 161 620 166 650 c 0
 171 685 188 714 214 738 c 0
 242 763 271 775 304 775 c 0
 337 775 363 763 382 738 c 0
 401 714 408 685 403 650 c 0
 398 621 386 596 366 574 c 0
 347 552 324 537 297 530 c 1
 351 527 387 510 406 480 c 0
202 576 m 0
 219 555 241 545 268 545 c 0
 296 545 321 555 344 576 c 0
 366 597 379 621 384 650 c 0
 389 679 383 704 367 724 c 0
 351 745 329 755 301 755 c 0
 274 755 248 745 226 724 c 0
 202 704 189 679 184 650 c 0
 180 621 186 597 202 576 c 0
256 36 m 0
 288 53 316 77 338 108 c 0
 360 138 374 172 380 210 c 2
 395 305 l 1
 335 305 l 2
 244 305 172 291 120 262 c 0
 66 234 36 193 27 140 c 0
 21 101 29 69 51 46 c 0
 73 22 106 10 150 10 c 0
 187 10 222 19 256 36 c 0
EndSplineSet
EndChar

StartChar: aringacute
Encoding: 507 507 224
Width: 480
Flags: W
LayerCount: 2
Fore
SplineSet
406 480 m 0
 425 448 428 399 417 330 c 2
 365 0 l 1
 365 0 346 0 346 0 c 1
 346 0 365 116 365 116 c 1
 363 116 l 1
 340 77 309 47 270 24 c 0
 232 1 191 -10 147 -10 c 0
 98 -10 61 4 36 31 c 0
 10 58 1 95 8 140 c 0
 17 199 51 245 108 277 c 0
 165 309 242 325 338 325 c 2
 398 325 l 1
 399 330 l 2
 406 375 407 410 401 436 c 0
 395 462 382 481 362 492 c 0
 343 504 314 510 277 510 c 0
 212 510 148 494 86 462 c 1
 81 480 l 1
 132 506 185 522 239 528 c 1
 214 534 194 548 180 571 c 0
 166 594 161 620 166 650 c 0
 169 671 177 691 190 709 c 0
 202 727 217 742 234 754 c 1
 380 960 l 1
 402 960 l 1
 267 769 l 1
 279 773 291 775 304 775 c 0
 337 775 363 763 382 738 c 0
 401 714 408 685 403 650 c 0
 398 621 386 596 366 574 c 0
 347 552 324 537 297 530 c 1
 351 527 387 510 406 480 c 0
202 576 m 0
 219 555 241 545 268 545 c 0
 296 545 321 555 344 576 c 0
 366 597 379 621 384 650 c 0
 389 679 383 704 367 724 c 0
 351 745 329 755 301 755 c 0
 274 755 248 745 226 724 c 0
 202 704 189 679 184 650 c 0
 180 621 186 597 202 576 c 0
256 36 m 0
 288 53 316 77 338 108 c 0
 360 138 374 172 380 210 c 2
 395 305 l 1
 335 305 l 2
 244 305 172 291 120 262 c 0
 66 234 36 193 27 140 c 0
 21 101 29 69 51 46 c 0
 73 22 106 10 150 10 c 0
 187 10 222 19 256 36 c 0
EndSplineSet
EndChar

StartChar: atilde
Encoding: 227 227 225
Width: 511
Flags: W
LayerCount: 2
Fore
SplineSet
404 484 m 0
 424 453 429 402 418 330 c 2
 366 0 l 1
 347 0 l 1
 365 116 l 1
 363 116 l 1
 340 77 309 47 270 24 c 0
 232 1 191 -10 147 -10 c 0
 98 -10 61 4 36 31 c 0
 10 58 1 95 8 140 c 0
 17 199 51 245 108 277 c 0
 165 309 242 325 338 325 c 2
 398 325 l 1
 399 330 l 2
 406 375 407 410 402 436 c 0
 396 462 383 481 363 492 c 0
 343 504 314 510 277 510 c 0
 212 510 148 494 86 462 c 1
 81 480 l 1
 146 513 213 530 280 530 c 0
 341 530 382 515 404 484 c 0
256 36 m 0
 288 53 316 77 338 108 c 0
 360 138 374 172 380 210 c 2
 395 305 l 1
 335 305 l 2
 244 305 172 291 120 262 c 0
 66 234 36 193 27 140 c 0
 21 101 29 69 51 46 c 0
 73 22 106 10 150 10 c 0
 187 10 222 19 256 36 c 0
271 657 m 0
 234 689 206 705 186 705 c 0
 161 705 144 675 134 615 c 1
 115 615 l 1
 121 652 130 679 142 698 c 0
 153 716 169 725 189 725 c 0
 214 725 246 708 285 673 c 0
 322 641 351 625 371 625 c 0
 396 625 413 655 422 715 c 1
 442 715 l 1
 431 642 406 605 368 605 c 0
 344 605 312 622 271 657 c 0
EndSplineSet
EndChar

StartChar: ae
Encoding: 230 230 226
Width: 846
Flags: W
LayerCount: 2
Fore
SplineSet
805 258 m 1
 406 258 l 1
 394 178 403 117 432 74 c 0
 461 31 509 10 576 10 c 0
 605 10 634 14 662 22 c 0
 692 29 719 40 744 53 c 1
 751 36 l 1
 724 21 696 10 665 2 c 0
 634 -6 604 -10 573 -10 c 0
 517 -10 473 4 441 32 c 0
 409 60 390 101 383 154 c 1
 364 105 332 66 290 36 c 0
 246 5 199 -10 147 -10 c 0
 98 -10 61 4 36 31 c 0
 10 58 1 95 8 140 c 0
 17 199 51 245 108 277 c 0
 165 309 242 325 338 325 c 2
 398 325 l 1
 399 330 l 2
 406 375 407 410 402 436 c 0
 396 462 383 481 363 492 c 0
 343 504 314 510 277 510 c 0
 212 510 148 494 86 462 c 1
 81 480 l 1
 146 513 213 530 280 530 c 0
 333 530 371 518 394 496 c 0
 416 472 426 435 423 383 c 1
 445 431 474 468 512 492 c 0
 548 518 591 530 639 530 c 0
 706 530 754 506 782 460 c 0
 812 412 819 346 806 260 c 1
 805 258 l 1
490 450 m 0
 451 411 424 353 410 278 c 1
 790 278 l 1
 799 353 791 411 764 450 c 0
 737 490 695 510 636 510 c 0
 578 510 529 490 490 450 c 0
395 305 m 1
 335 305 l 2
 244 305 172 291 120 262 c 0
 66 234 36 193 27 140 c 0
 21 101 29 69 51 46 c 0
 73 22 106 10 150 10 c 0
 187 10 222 19 256 36 c 0
 288 53 316 77 338 108 c 0
 360 138 374 172 380 210 c 2
 395 305 l 1
EndSplineSet
EndChar

StartChar: aeacute
Encoding: 509 509 227
Width: 895
Flags: W
LayerCount: 2
Fore
SplineSet
805 258 m 1
 406 258 l 1
 394 178 403 117 432 74 c 0
 461 31 509 10 576 10 c 0
 605 10 634 14 662 22 c 0
 692 29 719 40 744 53 c 1
 751 36 l 1
 724 21 696 10 665 2 c 0
 634 -6 604 -10 573 -10 c 0
 517 -10 473 4 441 32 c 0
 409 60 390 101 383 154 c 1
 364 105 332 66 290 36 c 0
 246 5 199 -10 147 -10 c 0
 98 -10 61 4 36 31 c 0
 10 58 1 95 8 140 c 0
 17 199 51 245 108 277 c 0
 165 309 242 325 338 325 c 2
 398 325 l 1
 399 330 l 2
 406 375 407 410 402 436 c 0
 396 462 383 481 363 492 c 0
 343 504 314 510 277 510 c 0
 212 510 148 494 86 462 c 1
 81 480 l 1
 146 513 213 530 280 530 c 0
 333 530 371 518 394 496 c 0
 416 472 426 435 423 383 c 1
 445 431 474 468 512 492 c 0
 548 518 591 530 639 530 c 0
 706 530 754 506 782 460 c 0
 812 412 819 346 806 260 c 1
 805 258 l 1
490 450 m 0
 451 411 424 353 410 278 c 1
 790 278 l 1
 799 353 791 411 764 450 c 0
 737 490 695 510 636 510 c 0
 578 510 529 490 490 450 c 0
395 305 m 1
 335 305 l 2
 244 305 172 291 120 262 c 0
 66 234 36 193 27 140 c 0
 21 101 29 69 51 46 c 0
 73 22 106 10 150 10 c 0
 187 10 222 19 256 36 c 0
 288 53 316 77 338 108 c 0
 360 138 374 172 380 210 c 2
 395 305 l 1
458 560 m 1
 435 560 l 1
 587 770 l 1
 610 770 l 1
 458 560 l 1
EndSplineSet
EndChar

StartChar: b
Encoding: 98 98 228
Width: 518
Flags: W
LayerCount: 2
Fore
SplineSet
450 458 m 0
 478 410 485 344 472 260 c 0
 459 176 430 110 388 62 c 0
 344 14 292 -10 230 -10 c 0
 188 -10 153 2 126 24 c 0
 99 48 81 79 72 120 c 1
 70 120 l 1
 51 0 l 1
 32 0 l 1
 151 750 l 1
 170 750 l 1
 115 400 l 1
 116 400 l 1
 137 441 166 472 200 496 c 0
 236 518 274 530 315 530 c 0
 378 530 423 506 450 458 c 0
376 76 m 0
 416 121 441 182 453 260 c 0
 466 338 460 399 434 444 c 0
 410 488 369 510 312 510 c 0
 257 510 210 490 172 449 c 0
 132 408 107 354 96 285 c 2
 88 235 l 2
 77 166 85 112 112 71 c 0
 139 30 179 10 233 10 c 0
 290 10 338 32 376 76 c 0
EndSplineSet
EndChar

StartChar: c
Encoding: 99 99 229
Width: 479
Flags: W
LayerCount: 2
Fore
SplineSet
110 23 m 0
 77 45 54 76 42 117 c 0
 28 158 26 205 35 260 c 0
 44 315 61 362 87 403 c 0
 113 444 146 475 184 497 c 0
 224 519 267 530 315 530 c 0
 361 530 404 518 443 495 c 1
 431 477 l 1
 394 499 355 510 312 510 c 0
 244 510 187 488 141 443 c 0
 95 398 66 337 54 260 c 0
 42 183 52 122 84 77 c 0
 115 32 165 10 233 10 c 0
 276 10 320 21 363 43 c 1
 368 25 l 1
 322 2 276 -10 230 -10 c 0
 182 -10 142 1 110 23 c 0
EndSplineSet
EndChar

StartChar: cacute
Encoding: 263 263 230
Width: 510
Flags: W
LayerCount: 2
Fore
SplineSet
110 23 m 0
 77 45 54 76 42 117 c 0
 28 158 26 205 35 260 c 0
 44 315 61 362 87 403 c 0
 113 444 146 475 184 497 c 0
 224 519 267 530 315 530 c 0
 361 530 404 518 443 495 c 1
 431 477 l 1
 394 499 355 510 312 510 c 0
 244 510 187 488 141 443 c 0
 95 398 66 337 54 260 c 0
 42 183 52 122 84 77 c 0
 115 32 165 10 233 10 c 0
 276 10 320 21 363 43 c 1
 368 25 l 1
 322 2 276 -10 230 -10 c 0
 182 -10 142 1 110 23 c 0
275 560 m 1
 252 560 l 1
 404 770 l 1
 427 770 l 1
 275 560 l 1
EndSplineSet
EndChar

StartChar: ccaron
Encoding: 269 269 231
Width: 510
Flags: W
LayerCount: 2
Fore
SplineSet
110 23 m 0
 77 45 54 76 42 117 c 0
 28 158 26 205 35 260 c 0
 44 315 61 362 87 403 c 0
 113 444 146 475 184 497 c 0
 224 519 267 530 315 530 c 0
 361 530 404 518 443 495 c 1
 431 477 l 1
 394 499 355 510 312 510 c 0
 244 510 187 488 141 443 c 0
 95 398 66 337 54 260 c 0
 42 183 52 122 84 77 c 0
 115 32 165 10 233 10 c 0
 276 10 320 21 363 43 c 1
 368 25 l 1
 322 2 276 -10 230 -10 c 0
 182 -10 142 1 110 23 c 0
154 770 m 1
 178 770 l 1
 290 575 l 1
 292 575 l 1
 466 770 l 1
 491 770 l 1
 304 560 l 1
 274 560 l 1
 154 770 l 1
EndSplineSet
EndChar

StartChar: ccedilla
Encoding: 231 231 232
Width: 479
Flags: W
LayerCount: 2
Fore
SplineSet
368 25 m 1
 323 2 277 -10 232 -10 c 1
 282 -50 303 -92 296 -136 c 0
 293 -158 281 -178 261 -195 c 0
 241 -212 208 -221 161 -221 c 0
 126 -221 95 -214 69 -200 c 1
 79 -182 l 1
 103 -195 131 -201 164 -201 c 0
 193 -201 218 -196 239 -187 c 0
 260 -178 273 -161 277 -136 c 0
 284 -93 256 -51 193 -8 c 1
 132 1 87 29 59 76 c 0
 31 123 23 185 35 260 c 0
 44 315 61 362 87 403 c 0
 113 444 146 475 184 497 c 0
 224 519 267 530 315 530 c 0
 361 530 404 518 443 495 c 1
 431 477 l 1
 394 499 355 510 312 510 c 0
 244 510 187 488 141 443 c 0
 95 398 66 337 54 260 c 0
 42 183 52 122 84 77 c 0
 115 32 165 10 233 10 c 0
 276 10 319 21 362 43 c 1
 368 25 l 1
EndSplineSet
EndChar

StartChar: ccircumflex
Encoding: 265 265 233
Width: 510
Flags: W
LayerCount: 2
Fore
SplineSet
110 23 m 0
 77 45 54 76 42 117 c 0
 28 158 26 205 35 260 c 0
 44 315 61 362 87 403 c 0
 113 444 146 475 184 497 c 0
 224 519 267 530 315 530 c 0
 361 530 404 518 443 495 c 1
 431 477 l 1
 394 499 355 510 312 510 c 0
 244 510 187 488 141 443 c 0
 95 398 66 337 54 260 c 0
 42 183 52 122 84 77 c 0
 115 32 165 10 233 10 c 0
 276 10 320 21 363 43 c 1
 368 25 l 1
 322 2 276 -10 230 -10 c 0
 182 -10 142 1 110 23 c 0
307 770 m 1
 337 770 l 1
 457 560 l 1
 433 560 l 1
 321 755 l 1
 319 755 l 1
 145 560 l 1
 120 560 l 1
 307 770 l 1
EndSplineSet
EndChar

StartChar: cdotaccent
Encoding: 267 267 234
Width: 510
Flags: W
LayerCount: 2
Fore
SplineSet
110 23 m 0
 77 45 54 76 42 117 c 0
 28 158 26 205 35 260 c 0
 44 315 61 362 87 403 c 0
 113 444 146 475 184 497 c 0
 224 519 267 530 315 530 c 0
 361 530 404 518 443 495 c 1
 431 477 l 1
 394 499 355 510 312 510 c 0
 244 510 187 488 141 443 c 0
 95 398 66 337 54 260 c 0
 42 183 52 122 84 77 c 0
 115 32 165 10 233 10 c 0
 276 10 320 21 363 43 c 1
 368 25 l 1
 322 2 276 -10 230 -10 c 0
 182 -10 142 1 110 23 c 0
308 695 m 1
 367 695 l 1
 357 635 l 1
 298 635 l 1
 308 695 l 1
EndSplineSet
EndChar

StartChar: d
Encoding: 100 100 235
Width: 518
Flags: W
LayerCount: 2
Fore
SplineSet
515 750 m 1
 396 0 l 1
 378 0 l 1
 397 120 l 1
 395 120 l 1
 374 79 346 48 310 24 c 0
 276 2 237 -10 196 -10 c 0
 134 -10 89 14 61 62 c 0
 33 110 26 176 39 260 c 0
 52 344 80 410 124 458 c 0
 166 506 219 530 281 530 c 0
 323 530 358 518 385 496 c 0
 412 472 430 441 439 400 c 1
 441 400 l 1
 496 750 l 1
 515 750 l 1
339 71 m 0
 378 112 404 166 415 235 c 2
 423 285 l 2
 434 354 426 408 400 449 c 0
 373 490 333 510 278 510 c 0
 221 510 174 488 134 444 c 0
 96 399 70 338 58 260 c 0
 45 182 52 121 76 76 c 0
 102 32 142 10 199 10 c 0
 253 10 300 30 339 71 c 0
EndSplineSet
EndChar

StartChar: eth
Encoding: 240 240 236
Width: 538
Flags: W
LayerCount: 2
Fore
SplineSet
400 626 m 1
 433 567 456 502 470 432 c 0
 485 361 487 296 477 235 c 0
 465 160 436 100 389 56 c 0
 342 12 285 -10 216 -10 c 0
 147 -10 96 12 63 56 c 0
 30 100 19 160 31 235 c 0
 43 310 72 370 120 414 c 0
 166 458 224 480 293 480 c 0
 331 480 364 473 391 459 c 0
 418 445 440 425 455 398 c 1
 457 399 l 1
 444 477 419 550 381 619 c 1
 135 522 l 1
 130 540 l 1
 372 635 l 1
 328 708 281 754 230 772 c 1
 240 790 l 1
 267 780 294 762 320 736 c 0
 345 710 369 679 390 642 c 1
 575 715 l 1
 580 697 l 1
 400 626 l 1
378 70 m 0
 421 110 448 165 459 235 c 0
 470 305 461 360 430 400 c 0
 400 440 353 460 290 460 c 0
 227 460 174 440 131 400 c 0
 88 360 61 305 50 235 c 0
 39 165 48 110 78 70 c 0
 109 30 156 10 219 10 c 0
 282 10 335 30 378 70 c 0
EndSplineSet
EndChar

StartChar: dcaron
Encoding: 271 271 237
Width: 717
Flags: W
LayerCount: 2
Fore
SplineSet
515 750 m 1
 396 0 l 1
 378 0 l 1
 397 120 l 1
 395 120 l 1
 374 79 346 48 310 24 c 0
 276 2 237 -10 196 -10 c 0
 134 -10 89 14 61 62 c 0
 33 110 26 176 39 260 c 0
 52 344 80 410 124 458 c 0
 166 506 219 530 281 530 c 0
 323 530 358 518 385 496 c 0
 412 472 430 441 439 400 c 1
 441 400 l 1
 496 750 l 1
 515 750 l 1
339 71 m 0
 378 112 404 166 415 235 c 2
 423 285 l 2
 434 354 426 408 400 449 c 0
 373 490 333 510 278 510 c 0
 221 510 174 488 134 444 c 0
 96 399 70 338 58 260 c 0
 45 182 52 121 76 76 c 0
 102 32 142 10 199 10 c 0
 253 10 300 30 339 71 c 0
697 770 m 1
 719 770 l 1
 565 470 l 1
 543 470 l 1
 697 770 l 1
EndSplineSet
EndChar

StartChar: dcroat
Encoding: 273 273 238
Width: 582
Flags: W
LayerCount: 2
Fore
SplineSet
608 615 m 1
 494 615 l 1
 396 0 l 1
 378 0 l 1
 397 120 l 1
 395 120 l 1
 374 79 346 48 310 24 c 0
 276 2 237 -10 196 -10 c 0
 134 -10 89 14 61 62 c 0
 33 110 26 176 39 260 c 0
 52 344 80 410 124 458 c 0
 166 506 219 530 281 530 c 0
 323 530 358 518 385 496 c 0
 412 472 430 441 439 400 c 1
 441 400 l 1
 475 615 l 1
 209 615 l 1
 212 635 l 1
 478 635 l 1
 496 750 l 1
 515 750 l 1
 497 635 l 1
 611 635 l 1
 608 615 l 1
339 71 m 0
 378 112 404 166 415 235 c 2
 423 285 l 2
 434 354 426 408 400 449 c 0
 373 490 333 510 278 510 c 0
 221 510 174 488 134 444 c 0
 96 399 70 338 58 260 c 0
 45 182 52 121 76 76 c 0
 102 32 142 10 199 10 c 0
 253 10 300 30 339 71 c 0
EndSplineSet
EndChar

StartChar: uni01C6
Encoding: 454 454 239
Width: 1024
Flags: W
LayerCount: 2
Fore
SplineSet
515 750 m 1
 396 0 l 1
 378 0 l 1
 397 120 l 1
 395 120 l 1
 374 79 346 48 310 24 c 0
 276 2 237 -10 196 -10 c 0
 134 -10 89 14 61 62 c 0
 33 110 26 176 39 260 c 0
 52 344 80 410 124 458 c 0
 166 506 219 530 281 530 c 0
 323 530 358 518 385 496 c 0
 412 472 430 441 439 400 c 1
 441 400 l 1
 496 750 l 1
 515 750 l 1
339 71 m 0
 378 112 404 166 415 235 c 2
 423 285 l 2
 434 354 426 408 400 449 c 0
 373 490 333 510 278 510 c 0
 221 510 174 488 134 444 c 0
 96 399 70 338 58 260 c 0
 45 182 52 121 76 76 c 0
 102 32 142 10 199 10 c 0
 253 10 300 30 339 71 c 0
557 20 m 1
 959 498 l 1
 959 500 l 1
 633 500 l 1
 636 520 l 1
 987 520 l 1
 984 500 l 1
 582 22 l 1
 581 20 l 1
 908 20 l 1
 905 0 l 1
 553 0 l 1
 557 20 l 1
677 770 m 1
 701 770 l 1
 813 575 l 1
 815 575 l 1
 989 770 l 1
 1014 770 l 1
 827 560 l 1
 797 560 l 1
 677 770 l 1
EndSplineSet
EndChar

StartChar: e
Encoding: 101 101 240
Width: 494
Flags: W
LayerCount: 2
Fore
SplineSet
453 258 m 1
 54 258 l 1
 42 177 51 116 81 74 c 0
 111 31 160 10 228 10 c 0
 284 10 339 23 392 48 c 1
 398 30 l 1
 341 3 284 -10 225 -10 c 0
 150 -10 97 13 64 60 c 0
 31 107 22 173 35 260 c 0
 48 346 77 412 121 460 c 0
 165 506 220 530 287 530 c 0
 354 530 401 506 430 460 c 0
 459 412 466 346 453 260 c 1
 453 258 l 1
138 450 m 0
 98 411 72 353 57 278 c 1
 437 278 l 1
 446 353 438 411 411 450 c 0
 384 490 342 510 284 510 c 0
 225 510 176 490 138 450 c 0
EndSplineSet
EndChar

StartChar: eacute
Encoding: 233 233 241
Width: 524
Flags: W
LayerCount: 2
Fore
SplineSet
453 258 m 1
 54 258 l 1
 42 177 51 116 81 74 c 0
 111 31 160 10 228 10 c 0
 284 10 339 23 392 48 c 1
 398 30 l 1
 341 3 284 -10 225 -10 c 0
 150 -10 97 13 64 60 c 0
 31 107 22 173 35 260 c 0
 48 346 77 412 121 460 c 0
 165 506 220 530 287 530 c 0
 354 530 401 506 430 460 c 0
 459 412 466 346 453 260 c 1
 453 258 l 1
138 450 m 0
 98 411 72 353 57 278 c 1
 437 278 l 1
 446 353 438 411 411 450 c 0
 384 490 342 510 284 510 c 0
 225 510 176 490 138 450 c 0
274 560 m 1
 251 560 l 1
 403 770 l 1
 426 770 l 1
 274 560 l 1
EndSplineSet
EndChar

StartChar: ebreve
Encoding: 277 277 242
Width: 524
Flags: W
LayerCount: 2
Fore
SplineSet
453 258 m 1
 54 258 l 1
 42 177 51 116 81 74 c 0
 111 31 160 10 228 10 c 0
 284 10 339 23 392 48 c 1
 398 30 l 1
 341 3 284 -10 225 -10 c 0
 150 -10 97 13 64 60 c 0
 31 107 22 173 35 260 c 0
 48 346 77 412 121 460 c 0
 165 506 220 530 287 530 c 0
 354 530 401 506 430 460 c 0
 459 412 466 346 453 260 c 1
 453 258 l 1
138 450 m 0
 98 411 72 353 57 278 c 1
 437 278 l 1
 446 353 438 411 411 450 c 0
 384 490 342 510 284 510 c 0
 225 510 176 490 138 450 c 0
191 628 m 0
 166 650 154 679 153 715 c 1
 173 715 l 1
 174 685 186 661 208 642 c 0
 229 624 258 615 293 615 c 0
 328 615 360 624 388 642 c 0
 415 661 434 685 445 715 c 1
 465 715 l 1
 454 679 432 650 400 628 c 0
 368 606 331 595 290 595 c 0
 249 595 216 606 191 628 c 0
EndSplineSet
EndChar

StartChar: ecaron
Encoding: 283 283 243
Width: 524
Flags: W
LayerCount: 2
Fore
SplineSet
453 258 m 1
 54 258 l 1
 42 177 51 116 81 74 c 0
 111 31 160 10 228 10 c 0
 284 10 339 23 392 48 c 1
 398 30 l 1
 341 3 284 -10 225 -10 c 0
 150 -10 97 13 64 60 c 0
 31 107 22 173 35 260 c 0
 48 346 77 412 121 460 c 0
 165 506 220 530 287 530 c 0
 354 530 401 506 430 460 c 0
 459 412 466 346 453 260 c 1
 453 258 l 1
138 450 m 0
 98 411 72 353 57 278 c 1
 437 278 l 1
 446 353 438 411 411 450 c 0
 384 490 342 510 284 510 c 0
 225 510 176 490 138 450 c 0
153 770 m 1
 177 770 l 1
 289 575 l 1
 291 575 l 1
 465 770 l 1
 490 770 l 1
 303 560 l 1
 273 560 l 1
 153 770 l 1
EndSplineSet
EndChar

StartChar: ecircumflex
Encoding: 234 234 244
Width: 524
Flags: W
LayerCount: 2
Fore
SplineSet
453 258 m 1
 54 258 l 1
 42 177 51 116 81 74 c 0
 111 31 160 10 228 10 c 0
 284 10 339 23 392 48 c 1
 398 30 l 1
 341 3 284 -10 225 -10 c 0
 150 -10 97 13 64 60 c 0
 31 107 22 173 35 260 c 0
 48 346 77 412 121 460 c 0
 165 506 220 530 287 530 c 0
 354 530 401 506 430 460 c 0
 459 412 466 346 453 260 c 1
 453 258 l 1
138 450 m 0
 98 411 72 353 57 278 c 1
 437 278 l 1
 446 353 438 411 411 450 c 0
 384 490 342 510 284 510 c 0
 225 510 176 490 138 450 c 0
306 770 m 1
 336 770 l 1
 456 560 l 1
 432 560 l 1
 320 755 l 1
 318 755 l 1
 144 560 l 1
 119 560 l 1
 306 770 l 1
EndSplineSet
EndChar

StartChar: uni1EBF
Encoding: 7871 7871 245
Width: 524
Flags: W
LayerCount: 2
Fore
SplineSet
453 258 m 1
 54 258 l 1
 42 177 51 116 81 74 c 0
 111 31 160 10 228 10 c 0
 284 10 339 23 392 48 c 1
 398 30 l 1
 341 3 284 -10 225 -10 c 0
 150 -10 97 13 64 60 c 0
 31 107 22 173 35 260 c 0
 48 346 77 412 121 460 c 0
 165 506 220 530 287 530 c 0
 354 530 401 506 430 460 c 0
 459 412 466 346 453 260 c 1
 453 258 l 1
138 450 m 0
 98 411 72 353 57 278 c 1
 437 278 l 1
 446 353 438 411 411 450 c 0
 384 490 342 510 284 510 c 0
 225 510 176 490 138 450 c 0
306 770 m 1
 336 770 l 1
 456 560 l 1
 432 560 l 1
 320 755 l 1
 318 755 l 1
 144 560 l 1
 119 560 l 1
 306 770 l 1
447 740 m 1
 424 740 l 1
 576 950 l 1
 599 950 l 1
 447 740 l 1
EndSplineSet
EndChar

StartChar: uni1EC7
Encoding: 7879 7879 246
Width: 524
Flags: W
LayerCount: 2
Fore
SplineSet
453 258 m 1
 54 258 l 1
 42 177 51 116 81 74 c 0
 111 31 160 10 228 10 c 0
 284 10 339 23 392 48 c 1
 398 30 l 1
 341 3 284 -10 225 -10 c 0
 150 -10 97 13 64 60 c 0
 31 107 22 173 35 260 c 0
 48 346 77 412 121 460 c 0
 165 506 220 530 287 530 c 0
 354 530 401 506 430 460 c 0
 459 412 466 346 453 260 c 1
 453 258 l 1
138 450 m 0
 98 411 72 353 57 278 c 1
 437 278 l 1
 446 353 438 411 411 450 c 0
 384 490 342 510 284 510 c 0
 225 510 176 490 138 450 c 0
179 -115 m 1
 238 -115 l 1
 228 -175 l 1
 169 -175 l 1
 179 -115 l 1
306 770 m 1
 336 770 l 1
 456 560 l 1
 432 560 l 1
 320 755 l 1
 318 755 l 1
 144 560 l 1
 119 560 l 1
 306 770 l 1
EndSplineSet
EndChar

StartChar: uni1EC1
Encoding: 7873 7873 247
Width: 524
Flags: W
LayerCount: 2
Fore
SplineSet
453 258 m 1
 54 258 l 1
 42 177 51 116 81 74 c 0
 111 31 160 10 228 10 c 0
 284 10 339 23 392 48 c 1
 398 30 l 1
 341 3 284 -10 225 -10 c 0
 150 -10 97 13 64 60 c 0
 31 107 22 173 35 260 c 0
 48 346 77 412 121 460 c 0
 165 506 220 530 287 530 c 0
 354 530 401 506 430 460 c 0
 459 412 466 346 453 260 c 1
 453 258 l 1
138 450 m 0
 98 411 72 353 57 278 c 1
 437 278 l 1
 446 353 438 411 411 450 c 0
 384 490 342 510 284 510 c 0
 225 510 176 490 138 450 c 0
306 770 m 1
 336 770 l 1
 456 560 l 1
 432 560 l 1
 320 755 l 1
 318 755 l 1
 144 560 l 1
 119 560 l 1
 306 770 l 1
121 950 m 1
 144 950 l 1
 229 740 l 1
 207 740 l 1
 121 950 l 1
EndSplineSet
EndChar

StartChar: uni1EC3
Encoding: 7875 7875 248
Width: 524
Flags: W
LayerCount: 2
Fore
SplineSet
453 258 m 1
 54 258 l 1
 42 177 51 116 81 74 c 0
 111 31 160 10 228 10 c 0
 284 10 339 23 392 48 c 1
 398 30 l 1
 341 3 284 -10 225 -10 c 0
 150 -10 97 13 64 60 c 0
 31 107 22 173 35 260 c 0
 48 346 77 412 121 460 c 0
 165 506 220 530 287 530 c 0
 354 530 401 506 430 460 c 0
 459 412 466 346 453 260 c 1
 453 258 l 1
138 450 m 0
 98 411 72 353 57 278 c 1
 437 278 l 1
 446 353 438 411 411 450 c 0
 384 490 342 510 284 510 c 0
 225 510 176 490 138 450 c 0
306 770 m 1
 336 770 l 1
 456 560 l 1
 432 560 l 1
 320 755 l 1
 318 755 l 1
 144 560 l 1
 119 560 l 1
 306 770 l 1
496 776 m 0
 502 794 506 810 508 823 c 0
 511 843 506 857 494 864 c 0
 480 871 454 875 414 875 c 0
 375 875 335 870 295 860 c 1
 293 879 l 1
 336 890 377 895 418 895 c 0
 463 895 494 890 510 879 c 0
 526 868 532 850 528 823 c 0
 526 810 522 796 516 779 c 0
 511 762 505 748 498 735 c 1
 476 735 l 1
 483 745 489 759 496 776 c 0
EndSplineSet
EndChar

StartChar: uni1EC5
Encoding: 7877 7877 249
Width: 524
Flags: W
LayerCount: 2
Fore
SplineSet
453 258 m 1
 54 258 l 1
 42 177 51 116 81 74 c 0
 111 31 160 10 228 10 c 0
 284 10 339 23 392 48 c 1
 398 30 l 1
 341 3 284 -10 225 -10 c 0
 150 -10 97 13 64 60 c 0
 31 107 22 173 35 260 c 0
 48 346 77 412 121 460 c 0
 165 506 220 530 287 530 c 0
 354 530 401 506 430 460 c 0
 459 412 466 346 453 260 c 1
 453 258 l 1
138 450 m 0
 98 411 72 353 57 278 c 1
 437 278 l 1
 446 353 438 411 411 450 c 0
 384 490 342 510 284 510 c 0
 225 510 176 490 138 450 c 0
306 770 m 1
 336 770 l 1
 456 560 l 1
 432 560 l 1
 320 755 l 1
 318 755 l 1
 144 560 l 1
 119 560 l 1
 306 770 l 1
322 827 m 0
 285 859 257 875 237 875 c 0
 212 875 195 845 185 785 c 1
 166 785 l 1
 172 822 181 849 192 868 c 0
 204 886 220 895 240 895 c 0
 265 895 297 878 336 843 c 0
 373 811 402 795 422 795 c 0
 447 795 464 825 473 885 c 1
 493 885 l 1
 482 812 457 775 419 775 c 0
 395 775 363 792 322 827 c 0
EndSplineSet
EndChar

StartChar: uni0205
Encoding: 517 517 250
Width: 524
Flags: W
LayerCount: 2
Fore
SplineSet
453 258 m 1
 54 258 l 1
 42 177 51 116 81 74 c 0
 111 31 160 10 228 10 c 0
 284 10 339 23 392 48 c 1
 398 30 l 1
 341 3 284 -10 225 -10 c 0
 150 -10 97 13 64 60 c 0
 31 107 22 173 35 260 c 0
 48 346 77 412 121 460 c 0
 165 506 220 530 287 530 c 0
 354 530 401 506 430 460 c 0
 459 412 466 346 453 260 c 1
 453 258 l 1
138 450 m 0
 98 411 72 353 57 278 c 1
 437 278 l 1
 446 353 438 411 411 450 c 0
 384 490 342 510 284 510 c 0
 225 510 176 490 138 450 c 0
123 770 m 1
 146 770 l 1
 231 560 l 1
 209 560 l 1
 123 770 l 1
300 770 m 1
 322 770 l 1
 408 560 l 1
 385 560 l 1
 300 770 l 1
EndSplineSet
EndChar

StartChar: edieresis
Encoding: 235 235 251
Width: 524
Flags: W
LayerCount: 2
Fore
SplineSet
453 258 m 1
 54 258 l 1
 42 177 51 116 81 74 c 0
 111 31 160 10 228 10 c 0
 284 10 339 23 392 48 c 1
 398 30 l 1
 341 3 284 -10 225 -10 c 0
 150 -10 97 13 64 60 c 0
 31 107 22 173 35 260 c 0
 48 346 77 412 121 460 c 0
 165 506 220 530 287 530 c 0
 354 530 401 506 430 460 c 0
 459 412 466 346 453 260 c 1
 453 258 l 1
138 450 m 0
 98 411 72 353 57 278 c 1
 437 278 l 1
 446 353 438 411 411 450 c 0
 384 490 342 510 284 510 c 0
 225 510 176 490 138 450 c 0
159 695 m 1
 217 695 l 1
 208 635 l 1
 149 635 l 1
 159 695 l 1
394 695 m 1
 453 695 l 1
 443 635 l 1
 384 635 l 1
 394 695 l 1
EndSplineSet
EndChar

StartChar: edotaccent
Encoding: 279 279 252
Width: 524
Flags: W
LayerCount: 2
Fore
SplineSet
453 258 m 1
 54 258 l 1
 42 177 51 116 81 74 c 0
 111 31 160 10 228 10 c 0
 284 10 339 23 392 48 c 1
 398 30 l 1
 341 3 284 -10 225 -10 c 0
 150 -10 97 13 64 60 c 0
 31 107 22 173 35 260 c 0
 48 346 77 412 121 460 c 0
 165 506 220 530 287 530 c 0
 354 530 401 506 430 460 c 0
 459 412 466 346 453 260 c 1
 453 258 l 1
138 450 m 0
 98 411 72 353 57 278 c 1
 437 278 l 1
 446 353 438 411 411 450 c 0
 384 490 342 510 284 510 c 0
 225 510 176 490 138 450 c 0
307 695 m 1
 366 695 l 1
 356 635 l 1
 297 635 l 1
 307 695 l 1
EndSplineSet
EndChar

StartChar: uni1EB9
Encoding: 7865 7865 253
Width: 524
Flags: W
LayerCount: 2
Fore
SplineSet
453 258 m 1
 54 258 l 1
 42 177 51 116 81 74 c 0
 111 31 160 10 228 10 c 0
 284 10 339 23 392 48 c 1
 398 30 l 1
 341 3 284 -10 225 -10 c 0
 150 -10 97 13 64 60 c 0
 31 107 22 173 35 260 c 0
 48 346 77 412 121 460 c 0
 165 506 220 530 287 530 c 0
 354 530 401 506 430 460 c 0
 459 412 466 346 453 260 c 1
 453 258 l 1
138 450 m 0
 98 411 72 353 57 278 c 1
 437 278 l 1
 446 353 438 411 411 450 c 0
 384 490 342 510 284 510 c 0
 225 510 176 490 138 450 c 0
179 -115 m 1
 238 -115 l 1
 228 -175 l 1
 169 -175 l 1
 179 -115 l 1
EndSplineSet
EndChar

StartChar: egrave
Encoding: 232 232 254
Width: 524
Flags: W
LayerCount: 2
Fore
SplineSet
453 258 m 1
 54 258 l 1
 42 177 51 116 81 74 c 0
 111 31 160 10 228 10 c 0
 284 10 339 23 392 48 c 1
 398 30 l 1
 341 3 284 -10 225 -10 c 0
 150 -10 97 13 64 60 c 0
 31 107 22 173 35 260 c 0
 48 346 77 412 121 460 c 0
 165 506 220 530 287 530 c 0
 354 530 401 506 430 460 c 0
 459 412 466 346 453 260 c 1
 453 258 l 1
138 450 m 0
 98 411 72 353 57 278 c 1
 437 278 l 1
 446 353 438 411 411 450 c 0
 384 490 342 510 284 510 c 0
 225 510 176 490 138 450 c 0
236 770 m 1
 259 770 l 1
 344 560 l 1
 322 560 l 1
 236 770 l 1
EndSplineSet
EndChar

StartChar: uni1EBB
Encoding: 7867 7867 255
Width: 524
Flags: W
LayerCount: 2
Fore
SplineSet
453 258 m 1
 54 258 l 1
 42 177 51 116 81 74 c 0
 111 31 160 10 228 10 c 0
 284 10 339 23 392 48 c 1
 398 30 l 1
 341 3 284 -10 225 -10 c 0
 150 -10 97 13 64 60 c 0
 31 107 22 173 35 260 c 0
 48 346 77 412 121 460 c 0
 165 506 220 530 287 530 c 0
 354 530 401 506 430 460 c 0
 459 412 466 346 453 260 c 1
 453 258 l 1
138 450 m 0
 98 411 72 353 57 278 c 1
 437 278 l 1
 446 353 438 411 411 450 c 0
 384 490 342 510 284 510 c 0
 225 510 176 490 138 450 c 0
440 646 m 0
 447 664 451 680 453 693 c 0
 456 713 452 727 438 734 c 0
 426 741 399 745 359 745 c 0
 320 745 280 740 240 730 c 1
 238 749 l 1
 281 760 322 765 363 765 c 0
 408 765 439 760 455 749 c 0
 471 738 477 720 473 693 c 0
 471 680 467 666 462 649 c 0
 456 632 450 618 443 605 c 1
 421 605 l 1
 428 615 434 629 440 646 c 0
EndSplineSet
EndChar

StartChar: uni0207
Encoding: 519 519 256
Width: 524
Flags: W
LayerCount: 2
Fore
SplineSet
453 258 m 1
 54 258 l 1
 42 177 51 116 81 74 c 0
 111 31 160 10 228 10 c 0
 284 10 339 23 392 48 c 1
 398 30 l 1
 341 3 284 -10 225 -10 c 0
 150 -10 97 13 64 60 c 0
 31 107 22 173 35 260 c 0
 48 346 77 412 121 460 c 0
 165 506 220 530 287 530 c 0
 354 530 401 506 430 460 c 0
 459 412 466 346 453 260 c 1
 453 258 l 1
138 450 m 0
 98 411 72 353 57 278 c 1
 437 278 l 1
 446 353 438 411 411 450 c 0
 384 490 342 510 284 510 c 0
 225 510 176 490 138 450 c 0
412 702 m 0
 436 680 449 651 449 615 c 1
 430 615 l 1
 429 645 417 669 395 688 c 0
 373 706 344 715 309 715 c 0
 274 715 242 706 214 688 c 0
 187 669 168 645 157 615 c 1
 138 615 l 1
 149 651 171 680 203 702 c 0
 235 724 271 735 312 735 c 0
 353 735 386 724 412 702 c 0
EndSplineSet
EndChar

StartChar: emacron
Encoding: 275 275 257
Width: 524
Flags: W
LayerCount: 2
Fore
SplineSet
453 258 m 1
 54 258 l 1
 42 177 51 116 81 74 c 0
 111 31 160 10 228 10 c 0
 284 10 339 23 392 48 c 1
 398 30 l 1
 341 3 284 -10 225 -10 c 0
 150 -10 97 13 64 60 c 0
 31 107 22 173 35 260 c 0
 48 346 77 412 121 460 c 0
 165 506 220 530 287 530 c 0
 354 530 401 506 430 460 c 0
 459 412 466 346 453 260 c 1
 453 258 l 1
138 450 m 0
 98 411 72 353 57 278 c 1
 437 278 l 1
 446 353 438 411 411 450 c 0
 384 490 342 510 284 510 c 0
 225 510 176 490 138 450 c 0
131 675 m 1
 459 675 l 1
 456 655 l 1
 128 655 l 1
 131 675 l 1
EndSplineSet
EndChar

StartChar: eogonek
Encoding: 281 281 258
Width: 496
Flags: W
LayerCount: 2
Fore
SplineSet
449 -163 m 1
 418 -177 385 -184 350 -184 c 0
 303 -184 273 -175 258 -158 c 0
 244 -141 239 -121 242 -99 c 0
 247 -65 269 -32 308 0 c 1
 281 -7 254 -10 225 -10 c 0
 150 -10 97 13 64 60 c 0
 31 107 22 173 35 260 c 0
 48 346 77 412 121 460 c 0
 165 506 220 530 287 530 c 0
 354 530 401 506 430 460 c 0
 459 412 466 346 453 260 c 1
 452 258 l 1
 54 258 l 1
 42 177 51 116 81 74 c 0
 111 31 160 10 228 10 c 0
 272 10 315 18 357 34 c 1
 381 47 l 1
 385 45 l 1
 392 48 l 1
 395 38 l 1
 398 36 l 1
 396 35 l 1
 397 30 l 1
 362 15 l 1
 301 -22 267 -60 261 -99 c 0
 257 -124 264 -141 283 -150 c 0
 302 -159 325 -164 353 -164 c 0
 386 -164 416 -158 445 -145 c 1
 449 -163 l 1
138 450 m 0
 98 411 72 353 57 278 c 1
 437 278 l 1
 446 353 438 411 411 450 c 0
 384 490 342 510 284 510 c 0
 225 510 176 490 138 450 c 0
EndSplineSet
EndChar

StartChar: uni1EBD
Encoding: 7869 7869 259
Width: 524
Flags: W
LayerCount: 2
Fore
SplineSet
453 258 m 1
 54 258 l 1
 42 177 51 116 81 74 c 0
 111 31 160 10 228 10 c 0
 284 10 339 23 392 48 c 1
 398 30 l 1
 341 3 284 -10 225 -10 c 0
 150 -10 97 13 64 60 c 0
 31 107 22 173 35 260 c 0
 48 346 77 412 121 460 c 0
 165 506 220 530 287 530 c 0
 354 530 401 506 430 460 c 0
 459 412 466 346 453 260 c 1
 453 258 l 1
138 450 m 0
 98 411 72 353 57 278 c 1
 437 278 l 1
 446 353 438 411 411 450 c 0
 384 490 342 510 284 510 c 0
 225 510 176 490 138 450 c 0
295 657 m 0
 258 689 230 705 210 705 c 0
 185 705 168 675 158 615 c 1
 139 615 l 1
 145 652 154 679 166 698 c 0
 177 716 193 725 213 725 c 0
 238 725 270 708 309 673 c 0
 346 641 375 625 395 625 c 0
 420 625 437 655 446 715 c 1
 466 715 l 1
 455 642 430 605 392 605 c 0
 368 605 336 622 295 657 c 0
EndSplineSet
EndChar

StartChar: uni0259
Encoding: 601 601 260
Width: 494
Flags: W
LayerCount: 2
Fore
SplineSet
422 460 m 0
 456 413 465 347 451 260 c 0
 438 174 409 108 365 60 c 0
 321 14 266 -10 200 -10 c 0
 133 -10 86 14 56 60 c 0
 28 108 20 174 33 260 c 1
 34 262 l 1
 433 262 l 1
 445 343 436 404 406 446 c 0
 376 489 327 510 258 510 c 0
 202 510 147 497 94 472 c 1
 89 490 l 1
 146 517 203 530 261 530 c 0
 336 530 390 507 422 460 c 0
349 70 m 0
 388 109 415 167 429 242 c 1
 49 242 l 1
 40 167 48 109 75 70 c 0
 102 30 144 10 203 10 c 0
 261 10 310 30 349 70 c 0
EndSplineSet
EndChar

StartChar: f
Encoding: 102 102 261
Width: 386
Flags: W
LayerCount: 2
Fore
SplineSet
58 500 m 1
 61 520 l 1
 208 520 l 1
 223 610 l 2
 231 661 247 698 270 723 c 0
 294 748 327 760 368 760 c 0
 391 760 414 755 436 745 c 1
 425 726 l 1
 406 735 386 740 365 740 c 0
 330 740 302 730 282 709 c 0
 262 688 248 655 241 610 c 2
 227 520 l 1
 398 520 l 1
 395 500 l 1
 224 500 l 1
 145 0 l 1
 126 0 l 1
 205 500 l 1
 58 500 l 1
EndSplineSet
EndChar

StartChar: g
Encoding: 103 103 262
Width: 518
Flags: W
LayerCount: 2
Fore
SplineSet
479 520 m 1
 401 30 l 2
 387 -59 359 -124 317 -166 c 0
 275 -209 217 -230 143 -230 c 0
 82 -230 28 -216 -19 -188 c 1
 -8 -170 l 1
 36 -197 87 -210 146 -210 c 0
 215 -210 268 -191 306 -152 c 0
 344 -113 369 -53 382 30 c 2
 397 120 l 1
 395 120 l 1
 374 79 346 48 310 24 c 0
 276 2 237 -10 196 -10 c 0
 134 -10 89 14 61 62 c 0
 33 110 26 176 39 260 c 0
 52 344 80 410 124 458 c 0
 166 506 219 530 281 530 c 0
 323 530 358 518 385 496 c 0
 412 472 430 441 439 400 c 1
 441 400 l 1
 460 520 l 1
 479 520 l 1
339 71 m 0
 378 112 404 166 415 235 c 2
 423 285 l 2
 434 354 426 408 400 449 c 0
 373 490 333 510 278 510 c 0
 221 510 174 488 134 444 c 0
 96 399 70 338 58 260 c 0
 45 182 52 121 76 76 c 0
 102 32 142 10 199 10 c 0
 253 10 300 30 339 71 c 0
EndSplineSet
EndChar

StartChar: gbreve
Encoding: 287 287 263
Width: 552
Flags: W
LayerCount: 2
Fore
SplineSet
479 520 m 1
 401 30 l 2
 387 -59 359 -124 317 -166 c 0
 275 -209 217 -230 143 -230 c 0
 82 -230 28 -216 -19 -188 c 1
 -8 -170 l 1
 36 -197 87 -210 146 -210 c 0
 215 -210 268 -191 306 -152 c 0
 344 -113 369 -53 382 30 c 2
 397 120 l 1
 395 120 l 1
 374 79 346 48 310 24 c 0
 276 2 237 -10 196 -10 c 0
 134 -10 89 14 61 62 c 0
 33 110 26 176 39 260 c 0
 52 344 80 410 124 458 c 0
 166 506 219 530 281 530 c 0
 323 530 358 518 385 496 c 0
 412 472 430 441 439 400 c 1
 441 400 l 1
 460 520 l 1
 479 520 l 1
339 71 m 0
 378 112 404 166 415 235 c 2
 423 285 l 2
 434 354 426 408 400 449 c 0
 373 490 333 510 278 510 c 0
 221 510 174 488 134 444 c 0
 96 399 70 338 58 260 c 0
 45 182 52 121 76 76 c 0
 102 32 142 10 199 10 c 0
 253 10 300 30 339 71 c 0
197 628 m 0
 172 650 160 679 159 715 c 1
 179 715 l 1
 180 685 192 661 214 642 c 0
 235 624 264 615 299 615 c 0
 334 615 366 624 394 642 c 0
 421 661 440 685 451 715 c 1
 471 715 l 1
 460 679 438 650 406 628 c 0
 374 606 337 595 296 595 c 0
 255 595 222 606 197 628 c 0
EndSplineSet
EndChar

StartChar: gcaron
Encoding: 487 487 264
Width: 552
Flags: W
LayerCount: 2
Fore
SplineSet
479 520 m 1
 401 30 l 2
 387 -59 359 -124 317 -166 c 0
 275 -209 217 -230 143 -230 c 0
 82 -230 28 -216 -19 -188 c 1
 -8 -170 l 1
 36 -197 87 -210 146 -210 c 0
 215 -210 268 -191 306 -152 c 0
 344 -113 369 -53 382 30 c 2
 397 120 l 1
 395 120 l 1
 374 79 346 48 310 24 c 0
 276 2 237 -10 196 -10 c 0
 134 -10 89 14 61 62 c 0
 33 110 26 176 39 260 c 0
 52 344 80 410 124 458 c 0
 166 506 219 530 281 530 c 0
 323 530 358 518 385 496 c 0
 412 472 430 441 439 400 c 1
 441 400 l 1
 460 520 l 1
 479 520 l 1
339 71 m 0
 378 112 404 166 415 235 c 2
 423 285 l 2
 434 354 426 408 400 449 c 0
 373 490 333 510 278 510 c 0
 221 510 174 488 134 444 c 0
 96 399 70 338 58 260 c 0
 45 182 52 121 76 76 c 0
 102 32 142 10 199 10 c 0
 253 10 300 30 339 71 c 0
159 770 m 1
 183 770 l 1
 295 575 l 1
 297 575 l 1
 471 770 l 1
 496 770 l 1
 309 560 l 1
 279 560 l 1
 159 770 l 1
EndSplineSet
EndChar

StartChar: gcircumflex
Encoding: 285 285 265
Width: 552
Flags: W
LayerCount: 2
Fore
SplineSet
479 520 m 1
 401 30 l 2
 387 -59 359 -124 317 -166 c 0
 275 -209 217 -230 143 -230 c 0
 82 -230 28 -216 -19 -188 c 1
 -8 -170 l 1
 36 -197 87 -210 146 -210 c 0
 215 -210 268 -191 306 -152 c 0
 344 -113 369 -53 382 30 c 2
 397 120 l 1
 395 120 l 1
 374 79 346 48 310 24 c 0
 276 2 237 -10 196 -10 c 0
 134 -10 89 14 61 62 c 0
 33 110 26 176 39 260 c 0
 52 344 80 410 124 458 c 0
 166 506 219 530 281 530 c 0
 323 530 358 518 385 496 c 0
 412 472 430 441 439 400 c 1
 441 400 l 1
 460 520 l 1
 479 520 l 1
339 71 m 0
 378 112 404 166 415 235 c 2
 423 285 l 2
 434 354 426 408 400 449 c 0
 373 490 333 510 278 510 c 0
 221 510 174 488 134 444 c 0
 96 399 70 338 58 260 c 0
 45 182 52 121 76 76 c 0
 102 32 142 10 199 10 c 0
 253 10 300 30 339 71 c 0
312 770 m 1
 342 770 l 1
 462 560 l 1
 438 560 l 1
 326 755 l 1
 324 755 l 1
 150 560 l 1
 125 560 l 1
 312 770 l 1
EndSplineSet
EndChar

StartChar: uni0123
Encoding: 291 291 266
Width: 552
Flags: W
LayerCount: 2
Fore
SplineSet
479 520 m 1
 401 30 l 2
 387 -59 359 -124 317 -166 c 0
 275 -209 217 -230 143 -230 c 0
 82 -230 28 -216 -19 -188 c 1
 -8 -170 l 1
 36 -197 87 -210 146 -210 c 0
 215 -210 268 -191 306 -152 c 0
 344 -113 369 -53 382 30 c 2
 397 120 l 1
 395 120 l 1
 374 79 346 48 310 24 c 0
 276 2 237 -10 196 -10 c 0
 134 -10 89 14 61 62 c 0
 33 110 26 176 39 260 c 0
 52 344 80 410 124 458 c 0
 166 506 219 530 281 530 c 0
 323 530 358 518 385 496 c 0
 412 472 430 441 439 400 c 1
 441 400 l 1
 460 520 l 1
 479 520 l 1
339 71 m 0
 378 112 404 166 415 235 c 2
 423 285 l 2
 434 354 426 408 400 449 c 0
 373 490 333 510 278 510 c 0
 221 510 174 488 134 444 c 0
 96 399 70 338 58 260 c 0
 45 182 52 121 76 76 c 0
 102 32 142 10 199 10 c 0
 253 10 300 30 339 71 c 0
411 770 m 1
 433 770 l 1
 282 560 l 1
 259 560 l 1
 411 770 l 1
EndSplineSet
EndChar

StartChar: gdotaccent
Encoding: 289 289 267
Width: 552
Flags: W
LayerCount: 2
Fore
SplineSet
479 520 m 1
 401 30 l 2
 387 -59 359 -124 317 -166 c 0
 275 -209 217 -230 143 -230 c 0
 82 -230 28 -216 -19 -188 c 1
 -8 -170 l 1
 36 -197 87 -210 146 -210 c 0
 215 -210 268 -191 306 -152 c 0
 344 -113 369 -53 382 30 c 2
 397 120 l 1
 395 120 l 1
 374 79 346 48 310 24 c 0
 276 2 237 -10 196 -10 c 0
 134 -10 89 14 61 62 c 0
 33 110 26 176 39 260 c 0
 52 344 80 410 124 458 c 0
 166 506 219 530 281 530 c 0
 323 530 358 518 385 496 c 0
 412 472 430 441 439 400 c 1
 441 400 l 1
 460 520 l 1
 479 520 l 1
339 71 m 0
 378 112 404 166 415 235 c 2
 423 285 l 2
 434 354 426 408 400 449 c 0
 373 490 333 510 278 510 c 0
 221 510 174 488 134 444 c 0
 96 399 70 338 58 260 c 0
 45 182 52 121 76 76 c 0
 102 32 142 10 199 10 c 0
 253 10 300 30 339 71 c 0
313 695 m 1
 372 695 l 1
 362 635 l 1
 303 635 l 1
 313 695 l 1
EndSplineSet
EndChar

StartChar: h
Encoding: 104 104 268
Width: 527
Flags: W
LayerCount: 2
Fore
SplineSet
447 476 m 0
 468 440 474 388 463 320 c 2
 412 0 l 1
 393 0 l 1
 444 320 l 2
 454 383 450 430 432 462 c 0
 413 494 381 510 335 510 c 0
 298 510 263 500 229 480 c 0
 195 461 166 434 142 400 c 0
 119 367 104 330 97 290 c 2
 51 0 l 1
 32 0 l 1
 151 750 l 1
 170 750 l 1
 113 388 l 1
 115 388 l 1
 140 431 172 465 212 491 c 0
 252 517 294 530 338 530 c 0
 389 530 426 512 447 476 c 0
EndSplineSet
EndChar

StartChar: hbar
Encoding: 295 295 269
Width: 590
Flags: W
LayerCount: 2
Fore
SplineSet
511 476 m 0
 532 440 538 388 527 320 c 2
 476 0 l 1
 457 0 l 1
 508 320 l 2
 518 383 514 430 496 462 c 0
 477 494 445 510 399 510 c 0
 362 510 327 500 293 480 c 0
 259 461 230 434 206 400 c 0
 183 367 168 330 161 290 c 2
 115 0 l 1
 96 0 l 1
 194 615 l 1
 80 615 l 1
 83 635 l 1
 197 635 l 1
 215 750 l 1
 234 750 l 1
 216 635 l 1
 482 635 l 1
 479 615 l 1
 213 615 l 1
 177 388 l 1
 178 388 l 1
 203 431 235 465 276 491 c 0
 316 517 358 530 402 530 c 0
 453 530 490 512 511 476 c 0
EndSplineSet
EndChar

StartChar: hcircumflex
Encoding: 293 293 270
Width: 562
Flags: W
LayerCount: 2
Fore
SplineSet
447 476 m 0
 468 440 474 388 463 320 c 2
 412 0 l 1
 393 0 l 1
 444 320 l 2
 454 383 450 430 432 462 c 0
 413 494 381 510 335 510 c 0
 298 510 263 500 229 480 c 0
 195 461 166 434 142 400 c 0
 119 367 104 330 97 290 c 2
 51 0 l 1
 32 0 l 1
 151 750 l 1
 170 750 l 1
 113 388 l 1
 115 388 l 1
 140 431 172 465 212 491 c 0
 252 517 294 530 338 530 c 0
 389 530 426 512 447 476 c 0
348 1000 m 1
 378 1000 l 1
 498 790 l 1
 474 790 l 1
 362 985 l 1
 360 985 l 1
 186 790 l 1
 161 790 l 1
 348 1000 l 1
EndSplineSet
EndChar

StartChar: i
Encoding: 105 105 271
Width: 227
Flags: W
LayerCount: 2
Fore
SplineSet
156 730 m 1
 213 730 l 1
 203 670 l 1
 147 670 l 1
 156 730 l 1
142 520 m 1
 161 520 l 1
 78 0 l 1
 59 0 l 1
 142 520 l 1
EndSplineSet
EndChar

StartChar: dotlessi
Encoding: 305 305 272
Width: 189
Flags: W
LayerCount: 2
Fore
SplineSet
123 520 m 1
 142 520 l 1
 59 0 l 1
 41 0 l 1
 123 520 l 1
EndSplineSet
EndChar

StartChar: iacute
Encoding: 237 237 273
Width: 208
Flags: W
LayerCount: 2
Fore
SplineSet
123 520 m 1
 142 520 l 1
 59 0 l 1
 41 0 l 1
 123 520 l 1
114 560 m 1
 91 560 l 1
 243 770 l 1
 266 770 l 1
 114 560 l 1
EndSplineSet
EndChar

StartChar: ibreve
Encoding: 301 301 274
Width: 208
Flags: W
LayerCount: 2
Fore
SplineSet
123 520 m 1
 142 520 l 1
 59 0 l 1
 41 0 l 1
 123 520 l 1
31 628 m 0
 6 650 -6 679 -7 715 c 1
 13 715 l 1
 14 685 26 661 48 642 c 0
 69 624 98 615 133 615 c 0
 168 615 200 624 228 642 c 0
 255 661 274 685 285 715 c 1
 305 715 l 1
 294 679 272 650 240 628 c 0
 208 606 171 595 130 595 c 0
 89 595 56 606 31 628 c 0
EndSplineSet
EndChar

StartChar: icircumflex
Encoding: 238 238 275
Width: 208
Flags: W
LayerCount: 2
Fore
SplineSet
123 520 m 1
 142 520 l 1
 59 0 l 1
 41 0 l 1
 123 520 l 1
146 770 m 1
 176 770 l 1
 296 560 l 1
 272 560 l 1
 160 755 l 1
 158 755 l 1
 -16 560 l 1
 -41 560 l 1
 146 770 l 1
EndSplineSet
EndChar

StartChar: uni0209
Encoding: 521 521 276
Width: 208
Flags: W
LayerCount: 2
Fore
SplineSet
123 520 m 1
 142 520 l 1
 59 0 l 1
 41 0 l 1
 123 520 l 1
-37 770 m 1
 -14 770 l 1
 71 560 l 1
 49 560 l 1
 -37 770 l 1
140 770 m 1
 162 770 l 1
 248 560 l 1
 225 560 l 1
 140 770 l 1
EndSplineSet
EndChar

StartChar: idieresis
Encoding: 239 239 277
Width: 208
Flags: W
LayerCount: 2
Fore
SplineSet
123 520 m 1
 142 520 l 1
 59 0 l 1
 41 0 l 1
 123 520 l 1
-1 695 m 1
 57 695 l 1
 48 635 l 1
 -11 635 l 1
 -1 695 l 1
234 695 m 1
 293 695 l 1
 283 635 l 1
 224 635 l 1
 234 695 l 1
EndSplineSet
EndChar

StartChar: i.loclTRK
Encoding: 1114113 -1 278
Width: 208
Flags: W
LayerCount: 2
Fore
SplineSet
123 520 m 1
 142 520 l 1
 59 0 l 1
 41 0 l 1
 123 520 l 1
147 695 m 1
 206 695 l 1
 196 635 l 1
 137 635 l 1
 147 695 l 1
EndSplineSet
EndChar

StartChar: uni1ECB
Encoding: 7883 7883 279
Width: 248
Flags: W
LayerCount: 2
Fore
SplineSet
156 730 m 1
 213 730 l 1
 203 670 l 1
 147 670 l 1
 156 730 l 1
142 520 m 1
 161 520 l 1
 78 0 l 1
 59 0 l 1
 142 520 l 1
39 -115 m 1
 98 -115 l 1
 88 -175 l 1
 29 -175 l 1
 39 -115 l 1
EndSplineSet
EndChar

StartChar: igrave
Encoding: 236 236 280
Width: 208
Flags: W
LayerCount: 2
Fore
SplineSet
123 520 m 1
 142 520 l 1
 59 0 l 1
 41 0 l 1
 123 520 l 1
76 770 m 1
 99 770 l 1
 184 560 l 1
 162 560 l 1
 76 770 l 1
EndSplineSet
EndChar

StartChar: uni1EC9
Encoding: 7881 7881 281
Width: 208
Flags: W
LayerCount: 2
Fore
SplineSet
123 520 m 1
 142 520 l 1
 59 0 l 1
 41 0 l 1
 123 520 l 1
280 646 m 0
 287 664 291 680 293 693 c 0
 296 713 292 727 278 734 c 0
 266 741 239 745 199 745 c 0
 160 745 120 740 80 730 c 1
 78 749 l 1
 121 760 162 765 203 765 c 0
 248 765 279 760 295 749 c 0
 311 738 317 720 313 693 c 0
 311 680 307 666 302 649 c 0
 296 632 290 618 283 605 c 1
 261 605 l 1
 268 615 274 629 280 646 c 0
EndSplineSet
EndChar

StartChar: uni020B
Encoding: 523 523 282
Width: 208
Flags: W
LayerCount: 2
Fore
SplineSet
123 520 m 1
 142 520 l 1
 59 0 l 1
 41 0 l 1
 123 520 l 1
252 702 m 0
 276 680 289 651 289 615 c 1
 270 615 l 1
 269 645 257 669 235 688 c 0
 213 706 184 715 149 715 c 0
 114 715 82 706 54 688 c 0
 27 669 8 645 -3 615 c 1
 -22 615 l 1
 -11 651 11 680 43 702 c 0
 75 724 111 735 152 735 c 0
 193 735 226 724 252 702 c 0
EndSplineSet
EndChar

StartChar: imacron
Encoding: 299 299 283
Width: 208
Flags: W
LayerCount: 2
Fore
SplineSet
123 520 m 1
 142 520 l 1
 59 0 l 1
 41 0 l 1
 123 520 l 1
-29 675 m 1
 299 675 l 1
 296 655 l 1
 -32 655 l 1
 -29 675 l 1
EndSplineSet
EndChar

StartChar: iogonek
Encoding: 303 303 284
Width: 197
Flags: W
LayerCount: 2
Fore
SplineSet
193 695 m 1
 183 635 l 1
 127 635 l 1
 136 695 l 1
 193 695 l 1
115 -199 m 1
 84 -213 51 -220 16 -220 c 0
 -31 -220 -61 -211 -76 -194 c 0
 -90 -177 -95 -157 -92 -135 c 0
 -88 -109 -74 -84 -50 -58 c 0
 -25 -34 7 -10 47 11 c 1
 127 520 l 1
 146 520 l 1
 64 0 l 1
 23 -21 -9 -44 -32 -66 c 0
 -56 -90 -70 -112 -73 -135 c 0
 -77 -160 -70 -177 -52 -186 c 0
 -33 -195 -10 -200 19 -200 c 0
 52 -200 82 -194 110 -181 c 1
 115 -199 l 1
EndSplineSet
EndChar

StartChar: itilde
Encoding: 297 297 285
Width: 208
Flags: W
LayerCount: 2
Fore
SplineSet
123 520 m 1
 142 520 l 1
 59 0 l 1
 41 0 l 1
 123 520 l 1
135 657 m 0
 98 689 70 705 50 705 c 0
 25 705 8 675 -2 615 c 1
 -21 615 l 1
 -15 652 -6 679 6 698 c 0
 17 716 33 725 53 725 c 0
 78 725 110 708 149 673 c 0
 186 641 215 625 235 625 c 0
 260 625 277 655 286 715 c 1
 306 715 l 1
 295 642 270 605 232 605 c 0
 208 605 176 622 135 657 c 0
EndSplineSet
EndChar

StartChar: j
Encoding: 106 106 286
Width: 281
Flags: W
LayerCount: 2
Fore
SplineSet
210 730 m 1
 267 730 l 1
 257 670 l 1
 201 670 l 1
 210 730 l 1
0 -192 m 0
 33 -181 58 -160 75 -132 c 0
 92 -102 104 -59 113 0 c 2
 196 520 l 1
 215 520 l 1
 132 0 l 2
 122 -62 108 -109 88 -142 c 0
 70 -174 42 -197 6 -210 c 0
 -30 -223 -81 -230 -146 -230 c 1
 -143 -210 l 1
 -81 -210 -33 -204 0 -192 c 0
EndSplineSet
EndChar

StartChar: uni0237
Encoding: 567 567 287
Width: 262
Flags: W
LayerCount: 2
Fore
SplineSet
0 -192 m 0
 33 -181 58 -160 75 -132 c 0
 92 -102 105 -59 114 0 c 2
 196 520 l 1
 215 520 l 1
 132 0 l 2
 122 -62 108 -109 89 -142 c 0
 70 -174 43 -197 6 -210 c 0
 -30 -223 -81 -230 -146 -230 c 1
 -143 -210 l 1
 -81 -210 -33 -204 0 -192 c 0
EndSplineSet
EndChar

StartChar: jcircumflex
Encoding: 309 309 288
Width: 278
Flags: W
LayerCount: 2
Fore
SplineSet
0 -192 m 0
 33 -181 58 -160 75 -132 c 0
 92 -102 105 -59 114 0 c 2
 196 520 l 1
 215 520 l 1
 132 0 l 2
 122 -62 108 -109 89 -142 c 0
 70 -174 43 -197 6 -210 c 0
 -30 -223 -81 -230 -146 -230 c 1
 -143 -210 l 1
 -81 -210 -33 -204 0 -192 c 0
181 770 m 1
 211 770 l 1
 331 560 l 1
 307 560 l 1
 195 755 l 1
 193 755 l 1
 19 560 l 1
 -6 560 l 1
 181 770 l 1
EndSplineSet
EndChar

StartChar: k
Encoding: 107 107 289
Width: 486
Flags: W
LayerCount: 2
Fore
SplineSet
151 750 m 1
 170 750 l 1
 95 277 l 1
 97 277 l 1
 438 520 l 1
 470 520 l 1
 117 270 l 1
 403 0 l 1
 371 0 l 1
 95 263 l 1
 93 263 l 1
 51 0 l 1
 32 0 l 1
 151 750 l 1
EndSplineSet
EndChar

StartChar: uni0137
Encoding: 311 311 290
Width: 518
Flags: W
LayerCount: 2
Fore
SplineSet
151 750 m 1
 170 750 l 1
 95 277 l 1
 97 277 l 1
 438 520 l 1
 470 520 l 1
 117 270 l 1
 403 0 l 1
 371 0 l 1
 95 263 l 1
 93 263 l 1
 51 0 l 1
 32 0 l 1
 151 750 l 1
32 -250 m 1
 9 -250 l 1
 161 -40 l 1
 183 -40 l 1
 32 -250 l 1
EndSplineSet
EndChar

StartChar: kgreenlandic
Encoding: 312 312 291
Width: 486
Flags: W
LayerCount: 2
Fore
SplineSet
115 520 m 1
 134 520 l 1
 95 277 l 1
 97 277 l 1
 438 520 l 1
 470 520 l 1
 117 270 l 1
 403 0 l 1
 371 0 l 1
 95 263 l 1
 93 263 l 1
 51 0 l 1
 32 0 l 1
 115 520 l 1
EndSplineSet
EndChar

StartChar: l
Encoding: 108 108 292
Width: 287
Flags: W
LayerCount: 2
Fore
SplineSet
159 750 m 1
 179 750 l 1
 82 140 l 2
 73 87 76 52 88 35 c 0
 102 18 129 10 170 10 c 0
 197 10 224 15 251 24 c 1
 255 5 l 1
 227 -5 198 -10 167 -10 c 0
 118 -10 86 1 72 22 c 0
 56 43 54 83 63 140 c 2
 159 750 l 1
EndSplineSet
EndChar

StartChar: lacute
Encoding: 314 314 293
Width: 287
Flags: W
LayerCount: 2
Fore
SplineSet
159 750 m 1
 179 750 l 1
 82 140 l 2
 73 87 76 52 88 35 c 0
 102 18 129 10 170 10 c 0
 197 10 224 15 251 24 c 1
 255 5 l 1
 227 -5 198 -10 167 -10 c 0
 118 -10 86 1 72 22 c 0
 56 43 54 83 63 140 c 2
 159 750 l 1
150 790 m 1
 127 790 l 1
 279 1000 l 1
 302 1000 l 1
 150 790 l 1
EndSplineSet
EndChar

StartChar: lcaron
Encoding: 318 318 294
Width: 377
Flags: W
LayerCount: 2
Fore
SplineSet
159 750 m 1
 179 750 l 1
 82 140 l 2
 73 87 76 52 88 35 c 0
 102 18 129 10 170 10 c 0
 197 10 224 15 251 24 c 1
 255 5 l 1
 227 -5 198 -10 167 -10 c 0
 118 -10 86 1 72 22 c 0
 56 43 54 83 63 140 c 2
 159 750 l 1
357 770 m 1
 379 770 l 1
 225 470 l 1
 203 470 l 1
 357 770 l 1
EndSplineSet
EndChar

StartChar: uni013C
Encoding: 316 316 295
Width: 287
Flags: W
LayerCount: 2
Fore
SplineSet
159 750 m 1
 179 750 l 1
 82 140 l 2
 73 87 76 52 88 35 c 0
 102 18 129 10 170 10 c 0
 197 10 224 15 251 24 c 1
 255 5 l 1
 227 -5 198 -10 167 -10 c 0
 118 -10 86 1 72 22 c 0
 56 43 54 83 63 140 c 2
 159 750 l 1
16 -250 m 1
 -7 -250 l 1
 145 -40 l 1
 167 -40 l 1
 16 -250 l 1
EndSplineSet
EndChar

StartChar: ldot
Encoding: 320 320 296
Width: 328
Flags: W
LayerCount: 2
Fore
SplineSet
159 750 m 1
 179 750 l 1
 82 140 l 2
 73 87 76 52 88 35 c 0
 102 18 129 10 170 10 c 0
 197 10 224 15 251 24 c 1
 255 5 l 1
 227 -5 198 -10 167 -10 c 0
 118 -10 86 1 72 22 c 0
 56 43 54 83 63 140 c 2
 159 750 l 1
239 405 m 1
 298 405 l 1
 288 345 l 1
 230 345 l 1
 239 405 l 1
EndSplineSet
EndChar

StartChar: uni01C9
Encoding: 457 457 297
Width: 506
Flags: W
LayerCount: 2
Fore
SplineSet
159 750 m 1
 179 750 l 1
 82 140 l 2
 73 87 76 52 88 35 c 0
 102 18 129 10 170 10 c 0
 197 10 224 15 251 24 c 1
 255 5 l 1
 227 -5 198 -10 167 -10 c 0
 118 -10 86 1 72 22 c 0
 56 43 54 83 63 140 c 2
 159 750 l 1
418 730 m 1
 475 730 l 1
 465 670 l 1
 409 670 l 1
 418 730 l 1
208 -192 m 0
 241 -181 266 -160 283 -132 c 0
 300 -102 312 -59 321 0 c 2
 404 520 l 1
 423 520 l 1
 340 0 l 2
 330 -62 316 -109 296 -142 c 0
 278 -174 250 -197 214 -210 c 0
 178 -223 127 -230 62 -230 c 1
 65 -210 l 1
 127 -210 175 -204 208 -192 c 0
EndSplineSet
EndChar

StartChar: lslash
Encoding: 322 322 298
Width: 353
Flags: W
LayerCount: 2
Fore
SplineSet
361 431 m 1
 23 281 l 1
 19 299 l 1
 356 449 l 1
 361 431 l 1
241 750 m 1
 261 750 l 1
 164 140 l 2
 155 87 158 52 170 35 c 0
 184 18 211 10 252 10 c 0
 279 10 306 15 333 24 c 1
 337 5 l 1
 309 -5 280 -10 249 -10 c 0
 200 -10 168 1 154 22 c 0
 138 43 136 83 145 140 c 2
 241 750 l 1
EndSplineSet
EndChar

StartChar: m
Encoding: 109 109 299
Width: 735
Flags: W
LayerCount: 2
Fore
SplineSet
664 476 m 0
 680 441 682 389 671 320 c 2
 621 0 l 1
 602 0 l 1
 653 320 l 2
 673 447 647 510 575 510 c 0
 547 510 520 501 492 484 c 0
 466 466 442 442 423 412 c 0
 404 383 391 351 386 318 c 2
 336 0 l 1
 317 0 l 1
 368 320 l 2
 388 447 362 510 291 510 c 0
 262 510 233 500 206 480 c 0
 179 461 155 434 136 400 c 0
 117 367 104 330 97 290 c 2
 51 0 l 1
 32 0 l 1
 115 520 l 1
 134 520 l 1
 114 399 l 1
 116 399 l 1
 137 439 164 471 195 494 c 0
 226 518 259 530 293 530 c 0
 326 530 351 519 368 497 c 0
 385 475 393 442 394 399 c 1
 395 399 l 1
 416 437 443 468 476 493 c 0
 510 518 544 530 578 530 c 0
 620 530 649 512 664 476 c 0
EndSplineSet
EndChar

StartChar: n
Encoding: 110 110 300
Width: 527
Flags: W
LayerCount: 2
Fore
SplineSet
447 476 m 0
 468 440 474 388 463 320 c 2
 412 0 l 1
 393 0 l 1
 444 320 l 2
 464 447 428 510 335 510 c 0
 298 510 262 500 228 480 c 0
 194 461 165 434 142 400 c 0
 119 367 104 330 97 290 c 2
 51 0 l 1
 32 0 l 1
 115 520 l 1
 134 520 l 1
 113 388 l 1
 115 388 l 1
 139 431 171 465 212 491 c 0
 252 517 294 530 338 530 c 0
 389 530 426 512 447 476 c 0
EndSplineSet
EndChar

StartChar: nacute
Encoding: 324 324 301
Width: 562
Flags: W
LayerCount: 2
Fore
SplineSet
447 476 m 0
 468 440 474 388 463 320 c 2
 412 0 l 1
 393 0 l 1
 444 320 l 2
 464 447 428 510 335 510 c 0
 298 510 262 500 228 480 c 0
 194 461 165 434 142 400 c 0
 119 367 104 330 97 290 c 2
 51 0 l 1
 32 0 l 1
 115 520 l 1
 134 520 l 1
 113 388 l 1
 115 388 l 1
 139 431 171 465 212 491 c 0
 252 517 294 530 338 530 c 0
 389 530 426 512 447 476 c 0
291 560 m 1
 268 560 l 1
 420 770 l 1
 443 770 l 1
 291 560 l 1
EndSplineSet
EndChar

StartChar: ncaron
Encoding: 328 328 302
Width: 562
Flags: W
LayerCount: 2
Fore
SplineSet
447 476 m 0
 468 440 474 388 463 320 c 2
 412 0 l 1
 393 0 l 1
 444 320 l 2
 464 447 428 510 335 510 c 0
 298 510 262 500 228 480 c 0
 194 461 165 434 142 400 c 0
 119 367 104 330 97 290 c 2
 51 0 l 1
 32 0 l 1
 115 520 l 1
 134 520 l 1
 113 388 l 1
 115 388 l 1
 139 431 171 465 212 491 c 0
 252 517 294 530 338 530 c 0
 389 530 426 512 447 476 c 0
170 770 m 1
 194 770 l 1
 306 575 l 1
 308 575 l 1
 482 770 l 1
 507 770 l 1
 320 560 l 1
 290 560 l 1
 170 770 l 1
EndSplineSet
EndChar

StartChar: uni0146
Encoding: 326 326 303
Width: 562
Flags: W
LayerCount: 2
Fore
SplineSet
447 476 m 0
 468 440 474 388 463 320 c 2
 412 0 l 1
 393 0 l 1
 444 320 l 2
 464 447 428 510 335 510 c 0
 298 510 262 500 228 480 c 0
 194 461 165 434 142 400 c 0
 119 367 104 330 97 290 c 2
 51 0 l 1
 32 0 l 1
 115 520 l 1
 134 520 l 1
 113 388 l 1
 115 388 l 1
 139 431 171 465 212 491 c 0
 252 517 294 530 338 530 c 0
 389 530 426 512 447 476 c 0
93 -250 m 1
 70 -250 l 1
 222 -40 l 1
 244 -40 l 1
 93 -250 l 1
EndSplineSet
EndChar

StartChar: eng
Encoding: 331 331 304
Width: 527
Flags: W
LayerCount: 2
Fore
SplineSet
447 476 m 0
 468 440 474 388 463 320 c 2
 402 -61 l 2
 394 -112 378 -150 352 -174 c 0
 328 -199 292 -211 246 -211 c 0
 221 -211 196 -206 172 -196 c 1
 182 -177 l 1
 202 -186 224 -191 249 -191 c 0
 290 -191 320 -181 342 -160 c 0
 362 -140 376 -107 383 -61 c 2
 444 320 l 2
 464 447 428 510 335 510 c 0
 298 510 262 500 228 480 c 0
 194 461 165 434 142 400 c 0
 119 367 104 330 97 290 c 2
 51 0 l 1
 32 0 l 1
 115 520 l 1
 134 520 l 1
 113 388 l 1
 115 388 l 1
 139 431 171 465 212 491 c 0
 252 517 294 530 338 530 c 0
 389 530 426 512 447 476 c 0
EndSplineSet
EndChar

StartChar: uni01CC
Encoding: 460 460 305
Width: 860
Flags: W
LayerCount: 2
Fore
SplineSet
447 476 m 0
 468 440 474 388 463 320 c 2
 412 0 l 1
 393 0 l 1
 444 320 l 2
 464 447 428 510 335 510 c 0
 298 510 262 500 228 480 c 0
 194 461 165 434 142 400 c 0
 119 367 104 330 97 290 c 2
 51 0 l 1
 32 0 l 1
 115 520 l 1
 134 520 l 1
 113 388 l 1
 115 388 l 1
 139 431 171 465 212 491 c 0
 252 517 294 530 338 530 c 0
 389 530 426 512 447 476 c 0
772 730 m 1
 829 730 l 1
 819 670 l 1
 763 670 l 1
 772 730 l 1
562 -192 m 0
 595 -181 620 -160 637 -132 c 0
 654 -102 666 -59 675 0 c 2
 758 520 l 1
 777 520 l 1
 694 0 l 2
 684 -62 670 -109 650 -142 c 0
 632 -174 604 -197 568 -210 c 0
 532 -223 481 -230 416 -230 c 1
 419 -210 l 1
 481 -210 529 -204 562 -192 c 0
EndSplineSet
EndChar

StartChar: ntilde
Encoding: 241 241 306
Width: 562
Flags: W
LayerCount: 2
Fore
SplineSet
447 476 m 0
 468 440 474 388 463 320 c 2
 412 0 l 1
 393 0 l 1
 444 320 l 2
 464 447 428 510 335 510 c 0
 298 510 262 500 228 480 c 0
 194 461 165 434 142 400 c 0
 119 367 104 330 97 290 c 2
 51 0 l 1
 32 0 l 1
 115 520 l 1
 134 520 l 1
 113 388 l 1
 115 388 l 1
 139 431 171 465 212 491 c 0
 252 517 294 530 338 530 c 0
 389 530 426 512 447 476 c 0
312 657 m 0
 275 689 247 705 227 705 c 0
 202 705 185 675 175 615 c 1
 156 615 l 1
 162 652 171 679 182 698 c 0
 194 716 210 725 230 725 c 0
 255 725 287 708 326 673 c 0
 363 641 392 625 412 625 c 0
 437 625 454 655 463 715 c 1
 483 715 l 1
 472 642 447 605 409 605 c 0
 385 605 353 622 312 657 c 0
EndSplineSet
EndChar

StartChar: o
Encoding: 111 111 307
Width: 514
Flags: W
LayerCount: 2
Fore
SplineSet
62 62 m 0
 31 110 22 176 35 260 c 0
 48 344 78 410 125 458 c 0
 172 506 229 530 296 530 c 0
 364 530 414 506 445 458 c 0
 476 410 485 344 472 260 c 0
 459 176 429 110 382 62 c 0
 335 14 278 -10 211 -10 c 0
 143 -10 93 14 62 62 c 0
371 76 m 0
 413 120 440 181 453 260 c 0
 466 339 458 400 430 444 c 0
 401 488 356 510 293 510 c 0
 230 510 178 488 136 444 c 0
 94 400 67 339 54 260 c 0
 41 181 49 120 78 76 c 0
 106 32 151 10 214 10 c 0
 277 10 329 32 371 76 c 0
EndSplineSet
EndChar

StartChar: oacute
Encoding: 243 243 308
Width: 546
Flags: W
LayerCount: 2
Fore
SplineSet
62 62 m 0
 31 110 22 176 35 260 c 0
 48 344 78 410 125 458 c 0
 172 506 229 530 296 530 c 0
 364 530 414 506 445 458 c 0
 476 410 485 344 472 260 c 0
 459 176 429 110 382 62 c 0
 335 14 278 -10 211 -10 c 0
 143 -10 93 14 62 62 c 0
371 76 m 0
 413 120 440 181 453 260 c 0
 466 339 458 400 430 444 c 0
 401 488 356 510 293 510 c 0
 230 510 178 488 136 444 c 0
 94 400 67 339 54 260 c 0
 41 181 49 120 78 76 c 0
 106 32 151 10 214 10 c 0
 277 10 329 32 371 76 c 0
283 560 m 1
 260 560 l 1
 412 770 l 1
 435 770 l 1
 283 560 l 1
EndSplineSet
EndChar

StartChar: obreve
Encoding: 335 335 309
Width: 546
Flags: W
LayerCount: 2
Fore
SplineSet
62 62 m 0
 31 110 22 176 35 260 c 0
 48 344 78 410 125 458 c 0
 172 506 229 530 296 530 c 0
 364 530 414 506 445 458 c 0
 476 410 485 344 472 260 c 0
 459 176 429 110 382 62 c 0
 335 14 278 -10 211 -10 c 0
 143 -10 93 14 62 62 c 0
371 76 m 0
 413 120 440 181 453 260 c 0
 466 339 458 400 430 444 c 0
 401 488 356 510 293 510 c 0
 230 510 178 488 136 444 c 0
 94 400 67 339 54 260 c 0
 41 181 49 120 78 76 c 0
 106 32 151 10 214 10 c 0
 277 10 329 32 371 76 c 0
200 628 m 0
 175 650 163 679 162 715 c 1
 182 715 l 1
 183 685 195 661 216 642 c 0
 238 624 267 615 302 615 c 0
 337 615 369 624 396 642 c 0
 424 661 443 685 454 715 c 1
 474 715 l 1
 463 679 441 650 409 628 c 0
 377 606 340 595 299 595 c 0
 258 595 225 606 200 628 c 0
EndSplineSet
EndChar

StartChar: ocircumflex
Encoding: 244 244 310
Width: 546
Flags: W
LayerCount: 2
Fore
SplineSet
62 62 m 0
 31 110 22 176 35 260 c 0
 48 344 78 410 125 458 c 0
 172 506 229 530 296 530 c 0
 364 530 414 506 445 458 c 0
 476 410 485 344 472 260 c 0
 459 176 429 110 382 62 c 0
 335 14 278 -10 211 -10 c 0
 143 -10 93 14 62 62 c 0
371 76 m 0
 413 120 440 181 453 260 c 0
 466 339 458 400 430 444 c 0
 401 488 356 510 293 510 c 0
 230 510 178 488 136 444 c 0
 94 400 67 339 54 260 c 0
 41 181 49 120 78 76 c 0
 106 32 151 10 214 10 c 0
 277 10 329 32 371 76 c 0
315 770 m 1
 345 770 l 1
 465 560 l 1
 441 560 l 1
 329 755 l 1
 327 755 l 1
 153 560 l 1
 128 560 l 1
 315 770 l 1
EndSplineSet
EndChar

StartChar: uni1ED1
Encoding: 7889 7889 311
Width: 546
Flags: W
LayerCount: 2
Fore
SplineSet
62 62 m 0
 31 110 22 176 35 260 c 0
 48 344 78 410 125 458 c 0
 172 506 229 530 296 530 c 0
 364 530 414 506 445 458 c 0
 476 410 485 344 472 260 c 0
 459 176 429 110 382 62 c 0
 335 14 278 -10 211 -10 c 0
 143 -10 93 14 62 62 c 0
371 76 m 0
 413 120 440 181 453 260 c 0
 466 339 458 400 430 444 c 0
 401 488 356 510 293 510 c 0
 230 510 178 488 136 444 c 0
 94 400 67 339 54 260 c 0
 41 181 49 120 78 76 c 0
 106 32 151 10 214 10 c 0
 277 10 329 32 371 76 c 0
315 770 m 1
 345 770 l 1
 465 560 l 1
 441 560 l 1
 329 755 l 1
 327 755 l 1
 153 560 l 1
 128 560 l 1
 315 770 l 1
456 740 m 1
 433 740 l 1
 585 950 l 1
 608 950 l 1
 456 740 l 1
EndSplineSet
EndChar

StartChar: uni1ED9
Encoding: 7897 7897 312
Width: 546
Flags: W
LayerCount: 2
Fore
SplineSet
62 62 m 0
 31 110 22 176 35 260 c 0
 48 344 78 410 125 458 c 0
 172 506 229 530 296 530 c 0
 364 530 414 506 445 458 c 0
 476 410 485 344 472 260 c 0
 459 176 429 110 382 62 c 0
 335 14 278 -10 211 -10 c 0
 143 -10 93 14 62 62 c 0
371 76 m 0
 413 120 440 181 453 260 c 0
 466 339 458 400 430 444 c 0
 401 488 356 510 293 510 c 0
 230 510 178 488 136 444 c 0
 94 400 67 339 54 260 c 0
 41 181 49 120 78 76 c 0
 106 32 151 10 214 10 c 0
 277 10 329 32 371 76 c 0
188 -115 m 1
 247 -115 l 1
 237 -175 l 1
 178 -175 l 1
 188 -115 l 1
315 770 m 1
 345 770 l 1
 465 560 l 1
 441 560 l 1
 329 755 l 1
 327 755 l 1
 153 560 l 1
 128 560 l 1
 315 770 l 1
EndSplineSet
EndChar

